<svg width="64" height="86" viewBox="0 0 64 86" fill="none" xmlns="http://www.w3.org/2000/svg">
<mask id="mask0_126_45" style="mask-type:luminance" maskUnits="userSpaceOnUse" x="0" y="0" width="64" height="86">
<path d="M0.372803 0.918701H63.8465V86H0.372803V0.918701Z" fill="white"/>
</mask>
<g mask="url(#mask0_126_45)">
<path d="M43.0854 24.5546V12.5195C44.8293 12.1623 46.141 10.6213 46.141 8.77602V4.74154C46.141 2.6295 44.428 0.918701 42.3138 0.918701H21.9055C19.7912 0.918701 18.0782 2.6295 18.0782 4.74154V8.77602C18.0782 10.6213 19.39 12.1623 21.1316 12.5195V24.5546C9.01497 29.0168 0.372803 40.6506 0.372803 54.3039C0.372803 71.8087 14.5817 86 32.1085 86C49.6376 86 63.8465 71.8087 63.8465 54.3039C63.8465 40.6506 55.2043 29.0168 43.0854 24.5546Z" fill="#EDEDED"/>
</g>
<mask id="mask1_126_45" style="mask-type:luminance" maskUnits="userSpaceOnUse" x="0" y="26" width="35" height="60">
<path d="M0.361816 26.3162H34.893V86.0001H0.361816V26.3162Z" fill="white"/>
</mask>
<g mask="url(#mask1_126_45)">
<path d="M5.14584 52.4367C5.14584 42.0947 9.57054 32.8463 16.5284 26.6887C6.8853 32.1276 0.372803 42.4541 0.372803 54.304C0.372803 71.8088 14.5817 86 32.1085 86C32.9198 86 33.7201 85.9581 34.5138 85.8964C18.0937 84.6155 5.14584 70.1311 5.14584 52.4367Z" fill="#D5D5D5"/>
</g>
<path d="M56.6639 53.8696C56.6639 67.3929 45.6496 78.394 32.1087 78.394C18.57 78.394 7.55566 67.3929 7.55566 53.8696H56.6639Z" fill="#E04242"/>
<path d="M56.6639 54.0879C56.6639 50.4789 45.6716 47.5511 32.1087 47.5511C18.548 47.5511 7.55566 50.4789 7.55566 54.0879C7.55566 57.6991 18.548 60.6268 32.1087 60.6268C45.6716 60.6268 56.6639 57.6991 56.6639 54.0879Z" fill="#E5837C"/>
<path d="M22.5648 42.2072C22.5648 43.7879 21.2817 45.0688 19.701 45.0688C18.1203 45.0688 16.8372 43.7879 16.8372 42.2072C16.8372 40.6287 18.1203 39.3478 19.701 39.3478C21.2817 39.3478 22.5648 40.6287 22.5648 42.2072Z" fill="#E5837C"/>
<path d="M32.318 50.0137C32.318 52.3815 30.3956 54.304 28.0234 54.304C25.6512 54.304 23.7266 52.3815 23.7266 50.0137C23.7266 47.6437 25.6512 45.7235 28.0234 45.7235C30.3956 45.7235 32.318 47.6437 32.318 50.0137Z" fill="#E5837C"/>
<path d="M36.2664 23.977C36.2664 24.7662 35.6249 25.4056 34.8356 25.4056C34.0441 25.4056 33.4026 24.7662 33.4026 23.977C33.4026 23.1877 34.0441 22.5461 34.8356 22.5461C35.6249 22.5461 36.2664 23.1877 36.2664 23.977Z" fill="#E5837C"/>
<path d="M29.6593 32.1099C29.6593 33.1461 28.8193 33.9861 27.7809 33.9861C26.7426 33.9861 25.9026 33.1461 25.9026 32.1099C25.9026 31.0737 26.7426 30.2316 27.7809 30.2316C28.8193 30.2316 29.6593 31.0737 29.6593 32.1099Z" fill="#E5837C"/>
<path d="M45.4467 37.3569C45.4467 38.0999 44.8449 38.7017 44.1019 38.7017C43.3567 38.7017 42.7549 38.0999 42.7549 37.3569C42.7549 36.6161 43.3567 36.0143 44.1019 36.0143C44.8449 36.0143 45.4467 36.6161 45.4467 37.3569Z" fill="#E5837C"/>
<path d="M37.662 39.0214C37.662 40.7829 36.2333 42.2071 34.4718 42.2071C32.7103 42.2071 31.2817 40.7829 31.2817 39.0214C31.2817 37.2621 32.7103 35.8379 34.4718 35.8379C36.2333 35.8379 37.662 37.2621 37.662 39.0214Z" fill="#E5837C"/>
<path d="M50.4291 49.3127C50.4291 51.6386 48.5397 53.5235 46.2116 53.5235C43.8813 53.5235 41.9941 51.6386 41.9941 49.3127C41.9941 46.9846 43.8813 45.0996 46.2116 45.0996C48.5397 45.0996 50.4291 46.9846 50.4291 49.3127Z" fill="#E5837C"/>
</svg>
