<svg width="83" height="84" viewBox="0 0 83 84" fill="none" xmlns="http://www.w3.org/2000/svg">
<mask id="mask0_126_46" style="mask-type:luminance" maskUnits="userSpaceOnUse" x="21" y="0" width="62" height="59">
<path d="M21.1006 0.918701H82.4962V58.8862H21.1006V0.918701Z" fill="white"/>
</mask>
<g mask="url(#mask0_126_46)">
<path d="M82.5058 1.0697L25.2492 58.3311L21.2854 54.3672L57.5199 9.2092L82.5058 1.0697Z" fill="#231F20"/>
</g>
<mask id="mask1_126_46" style="mask-type:luminance" maskUnits="userSpaceOnUse" x="24" y="0" width="59" height="63">
<path d="M24.8403 0.918701H82.4962V62.626H24.8403V0.918701Z" fill="white"/>
</mask>
<g mask="url(#mask1_126_46)">
<path d="M82.3598 0.923577L25.1008 58.185L29.0647 62.1439L74.2203 25.9094L82.3598 0.921143" fill="#2C2C3F"/>
</g>
<path d="M39.0302 72.1119L27.9202 55.5091L11.3198 44.4016C11.3198 44.4016 3.56016 46.9606 3.67459 54.5279C3.78659 62.0977 10.9035 60.8535 13.275 58.482C15.6465 56.1081 11.4684 53.7366 11.4684 53.7366C16.6642 52.6093 22.7244 60.705 22.7244 60.705C22.7244 60.705 30.8225 66.7676 29.6928 71.9634C29.6928 71.9634 27.3237 67.7853 24.9522 70.1568C22.5807 72.5283 21.3341 79.6452 28.9014 79.7572C36.4712 79.8716 39.0302 72.1119 39.0302 72.1119Z" fill="black"/>
<path d="M25.9335 63.6096L24.7575 58.6719L19.8222 57.4983C19.8222 57.4983 15.4883 66.3414 7.58496 69.7331L13.6963 75.8444C17.0904 67.946 25.9335 63.6096 25.9335 63.6096Z" fill="black"/>
<path d="M11.9968 81.3715C9.25037 84.1179 4.80201 84.1179 2.05801 81.3715C-0.686002 78.6299 -0.686002 74.1815 2.05801 71.4351C4.80201 68.6911 9.25037 68.6911 11.9968 71.4351C14.7408 74.1815 14.7408 78.6299 11.9968 81.3715Z" fill="#231F20"/>
</svg>
