<svg width="88" height="83" viewBox="0 0 88 83" fill="none" xmlns="http://www.w3.org/2000/svg">
<mask id="mask0_129_113" style="mask-type:luminance" maskUnits="userSpaceOnUse" x="21" y="0" width="62" height="58">
<path d="M21.1006 0H82.4962V57.9675H21.1006V0Z" fill="white"/>
</mask>
<g mask="url(#mask0_129_113)">
<path d="M82.506 0.150978L25.2495 57.4124L21.2856 53.4485L57.5202 8.29048L82.506 0.150978Z" fill="#231F20"/>
</g>
<mask id="mask1_129_113" style="mask-type:luminance" maskUnits="userSpaceOnUse" x="24" y="0" width="59" height="62">
<path d="M24.8403 0H82.4962V61.7073H24.8403V0Z" fill="white"/>
</mask>
<g mask="url(#mask1_129_113)">
<path d="M82.36 0.0048762L25.1011 57.2663L29.0649 61.2252L74.2205 24.9907L82.36 0.00244141" fill="#2C2C3F"/>
</g>
<path d="M39.0302 71.1932L27.9202 54.5904L11.3198 43.4829C11.3198 43.4829 3.56016 46.0419 3.67459 53.6092C3.78659 61.179 10.9035 59.9348 13.275 57.5633C15.6465 55.1894 11.4684 52.8179 11.4684 52.8179C16.6642 51.6906 22.7244 59.7863 22.7244 59.7863C22.7244 59.7863 30.8225 65.8489 29.6928 71.0447C29.6928 71.0447 27.3237 66.8666 24.9522 69.2381C22.5807 71.6096 21.3341 78.7265 28.9014 78.8385C36.4712 78.9529 39.0302 71.1932 39.0302 71.1932Z" fill="black"/>
<path d="M25.9335 62.691L24.7575 57.7532L19.8222 56.5796C19.8222 56.5796 15.4883 65.4228 7.58496 68.8145L13.6963 74.9258C17.0904 67.0273 25.9335 62.691 25.9335 62.691Z" fill="black"/>
<path d="M11.9968 80.4528C9.25037 83.1992 4.80201 83.1992 2.05801 80.4528C-0.686002 77.7112 -0.686002 73.2628 2.05801 70.5164C4.80201 67.7724 9.25037 67.7724 11.9968 70.5164C14.7408 73.2628 14.7408 77.7112 11.9968 80.4528Z" fill="#231F20"/>
<mask id="mask2_129_113" style="mask-type:luminance" maskUnits="userSpaceOnUse" x="6" y="0" width="61" height="58">
<path d="M66.6587 0H6.00005V57.2716H66.6587V0Z" fill="white"/>
</mask>
<g mask="url(#mask2_129_113)">
<path d="M5.99064 0.149155L62.5598 56.7232L66.4761 52.8069L30.6765 8.19095L5.99064 0.149155Z" fill="#231F20"/>
</g>
<mask id="mask3_129_113" style="mask-type:luminance" maskUnits="userSpaceOnUse" x="6" y="0" width="57" height="61">
<path d="M62.9644 0H6.00066V60.9665H62.9644V0Z" fill="white"/>
</mask>
<g mask="url(#mask3_129_113)">
<path d="M6.13496 0.00480882L62.7065 56.5788L58.7903 60.4902L14.1767 24.6907L6.13496 0.00240326" fill="#2C2C3F"/>
</g>
<path d="M48.945 70.3386L59.9216 53.9351L76.3227 42.9609C76.3227 42.9609 83.9893 45.4892 83.8762 52.9657C83.7655 60.4445 76.7341 59.2153 74.3911 56.8723C72.0481 54.5269 76.176 52.1838 76.176 52.1838C71.0425 51.0701 65.0551 59.0686 65.0551 59.0686C65.0551 59.0686 57.0542 65.0584 58.1704 70.1919C58.1704 70.1919 60.511 66.0639 62.854 68.4069C65.197 70.75 66.4287 77.7814 58.9522 77.8921C51.4733 78.0051 48.945 70.3386 48.945 70.3386Z" fill="black"/>
<path d="M61.8844 61.9384L63.0463 57.0599L67.9223 55.9004C67.9223 55.9004 72.2042 64.6374 80.0127 67.9884L73.9747 74.0263C70.6214 66.2227 61.8844 61.9384 61.8844 61.9384Z" fill="black"/>
<path d="M75.6535 79.487C78.367 82.2004 82.762 82.2004 85.473 79.487C88.1841 76.7783 88.1841 72.3833 85.473 69.6699C82.762 66.9588 78.367 66.9588 75.6535 69.6699C72.9425 72.3833 72.9425 76.7783 75.6535 79.487Z" fill="#231F20"/>
</svg>
