<svg width="353" height="432" viewBox="0 0 353 432" fill="none" xmlns="http://www.w3.org/2000/svg">
<path d="M169.907 368.084L167.454 431.959H302.584L303.537 360.188L169.907 368.084Z" fill="#8B8BAF"/>
<path d="M169.907 368.084L169.157 387.642L169.017 391.36C177.256 395.881 193.673 402.694 217.907 402.902C223.871 402.954 229.782 404.246 235.157 406.819C248.553 413.251 260.199 421.506 265.954 431.959H302.584L303.537 360.188L169.907 368.084Z" fill="#405D7F"/>
<path d="M189.271 185.292H276.136L302.787 334.641L276.136 371.98H200.803C200.803 371.98 190.933 262.782 189.271 185.292Z" fill="#F2F2F2"/>
<path d="M286.569 296.897L201.642 230.72V250.048C201.642 250.048 244.543 295.267 286.569 301.048V296.897Z" fill="#BFBFBF"/>
<path d="M200.803 371.98H230.584C224.688 316.824 218.975 201.532 218.975 201.532C219.074 193.584 217.428 189.98 217.428 189.98C216.626 188.365 215.949 186.819 215.313 185.292H189.271C190.933 262.782 200.803 371.98 200.803 371.98Z" fill="#BFBFBF"/>
<path d="M265.521 288.876C264.542 288.876 263.542 288.605 262.646 288.043C226.198 265.079 199.219 233.709 198.094 232.381C196.157 230.115 196.428 226.714 198.693 224.782C200.959 222.85 204.37 223.115 206.308 225.381C206.568 225.694 233.391 256.855 268.402 278.918C270.928 280.506 271.683 283.839 270.089 286.355C269.068 287.985 267.313 288.876 265.521 288.876Z" fill="#373D4C"/>
<path d="M174.532 356.803C174.532 356.803 240.423 370.037 295.095 356.803L293.694 378.589C293.694 378.589 213.438 394.35 174.532 372.985V356.803Z" fill="#373D4C"/>
<path d="M298.298 352.871C298.298 352.871 306.272 366.985 318.985 379.115C324.923 384.782 334.605 383.761 339.043 376.86C345.543 366.751 350.225 348.47 335.402 318.839L298.298 352.871Z" fill="#935B55"/>
<path d="M80.3291 214.512L42.3343 207.329C39.1468 206.725 35.8447 206.788 32.7354 207.704C31.751 207.996 30.7458 208.381 29.7718 208.881C26.1104 210.788 23.9072 214.668 23.9072 218.793V245.074C23.9072 252.642 30.0479 258.777 37.626 258.777H83.7874L80.3291 214.512Z" fill="#D67974"/>
<path d="M273.366 332.24C273.366 332.24 256.793 346.485 254.517 362.324L260.334 362.657C262.251 362.761 263.944 364.173 264.147 366.074C264.152 366.089 264.152 366.105 264.152 366.115L265.626 381.402C266.074 386.074 270.006 389.646 274.704 389.646H293.829C298.704 389.646 303.397 385.719 304.126 380.896C305.079 374.521 305.142 365.589 304.756 356.803L308.506 348.146L279.704 329.334L273.366 332.24Z" fill="#FFD0B0"/>
<path d="M303.965 381.86C305.069 375.438 305.157 366.042 304.756 356.803L308.506 348.146L284.918 332.74L284.407 332.959C284.407 332.959 291.767 341.365 290.449 363.683L289.136 382.782C289.136 382.782 288.886 386.594 284.751 389.646H293.829C298.261 389.646 303.22 386.23 303.965 381.86Z" fill="#D67974"/>
<path d="M214.991 138.886L194.704 155.397L199.819 193.714C199.819 193.714 202.756 200.381 210.069 206.667C219.668 214.923 233.392 216.339 244.616 210.464C252.11 206.542 261.209 200.089 269.36 189.626L265.777 148.246L214.991 138.886Z" fill="#FFD0B0"/>
<path d="M267.522 191.891C268.142 191.152 268.751 190.407 269.36 189.626L265.777 148.246L214.991 138.886L194.704 155.397L199.819 193.714C199.819 193.714 202.756 200.381 210.069 206.667C212.912 209.11 216.126 210.938 219.522 212.173C219.168 205.454 218.975 201.532 218.975 201.532C219.074 193.584 217.428 189.98 217.428 189.98C213.558 179.334 213.308 170.694 214.85 163.766C226.006 173.803 243.584 186.001 267.522 191.891Z" fill="#D67974"/>
<mask id="mask0_40_6047" style="mask-type:luminance" maskUnits="userSpaceOnUse" x="246" y="142" width="107" height="216">
<path d="M246.23 142.646H352.715V357.313H246.23V142.646Z" fill="white"/>
</mask>
<g mask="url(#mask0_40_6047)">
<path d="M254.08 151.23C254.08 151.23 264.653 166.089 250.58 188.095C248.325 191.621 247.189 195.751 247.215 199.938C247.361 222.631 244.861 271.542 279.523 325.782L273.366 332.24C273.366 332.24 292.653 341.308 304.757 356.803C304.757 356.803 323.34 343.11 345.189 324.459C350.038 320.329 352.481 314.022 351.684 307.704C349.069 286.923 341.049 236.97 319.736 182.256C319.34 181.24 318.877 180.256 318.345 179.308C318.345 179.308 314.96 174.975 312.877 173.11C304.101 165.256 284.403 148.157 269.205 143.292L254.08 151.23Z" fill="#DB9686"/>
</g>
<path d="M211.47 144.173C211.47 144.173 193.95 162.225 207.929 188.079C209.97 191.855 211.163 196.032 211.184 200.329C211.309 228.188 210.741 331.73 217.444 389.647C217.444 389.647 190.59 395.261 164.559 372.777C160.934 369.652 158.825 365.121 158.825 360.345V306.016L153.569 313.537C150.08 318.532 143.205 319.751 138.22 316.256C124.892 306.923 99.5849 288.574 80.6318 271.126C78.2672 268.938 77.0172 265.808 77.2256 262.6L80.3297 214.511L131.106 255.6C131.106 255.6 144.684 219.147 157.319 190.766C159.465 185.959 162.262 181.48 165.668 177.464C173.325 168.433 188.752 151.792 208.356 138.886L211.47 144.173Z" fill="#DB9686"/>
<path d="M50.762 141.897L52.0641 141.746C58.762 140.954 64.6109 146.277 64.4338 153.017L61.3661 289.996C61.2724 293.725 58.2984 296.74 54.5641 296.892C50.6838 297.048 47.3974 294.053 47.1943 290.173L40.9911 153.459C40.6943 147.631 44.9651 142.574 50.762 141.897Z" fill="#D8826A"/>
<path d="M193.532 382.886C189.928 383.767 185.553 384.116 180.376 383.34C200.897 393.574 218.949 390.673 218.949 390.673C212.235 332.756 211.308 228.188 211.183 200.329C211.162 196.032 209.97 191.855 207.928 188.079C203.626 180.131 202.313 172.923 202.548 166.746L198.308 157.517C198.308 157.517 184.902 178.6 183.537 204.209C183.402 206.803 185.188 209.1 187.725 209.688C191.949 210.662 198.121 213.34 200.746 220.704C201.402 222.553 201.631 224.527 201.59 226.491C201.287 240.381 199.991 314.423 205.334 365.866C206.147 373.678 201.173 381.022 193.532 382.886Z" fill="#935B55"/>
<path d="M53.8498 160.214C53.8498 160.214 6.19358 167.605 0.188377 111.006C0.188377 111.006 -1.00954 100.397 2.63629 88.9279C4.204 84.0113 10.1207 82.0425 14.3707 84.9852C17.0842 86.8602 20.6363 88.4227 25.0061 88.5582C34.0269 88.8446 42.1207 82.9227 45.1936 74.4488C47.7092 67.5009 49.9384 56.7873 47.6936 43.0998C45.9644 32.5373 59.2873 26.3082 66.2925 34.4071C73.178 42.3602 79.3446 53.0061 82.1884 67.0009C83.4123 73.0217 83.5894 79.1988 83.1259 85.3238C82.7769 89.8811 82.9644 96.8811 86.1623 102.865C88.2925 106.855 92.7717 109.053 97.2405 108.303C97.3082 108.287 97.3811 108.277 97.4488 108.266C102.496 107.376 106.865 111.766 105.886 116.787C102.918 132.074 92.1571 156.6 53.8498 160.214Z" fill="#F46B5D"/>
<path d="M318.339 179.313C316.99 176.886 315.24 174.688 313.152 172.824C304.376 164.975 284.402 148.157 269.204 143.292L254.079 151.23C254.079 151.23 264.631 166.058 250.626 188.022C248.36 191.574 247.188 195.709 247.214 199.923C247.235 202.917 247.209 206.391 247.225 210.261L250.376 210.011C250.376 210.011 269.214 199.235 283.178 212.829C285.298 214.897 288.772 214.48 290.272 211.928C293.016 207.266 296.496 198.777 297.798 184.542C298.251 179.589 302.584 175.829 307.548 176.282C311.011 176.6 314.933 177.428 318.339 179.313Z" fill="#935B55"/>
<path d="M32.9756 138.652C30.8662 135.741 28.8818 131.928 27.5902 126.991C24.512 115.235 33.4235 103.782 42.1266 108.48C45.6787 110.397 49.861 111.662 54.5745 111.412C56.9652 111.293 59.0381 110.944 60.8297 110.444C69.7568 107.965 77.8245 118.85 74.9704 130.324C74.0068 134.204 72.3141 137.881 69.5693 140.965C65.8454 145.147 60.9912 147.116 56.111 147.116H48.4131C42.6266 147.116 36.9912 144.183 32.9756 138.652Z" fill="#FFE2CC"/>
<path d="M21.1784 45.7458C18.1992 45.7458 15.7773 43.3343 15.7773 40.3499V38.6781C15.7773 35.6937 18.1992 33.2822 21.1784 33.2822C24.1576 33.2822 26.5742 35.6937 26.5742 38.6781V40.3499C26.5742 43.3343 24.1576 45.7458 21.1784 45.7458Z" fill="#F46B5D"/>
<path d="M106.027 88.0531C103.043 88.0531 100.626 85.6364 100.626 82.6624V80.9854C100.626 78.0062 103.043 75.5947 106.027 75.5947C109.006 75.5947 111.423 78.0062 111.423 80.9854V82.6624C111.423 85.6364 109.006 88.0531 106.027 88.0531Z" fill="#F46B5D"/>
<path d="M305.053 226.366C304.491 223.944 301.241 223.397 299.954 225.522C297.928 228.871 297.079 232.782 297.538 236.657C298.684 246.485 300.928 266.845 302.105 284.767C302.496 290.751 299.329 296.397 294.048 299.256C284.658 304.355 276.97 310.074 272.309 313.595C274.522 317.626 276.902 321.689 279.522 325.782C279.522 325.782 292.486 311.621 309.814 301.319C311.647 300.225 312.777 298.256 312.793 296.116C312.861 286.381 312.35 257.793 305.053 226.366Z" fill="#935B55"/>
<path d="M124.959 267.542C125.074 268.824 126.866 269.022 127.251 267.798L131.105 255.6L123.376 249.339L124.959 267.542Z" fill="#935B55"/>
<path d="M153.976 276.839L147.293 293.194C145.054 298.673 138.153 300.438 133.548 296.704L77.9339 251.542L77.2256 262.6C77.0172 265.808 78.2672 268.938 80.6318 271.126C99.5849 288.574 124.892 306.923 138.22 316.256C143.205 319.751 150.08 318.532 153.569 313.537L158.825 306.016V277.787C158.825 275.027 155.022 274.282 153.976 276.839Z" fill="#935B55"/>
<path d="M289.287 173.365C289.266 173.194 289.256 173.016 289.24 172.845C289.204 172.319 289.162 171.787 289.115 171.261C289.089 171.011 289.063 170.772 289.037 170.522C288.985 170.048 288.928 169.579 288.865 169.105C288.824 168.834 288.787 168.574 288.751 168.308C288.673 167.808 288.589 167.303 288.501 166.803C288.459 166.579 288.423 166.355 288.376 166.131C288.246 165.449 288.1 164.772 287.938 164.095C287.86 163.772 287.772 163.449 287.688 163.121C287.595 162.735 287.49 162.355 287.381 161.97C287.277 161.605 287.167 161.235 287.053 160.876C286.949 160.532 286.839 160.188 286.725 159.845C286.595 159.459 286.47 159.084 286.329 158.699C286.209 158.376 286.089 158.053 285.964 157.74C285.813 157.339 285.662 156.944 285.501 156.548C285.423 156.36 285.329 156.173 285.251 155.99C284.876 155.126 284.47 154.266 284.037 153.412C283.897 153.131 283.761 152.85 283.61 152.574C283.391 152.162 283.157 151.751 282.928 151.345C282.766 151.069 282.6 150.782 282.433 150.501C282.183 150.1 281.938 149.688 281.673 149.282C281.615 149.194 281.563 149.1 281.506 149.011C281.501 149.006 281.496 149.001 281.49 149.001C279.183 145.485 276.308 142.074 272.678 138.886H255.897C256.006 142.574 256.813 145.98 258.105 149.11L254.079 151.23C254.079 151.23 264.652 166.089 250.579 188.095C248.324 191.621 247.188 195.751 247.214 199.938C247.246 205.053 247.152 211.516 247.365 219.063C247.386 218.938 248.678 210.308 253.912 205.042C262.516 196.376 275.272 197.485 280.095 201.917C280.329 202.136 280.553 202.36 280.772 202.61C282.027 204.006 284.318 203.595 284.949 201.824C287.032 195.949 289.996 185.235 289.287 173.365Z" fill="#DB9686"/>
<path d="M207.928 188.079C195.767 166.308 206.23 150.845 210.079 145.834C211.058 144.871 212.022 143.923 212.959 142.996L212.392 138.886L209.933 133.199C195.876 139.605 189.272 148.522 189.272 148.522C186.506 152.131 184.319 155.871 182.584 159.579C182.579 159.584 182.579 159.584 182.574 159.589C182.527 159.683 182.491 159.777 182.444 159.876C182.282 160.225 182.126 160.569 181.975 160.917C181.871 161.147 181.772 161.381 181.678 161.61C181.527 161.964 181.371 162.324 181.23 162.673C181.199 162.74 181.173 162.819 181.147 162.886C180.829 163.678 180.527 164.47 180.251 165.251C180.173 165.464 180.095 165.688 180.017 165.902C179.902 166.246 179.787 166.584 179.673 166.923C179.6 167.157 179.527 167.381 179.454 167.615C179.355 167.949 179.246 168.277 179.147 168.605C179.079 168.845 179.011 169.079 178.944 169.319C178.787 169.855 178.642 170.386 178.501 170.917C178.428 171.188 178.355 171.459 178.293 171.73C178.22 172.011 178.152 172.292 178.09 172.569C178.027 172.845 177.959 173.11 177.897 173.376C177.84 173.641 177.782 173.902 177.73 174.162C177.668 174.454 177.61 174.74 177.548 175.032C177.501 175.261 177.454 175.49 177.412 175.714C177.319 176.204 177.235 176.683 177.157 177.152C177.126 177.303 177.105 177.444 177.079 177.589C177.022 177.954 176.965 178.319 176.912 178.667C176.902 178.74 176.892 178.803 176.881 178.871L176.886 178.865C176.293 182.944 176.136 186.365 176.126 188.699C176.121 190.511 177.47 192.048 179.272 192.256C186.845 193.141 206.261 197.303 211.303 216.777C211.235 209.949 211.199 204.339 211.183 200.329C211.168 196.834 210.376 193.423 208.985 190.24C208.662 189.506 208.319 188.777 207.928 188.079Z" fill="#DB9686"/>
<path d="M212.959 142.996L212.391 138.886L209.933 133.199C203.787 136.001 199.063 139.282 195.693 142.089C193.188 150.475 188.772 173.553 208.975 190.246C208.652 189.511 208.313 188.782 207.928 188.079C196.433 166.819 206.23 150.845 210.079 145.834C211.058 144.871 212.022 143.923 212.959 142.996Z" fill="#935B55"/>
<path d="M182.522 57.5635H160.496C156.465 57.5635 152.512 58.7874 149.246 61.1624C148.282 61.8604 147.251 62.6833 146.189 63.6416C139.527 69.6572 143.267 80.751 152.194 81.6624C166.918 83.1676 188.954 84.5583 208.975 82.3968C208.975 82.3968 215.923 67.5426 216.116 66.7718C216.314 66.001 202.022 57.5635 202.022 57.5635H182.522Z" fill="#935B55"/>
<path d="M285.235 155.954C284.866 155.105 284.465 154.251 284.037 153.412C283.897 153.131 283.761 152.85 283.61 152.574C283.392 152.162 283.157 151.751 282.928 151.345C282.767 151.069 282.6 150.782 282.433 150.501C282.183 150.1 281.938 149.688 281.673 149.282C281.616 149.194 281.563 149.1 281.506 149.011C281.501 149.006 281.496 149.001 281.491 149.001C279.183 145.485 276.308 142.074 272.678 138.886H255.897C256.006 142.574 256.813 145.98 258.105 149.11L254.079 151.23C254.079 151.23 259.35 158.657 257.48 170.782C263.709 170.11 277.261 167.324 285.235 155.954Z" fill="#935B55"/>
<path d="M187.849 57.5635C187.849 57.5635 179.901 83.5114 189.855 110.168L210.329 123.959L243.714 70.5374L187.849 57.5635Z" fill="#373D4C"/>
<path d="M229.757 75.5947C229.757 75.5947 214.392 85.8864 207.783 108.616C207.783 108.616 205.918 107.022 202.924 105.715C190.241 100.188 177.491 113.537 183.226 126.11C183.283 126.235 183.34 126.355 183.397 126.48C185.976 131.918 191.392 135.636 197.408 135.392C199.767 135.293 202.47 134.704 205.486 133.287C205.486 133.287 204.283 149.215 226.252 155.824C226.252 155.824 236.382 159.746 251.455 160.204C263.34 160.563 272.871 151.918 274.142 140.11C275.627 126.293 277.189 106.256 274.09 86.0791L229.757 75.5947Z" fill="#FFD0B0"/>
<path d="M179.902 56.756L293.355 57.5633C293.355 57.5633 290.408 56.6362 286.777 54.3341C278.678 49.2039 273.934 40.1466 273.934 30.5685V4.72992C273.934 2.0893 271.767 -0.0461174 269.121 0.000757226C259.043 0.183049 234.611 1.13097 210.074 5.88097C205.855 6.69867 202.189 9.28201 199.975 12.9643C194.835 21.5112 185.621 37.8289 179.902 56.756Z" fill="#DB9686"/>
<path d="M276.042 120.84C276.079 119.543 276.1 118.235 276.115 116.907C276.115 116.84 276.12 116.767 276.12 116.694C276.157 112.668 276.094 108.48 275.881 104.188C275.87 103.944 275.855 103.704 275.844 103.459C275.777 102.355 275.709 101.241 275.631 100.121C275.605 99.6989 275.568 99.277 275.537 98.8551C275.464 97.8916 275.381 96.9281 275.287 95.9593C275.245 95.4854 275.199 95.0114 275.152 94.5322C275.053 93.5583 274.943 92.5843 274.824 91.6051C274.771 91.1676 274.725 90.7301 274.673 90.2926C274.49 88.8916 274.303 87.4854 274.089 86.0791L229.756 75.5947C229.756 75.5947 222.725 80.3135 216.131 90.3916C225.256 97.251 240.204 107.293 257.896 114.662C261.136 116.011 263.542 118.86 264.162 122.313C264.646 124.996 264.954 127.918 264.954 131.027C264.954 131.027 265.839 154.944 252.761 160.178C264.074 159.881 273.516 151.334 274.745 139.959C275.334 134.438 275.844 127.933 276.042 120.84Z" fill="#D67974"/>
<path d="M243.96 113.485C243.767 113.485 243.564 113.47 243.366 113.439L240.413 112.991C238.272 112.668 236.804 110.662 237.132 108.527C237.455 106.386 239.455 104.923 241.601 105.246L244.554 105.699C246.694 106.022 248.163 108.022 247.835 110.157C247.533 112.095 245.871 113.485 243.96 113.485Z" fill="#373D4C"/>
<path d="M179.652 57.5635H293.355C293.355 57.5635 290.408 56.6364 286.777 54.3343C283.428 52.2145 280.663 49.4124 278.564 46.1885H183.59C182.168 49.8708 180.829 53.6729 179.652 57.5635Z" fill="#935B55"/>
<path d="M186.454 57.5635C186.454 57.5635 195.735 61.4697 206.241 67.5843C209.027 69.2093 211.756 70.9437 214.412 72.7666C221.501 77.6312 250.496 96.0062 287.834 98.4749C293.902 98.876 300.001 98.1051 305.777 96.2093C312.438 94.027 321.407 90.2354 328.923 84.0531C339.735 75.1572 333.246 57.5635 319.235 57.5635H186.454Z" fill="#DB9686"/>
<path d="M266.397 113.834C264.511 113.834 262.86 112.459 262.564 110.537C262.235 108.423 263.699 106.438 265.819 106.121L268.209 105.751C270.329 105.428 272.308 106.881 272.631 109.001C272.959 111.121 271.501 113.1 269.381 113.423L266.991 113.793C266.793 113.819 266.59 113.834 266.397 113.834Z" fill="#373D4C"/>
<path d="M61.3659 289.996L63.4492 196.975C54.293 198.673 47.6576 197.73 42.918 195.777L47.194 290.173C47.3971 294.053 50.6836 297.048 54.5638 296.891C58.2982 296.74 61.2721 293.725 61.3659 289.996Z" fill="#B26554"/>
<path d="M42.9072 258.98H34.4854C27.1833 258.98 21.2666 253.063 21.2666 245.772V220.147C21.2666 212.845 27.1833 206.933 34.4854 206.933H45.001C49.8864 206.933 53.8499 210.891 53.8499 215.777V248.048C53.8499 254.084 48.9489 258.98 42.9072 258.98Z" fill="#FFD0B0"/>
<path d="M45.0012 206.933H39.8762C35.5065 212.355 35.9544 219.282 35.9544 219.282V235.162C35.9544 239.183 39.2981 242.496 43.319 242.256C48.095 241.98 51.5221 240.584 53.8502 239.157V215.777C53.8502 210.891 49.8867 206.933 45.0012 206.933Z" fill="#D67974"/>
<path d="M80.3294 214.511C80.3294 214.511 76.5117 205.746 63.4492 204.319C63.4492 204.319 42.8763 199.324 40.7305 214.511V231.053C40.7305 232.97 42.2826 234.532 44.2044 234.532H45.3346C51.2148 234.532 56.1992 230.214 57.043 224.402L57.3659 222.194C57.3659 222.194 61.2148 238.282 78.793 238.282L80.3294 214.511Z" fill="#FFD0B0"/>
<path d="M78.7923 238.282L79.8288 222.246L70.5684 238.282C72.7402 238.99 75.5527 239.194 78.7923 238.282Z" fill="#D67974"/>
</svg>
