<svg width="212" height="205" viewBox="0 0 212 205" fill="none" xmlns="http://www.w3.org/2000/svg">
<path d="M42.6896 84.3818C42.6896 84.3818 1.53058 107.698 8.36336 153.442L32.6289 169.08C32.6289 169.08 31.4237 153.428 40.0148 147.366C51.9715 138.926 54.1317 131.309 58.1962 122.825C62.2606 114.341 61.5149 85.9669 42.6896 84.3818Z" fill="#36922E"/>
<path d="M42.6894 84.3818C36.817 87.9977 31.5308 92.3264 26.8307 97.3704C28.9991 100.111 31.2006 105.12 30.6915 114.011C30.6915 114.011 30.0228 118.945 32.4196 125.445C32.6095 125.937 32.7251 126.446 32.7746 126.969C32.8214 127.495 32.7966 128.015 32.7003 128.532C32.604 129.049 32.4416 129.545 32.2077 130.018C31.9766 130.489 31.6821 130.921 31.3326 131.314C29.5357 133.32 27.9259 135.467 26.5032 137.753C25.0777 140.04 23.8614 142.429 22.8515 144.927C21.8388 147.423 21.0518 149.988 20.485 152.619C19.9181 155.252 19.5824 157.913 19.4778 160.605L32.626 169.077C32.626 169.077 31.4207 153.425 40.0119 147.363C51.9713 138.926 54.1315 131.309 58.196 122.825C62.2604 114.341 61.5147 85.9669 42.6894 84.3818Z" fill="#125220"/>
<path d="M192.554 11.1118C191.406 12.3281 190.138 13.4013 188.748 14.3287C187.358 15.2588 185.881 16.0183 184.32 16.6127C182.757 17.2071 181.147 17.6199 179.491 17.851C177.834 18.0794 176.175 18.1235 174.507 17.9776V30.7131H180.402C180.837 30.7131 181.271 30.7543 181.701 30.8396C182.13 30.925 182.545 31.0515 182.95 31.2194C183.354 31.3873 183.737 31.5909 184.1 31.8358C184.463 32.078 184.802 32.3532 185.11 32.6614C185.418 32.9723 185.696 33.308 185.938 33.6713C186.181 34.0345 186.387 34.417 186.555 34.8215C186.723 35.2261 186.847 35.6416 186.932 36.0709C187.017 36.5002 187.061 36.9322 187.061 37.3697V63.9936C187.061 64.4312 187.017 64.8632 186.932 65.2925C186.847 65.7218 186.723 66.1373 186.555 66.5418C186.387 66.9463 186.181 67.3288 185.938 67.6921C185.696 68.0553 185.418 68.391 185.11 68.702C184.802 69.0102 184.463 69.2854 184.1 69.5276C183.737 69.7725 183.354 69.9761 182.95 70.144C182.545 70.3118 182.13 70.4384 181.701 70.5237C181.271 70.609 180.837 70.6503 180.402 70.6503H174.507V82.6125C182.089 83.5178 187.463 86.1788 191.277 89.4865C209.26 71.8116 207.419 30.1324 192.554 11.1118Z" fill="#7784B2"/>
<path d="M145.492 81.6548C145.492 81.6548 166.901 96.2257 167.27 138.279L138.478 160.596C138.478 160.596 119.099 126.292 125.927 90.8761L145.492 81.6548Z" fill="#125220"/>
<path d="M164.725 133.579C164.725 133.579 152.262 137.06 145.038 147.316C138.095 157.173 141.026 170.429 149.95 178.538C150.971 179.469 152.094 180.399 153.329 181.321C153.83 181.695 154.367 182.014 154.936 182.281C155.503 182.545 156.092 182.751 156.703 182.897C157.314 183.043 157.933 183.126 158.558 183.148C159.185 183.167 159.81 183.123 160.426 183.016C161.045 182.911 161.648 182.743 162.231 182.515C162.815 182.284 163.371 182 163.896 181.656C164.422 181.315 164.909 180.924 165.355 180.484C165.801 180.044 166.2 179.562 166.546 179.042C168.563 175.974 170.459 171.458 171.365 164.856V133.579H164.725Z" fill="#342A35"/>
<mask id="mask0_98_9416" style="mask-type:luminance" maskUnits="userSpaceOnUse" x="40" y="175" width="103" height="30">
<path d="M40.0092 175.129H142.861V205H40.0092V175.129Z" fill="white"/>
</mask>
<g mask="url(#mask0_98_9416)">
<path d="M136.714 191.742C138.989 190.388 140.492 188.335 140.299 185.239C139.589 174.061 126.821 175.39 126.821 175.39L89.3328 175.341L51.8475 175.39C51.8475 175.39 39.2386 190.069 40.1247 204.794H140.464C140.621 204.794 140.775 204.777 140.927 204.741C141.081 204.708 141.227 204.659 141.37 204.593C141.51 204.529 141.645 204.45 141.769 204.353C141.893 204.26 142.008 204.155 142.11 204.037C142.212 203.919 142.3 203.789 142.374 203.654C142.449 203.517 142.509 203.374 142.553 203.222C142.597 203.074 142.625 202.92 142.636 202.766C142.647 202.609 142.641 202.455 142.619 202.298C142.501 201.269 142.283 200.259 141.964 199.268C141.648 198.28 141.235 197.333 140.726 196.428C140.22 195.523 139.628 194.675 138.954 193.885C138.277 193.096 137.531 192.383 136.714 191.742Z" fill="#342A35"/>
</g>
<path d="M132.082 128.813C142.399 121.898 141.552 108.967 138.756 98.8291H43.9526C41.1567 108.967 40.3064 121.898 50.6257 128.813C50.5762 129.559 50.4414 130.285 50.2185 130.995C49.9928 131.705 49.6874 132.379 49.3021 133.015C48.9141 133.651 48.4573 134.231 47.9289 134.757C47.4006 135.285 46.8172 135.739 46.1815 136.125C38.1022 151.485 27.2875 185.663 91.3527 185.236C154.251 185.652 144.975 152.718 136.972 136.983C134.727 134.628 133.098 131.903 132.082 128.813Z" fill="#36922E"/>
<path d="M133.356 112.522C133.695 105.109 136.76 100.843 138.753 98.8289C137.349 93.8123 135.44 88.9966 133.024 84.3818H49.6845C47.2656 88.9966 45.3559 93.8123 43.9552 98.8289C45.9475 100.843 49.0131 105.109 49.3488 112.522C49.357 112.709 49.3873 112.893 49.4368 113.075C49.4864 113.254 49.5552 113.427 49.6432 113.592C49.7313 113.758 49.8386 113.912 49.9597 114.052C50.0835 114.192 50.2211 114.319 50.3725 114.429C50.5238 114.539 50.6862 114.633 50.8595 114.704C51.0301 114.778 51.209 114.834 51.3934 114.867C51.5778 114.9 51.7649 114.913 51.952 114.905C52.1391 114.897 52.3235 114.867 52.5024 114.817C59.6544 112.849 77.277 110.742 89.1567 132.467C89.3768 132.869 89.6823 133.188 90.0758 133.422C90.4693 133.656 90.8958 133.772 91.3526 133.772C91.8122 133.772 92.2387 133.656 92.6322 133.422C93.0257 133.188 93.3312 132.869 93.5486 132.467C105.428 110.742 123.051 112.849 130.203 114.817C130.385 114.867 130.569 114.897 130.756 114.905C130.943 114.913 131.128 114.9 131.312 114.867C131.496 114.834 131.675 114.778 131.848 114.707C132.022 114.633 132.181 114.539 132.333 114.429C132.487 114.319 132.622 114.195 132.746 114.052C132.869 113.912 132.977 113.758 133.065 113.592C133.153 113.427 133.222 113.254 133.271 113.075C133.321 112.893 133.351 112.709 133.356 112.522Z" fill="#125220"/>
<path d="M9.86287 148.068C19.7392 150.613 34.4229 157.597 36.5996 176.681L27.5544 200.476C27.5544 200.476 -1.50216 196.42 0.0608725 155.291C0.0746314 154.999 0.102149 154.71 0.148931 154.424C0.19296 154.135 0.2535 153.852 0.330551 153.571C0.407602 153.29 0.498412 153.015 0.605734 152.746C0.715807 152.476 0.836887 152.212 0.974478 151.956C1.10932 151.697 1.26067 151.45 1.42578 151.21C1.59089 150.971 1.767 150.74 1.95688 150.519C2.14951 150.299 2.35039 150.09 2.56503 149.895C2.77692 149.697 3.00257 149.509 3.23648 149.339C3.47038 149.166 3.71254 149.006 3.96571 148.86C4.21613 148.717 4.47755 148.585 4.74173 148.469C5.00865 148.351 5.28108 148.249 5.55902 148.164C5.83695 148.079 6.12039 148.007 6.40658 147.952C6.69277 147.897 6.97896 147.858 7.27065 147.836C7.55959 147.814 7.85129 147.809 8.14023 147.817C8.43192 147.828 8.72087 147.853 9.00981 147.894C9.296 147.938 9.58219 147.996 9.86287 148.068Z" fill="#342A35"/>
<path d="M153.83 76.6245C153.83 76.6245 124.476 77.5821 111.141 51.2527H71.5671C58.2318 77.5794 28.878 76.6245 28.878 76.6245C28.7432 77.8353 28.801 79.0406 29.0514 80.2349C29.145 80.6394 29.2688 81.0302 29.4257 81.4127C29.5825 81.7952 29.7696 82.1639 29.9843 82.5162C30.1989 82.8684 30.4411 83.2041 30.7108 83.5178C30.9804 83.8315 31.2721 84.1205 31.5858 84.3902C31.9023 84.6571 32.238 84.8965 32.5903 85.1111C32.9452 85.3258 33.314 85.5102 33.6965 85.6643C34.0817 85.8184 34.4725 85.9422 34.877 86.033C35.2815 86.1266 35.6888 86.1844 36.1016 86.2119C51.1898 87.3539 53.6885 100.282 54.06 105.89C54.0682 106.044 54.0958 106.196 54.137 106.344C54.1783 106.493 54.2361 106.636 54.3104 106.774C54.382 106.911 54.4673 107.038 54.5663 107.156C54.6681 107.274 54.7782 107.382 54.8993 107.478C55.0231 107.572 55.1525 107.654 55.2928 107.72C55.4331 107.789 55.579 107.841 55.7276 107.877C55.8789 107.913 56.033 107.935 56.1871 107.938C56.3413 107.943 56.4954 107.929 56.6467 107.902C76.4708 104.115 85.8133 115.351 89.4374 121.771C89.6328 122.118 89.8998 122.393 90.2437 122.594C90.5877 122.795 90.9592 122.896 91.3555 122.896C91.7545 122.896 92.1232 122.795 92.4672 122.594C92.8112 122.393 93.0809 122.118 93.2735 121.771C96.9004 115.351 106.24 104.115 126.064 107.902C126.216 107.929 126.37 107.943 126.527 107.938C126.681 107.935 126.832 107.913 126.983 107.877C127.135 107.841 127.281 107.789 127.418 107.72C127.558 107.654 127.691 107.572 127.812 107.478C127.935 107.382 128.046 107.274 128.145 107.156C128.244 107.038 128.332 106.911 128.403 106.774C128.475 106.636 128.533 106.493 128.574 106.344C128.618 106.196 128.643 106.044 128.654 105.89C129.022 100.282 131.521 87.3539 146.612 86.2119C147.025 86.1844 147.432 86.1266 147.834 86.033C148.238 85.9422 148.629 85.8184 149.014 85.6615C149.397 85.5074 149.766 85.323 150.118 85.1111C150.473 84.8965 150.806 84.6543 151.122 84.3874C151.436 84.1205 151.728 83.8315 151.997 83.5151C152.267 83.2014 152.509 82.8684 152.724 82.5162C152.939 82.1639 153.126 81.7952 153.28 81.4127C153.437 81.0302 153.563 80.6394 153.657 80.2377C153.907 79.0406 153.965 77.8381 153.83 76.6245Z" fill="#342A35"/>
<path d="M71.5673 66.7757C71.5673 66.7757 77.2085 76.6245 91.3529 76.6245C105.5 76.6245 111.144 66.7757 111.144 66.7757C111.144 66.7757 108.577 51.2527 91.3529 51.2527C74.1292 51.2527 71.5673 66.7757 71.5673 66.7757Z" fill="#36922E"/>
<path d="M168.448 0.910889H174.285C174.584 0.910889 174.873 0.965926 175.151 1.0815C175.429 1.19708 175.674 1.36219 175.886 1.57408C176.101 1.78597 176.263 2.03088 176.379 2.30882C176.494 2.58675 176.552 2.87569 176.552 3.17564V140.717H166.18V3.17564C166.18 2.87569 166.238 2.58675 166.354 2.30882C166.469 2.03088 166.632 1.78597 166.844 1.57408C167.058 1.36219 167.303 1.19708 167.581 1.0815C167.859 0.965926 168.148 0.910889 168.448 0.910889Z" fill="#D07A76"/>
<mask id="mask1_98_9416" style="mask-type:luminance" maskUnits="userSpaceOnUse" x="190" y="0" width="22" height="110">
<path d="M190.765 0H211.899V109.613H190.765V0Z" fill="white"/>
</mask>
<g mask="url(#mask1_98_9416)">
<path d="M199.222 -0.013916C197.788 4.16611 195.562 7.87281 192.546 11.1062C196.621 22.141 208.399 59.9428 191.274 89.4892C200.474 97.475 200.573 109.242 200.573 109.242C226.638 50.9691 199.222 -0.013916 199.222 -0.013916Z" fill="#DCE2F9"/>
</g>
<path d="M67.3597 130.47C57.2687 132.123 50.6258 128.813 50.6258 128.813C48.9775 131.149 47.497 133.587 46.1816 136.125C56.5973 138.742 63.9749 136.204 68.4632 133.417C68.62 133.318 68.7549 133.197 68.8704 133.051C68.9833 132.905 69.0713 132.745 69.1291 132.572C69.1896 132.396 69.2172 132.217 69.2144 132.033C69.2117 131.845 69.1759 131.667 69.1126 131.496C69.0466 131.323 68.9557 131.166 68.8374 131.023C68.7163 130.882 68.5787 130.764 68.4191 130.67C68.2595 130.577 68.0889 130.514 67.9073 130.478C67.7257 130.445 67.5441 130.439 67.3597 130.47Z" fill="#125220"/>
<path d="M132.083 128.813C124.54 131.796 116.994 131.047 112.404 130.068C112.231 130.029 112.058 130.018 111.881 130.038C111.703 130.06 111.535 130.106 111.375 130.181C111.213 130.258 111.07 130.357 110.943 130.481C110.814 130.604 110.712 130.745 110.629 130.902C110.55 131.061 110.497 131.226 110.472 131.402C110.445 131.579 110.45 131.752 110.483 131.928C110.516 132.101 110.577 132.267 110.665 132.421C110.753 132.575 110.863 132.71 110.995 132.828C114.614 136.092 122.151 139.729 136.97 136.983C135.542 134.141 133.912 131.416 132.083 128.813Z" fill="#125220"/>
<path d="M93.1193 173.734H89.5887C89.2915 173.734 89.0053 173.676 88.7301 173.563C88.4549 173.447 88.2128 173.288 88.0036 173.076C87.7917 172.867 87.6294 172.625 87.5166 172.349C87.4037 172.074 87.3459 171.791 87.3459 171.494C87.3459 171.196 87.4037 170.91 87.5166 170.635C87.6294 170.36 87.7917 170.118 88.0036 169.909C88.2128 169.699 88.4549 169.537 88.7301 169.424C89.0053 169.309 89.2915 169.254 89.5887 169.254H93.1193C93.4165 169.254 93.7027 169.309 93.9778 169.424C94.2503 169.537 94.4952 169.699 94.7043 169.909C94.9135 170.118 95.0758 170.36 95.1886 170.635C95.3042 170.91 95.3593 171.196 95.3593 171.494C95.3593 171.791 95.3042 172.074 95.1886 172.349C95.0758 172.625 94.9135 172.867 94.7043 173.076C94.4952 173.288 94.2503 173.447 93.9778 173.563C93.7027 173.676 93.4165 173.734 93.1193 173.734Z" fill="#125220"/>
<path d="M61.3606 124.011H58.9995C58.7023 124.011 58.4161 123.953 58.1437 123.84C57.8685 123.728 57.6263 123.565 57.4145 123.356C57.2053 123.144 57.043 122.902 56.9301 122.63C56.8146 122.354 56.7595 122.068 56.7595 121.771C56.7595 121.474 56.8146 121.188 56.9301 120.915C57.043 120.64 57.2053 120.398 57.4145 120.186C57.6263 119.977 57.8685 119.814 58.1437 119.702C58.4161 119.589 58.7023 119.531 58.9995 119.531H61.3606C61.6578 119.531 61.944 119.589 62.2191 119.702C62.4943 119.814 62.7365 119.977 62.9456 120.186C63.1575 120.398 63.3199 120.64 63.4327 120.915C63.5455 121.188 63.6033 121.474 63.6033 121.771C63.6033 122.068 63.5455 122.354 63.4327 122.63C63.3199 122.902 63.1575 123.144 62.9456 123.356C62.7365 123.565 62.4943 123.728 62.2191 123.84C61.944 123.953 61.6578 124.011 61.3606 124.011Z" fill="#125220"/>
<path d="M123.706 124.011H121.342C121.045 124.011 120.759 123.953 120.486 123.84C120.211 123.728 119.969 123.565 119.757 123.356C119.548 123.144 119.386 122.902 119.273 122.63C119.16 122.354 119.102 122.068 119.102 121.771C119.102 121.474 119.16 121.188 119.273 120.915C119.386 120.64 119.548 120.398 119.757 120.186C119.969 119.977 120.211 119.814 120.486 119.702C120.759 119.589 121.045 119.531 121.342 119.531H123.703C124.003 119.531 124.287 119.589 124.562 119.702C124.837 119.814 125.079 119.977 125.288 120.186C125.5 120.398 125.663 120.64 125.775 120.915C125.888 121.188 125.946 121.474 125.946 121.771C125.946 122.068 125.888 122.354 125.775 122.63C125.663 122.902 125.5 123.144 125.288 123.356C125.079 123.565 124.837 123.728 124.562 123.84C124.287 123.953 124.003 124.011 123.703 124.011H123.706Z" fill="#125220"/>
<path d="M166.18 166.494V204.617H176.549V161.769C173.093 162.3 169.637 163.874 166.18 166.494Z" fill="#D07A76"/>
<path d="M43.8921 170.58L53.6721 174.201C54.0573 174.345 54.4316 174.521 54.792 174.724C55.1525 174.928 55.491 175.159 55.8157 175.418C56.1377 175.676 56.4349 175.96 56.7128 176.268C56.9908 176.576 57.2384 176.901 57.4641 177.251C57.687 177.597 57.8823 177.96 58.0475 178.34C58.2126 178.717 58.3447 179.108 58.4465 179.51C58.551 179.909 58.6198 180.316 58.6556 180.726C58.6914 181.139 58.6969 181.549 58.6666 181.962L58.2759 187.38C58.2373 187.897 58.1493 188.406 58.0089 188.904C57.8686 189.403 57.6787 189.884 57.4421 190.344C57.2054 190.806 56.9247 191.238 56.6 191.643C56.2753 192.044 55.912 192.413 55.513 192.743C55.114 193.073 54.6847 193.362 54.2279 193.607C53.7711 193.85 53.2951 194.048 52.797 194.193C52.2989 194.342 51.7926 194.438 51.278 194.485C50.7606 194.529 50.2433 194.524 49.7287 194.463L43.3252 193.731L43.8921 170.58Z" fill="#125220"/>
<mask id="mask2_98_9416" style="mask-type:luminance" maskUnits="userSpaceOnUse" x="23" y="168" width="29" height="37">
<path d="M23.8065 168.789H51.9852V205H23.8065V168.789Z" fill="white"/>
</mask>
<g mask="url(#mask2_98_9416)">
<path d="M41.1733 169.512C42.8932 169.986 44.481 170.737 45.934 171.772C47.387 172.806 48.617 174.058 49.627 175.528C50.48 176.86 51.0799 178.299 51.4294 179.84C51.7789 181.384 51.8559 182.938 51.6578 184.507C50.8102 185.624 50.7469 187.586 50.7662 189.636C50.3177 191.629 49.737 193.583 49.0271 195.495C47.8933 196.665 47.2962 198.351 46.8806 200.217C46.71 200.528 46.5367 200.836 46.355 201.145C46.0111 201.736 45.5928 202.273 45.1002 202.749C44.6076 203.225 44.0573 203.624 43.4519 203.949C42.8465 204.271 42.208 204.505 41.5366 204.648C40.8651 204.793 40.1882 204.843 39.503 204.796C36.9631 204.505 34.4699 203.99 32.0208 203.255C31.3741 203.068 30.7494 202.826 30.1468 202.526C29.5469 202.226 28.9773 201.874 28.4379 201.469C27.9013 201.065 27.4032 200.616 26.9464 200.124C26.4924 199.628 26.0851 199.097 25.7246 198.528C25.3669 197.958 25.0614 197.364 24.811 196.739C24.5606 196.114 24.3707 195.473 24.2359 194.813C24.1038 194.155 24.0322 193.489 24.0185 192.818C24.0075 192.143 24.057 191.477 24.1671 190.814C25.0917 185.096 26.8611 179.653 29.4726 174.485C29.7368 173.973 30.0395 173.486 30.3862 173.024C30.7357 172.564 31.1182 172.138 31.542 171.744C31.963 171.353 32.4143 170.998 32.8986 170.685C33.3829 170.371 33.8893 170.101 34.4204 169.876C34.9515 169.65 35.4963 169.471 36.0577 169.342C36.6191 169.212 37.1887 169.133 37.7638 169.1C38.339 169.069 38.9141 169.089 39.4865 169.157C40.0589 169.226 40.6202 169.344 41.1733 169.512Z" fill="#36922E"/>
</g>
<path d="M40.6476 183.555C40.5403 183.88 40.499 184.21 40.5238 184.551C40.5458 184.892 40.6366 185.217 40.788 185.522C40.9421 185.828 41.1485 186.092 41.4071 186.318C41.6658 186.541 41.9575 186.706 42.2822 186.813L50.7606 189.634C51.1459 187.939 51.4458 186.23 51.6577 184.504L51.6522 184.496L43.9141 181.923C43.5893 181.813 43.2564 181.772 42.9151 181.796C42.5739 181.819 42.2492 181.907 41.9438 182.061C41.6355 182.215 41.3714 182.421 41.1457 182.68C40.9228 182.939 40.755 183.23 40.6476 183.555Z" fill="#125220"/>
<path d="M49.0269 195.492L39.8633 192.435C39.5386 192.325 39.2057 192.284 38.8644 192.308C38.5205 192.333 38.1985 192.421 37.8903 192.573C37.5848 192.727 37.3207 192.933 37.095 193.192C36.8721 193.45 36.7042 193.742 36.5969 194.067C36.4896 194.389 36.4456 194.722 36.4703 195.063C36.4951 195.404 36.5832 195.726 36.7373 196.032C36.8886 196.337 37.095 196.604 37.3537 196.827C37.6123 197.05 37.9013 197.218 38.226 197.325L46.8777 200.214C47.706 198.69 48.4215 197.119 49.0269 195.492Z" fill="#125220"/>
<path d="M91.3529 51.2527C74.1347 51.2527 71.5673 66.7757 71.5673 66.7757C71.5673 66.7757 76.9361 61.1675 91.3529 61.1675C105.77 61.1675 111.144 66.7757 111.144 66.7757C111.144 66.7757 108.574 51.2527 91.3529 51.2527Z" fill="#125220"/>
<path d="M107.649 16.2411C108.276 13.1536 108.108 8.90198 107.8 5.51999C107.767 5.15675 107.696 4.80177 107.586 4.45503C107.476 4.10831 107.33 3.77533 107.148 3.45887C106.969 3.14517 106.755 2.85072 106.51 2.58104C106.265 2.31136 105.995 2.0692 105.698 1.85731C105.401 1.64542 105.087 1.46655 104.751 1.32346C104.416 1.18036 104.069 1.07304 103.711 1.00425C103.353 0.935451 102.993 0.905181 102.627 0.913436C102.264 0.921692 101.903 0.968473 101.551 1.05653C84.7372 5.15125 75.9231 15.3688 75.9231 15.3688C74.6986 16.5383 73.6006 17.8206 72.6374 19.2131C71.6716 20.6055 70.8543 22.0805 70.1883 23.638C69.5224 25.1955 69.0215 26.8054 68.6803 28.4647C68.3418 30.1241 68.1712 31.7999 68.174 33.495V55.4766C68.174 55.4766 68.3611 62.07 71.567 66.7756C71.567 66.7756 76.845 55.6637 91.3554 55.6637C105.866 55.6637 111.144 66.7756 111.144 66.7756C114.347 62.0672 114.537 55.4766 114.537 55.4766V33.495C114.539 31.9045 114.388 30.3277 114.088 28.7647C113.788 27.2044 113.342 25.6826 112.754 24.2049C112.165 22.7272 111.438 21.3182 110.58 19.9808C109.721 18.6407 108.744 17.3941 107.649 16.2411Z" fill="#342A35"/>
<path d="M85.684 43.333C85.4858 43.333 85.2905 43.3082 85.1006 43.256C84.187 43.0193 83.2651 42.8487 82.3295 42.7386C82.0351 42.7056 81.7571 42.6175 81.4985 42.4772C81.2398 42.3341 81.0169 42.147 80.8298 41.9186C80.6454 41.6874 80.5105 41.4287 80.4252 41.1453C80.3427 40.8619 80.3152 40.5729 80.3454 40.2785C80.3785 39.984 80.4638 39.7089 80.6041 39.4474C80.7445 39.1888 80.9288 38.9631 81.1572 38.776C81.3884 38.5889 81.6443 38.454 81.9277 38.3687C82.2112 38.2834 82.5001 38.2531 82.7946 38.2834C83.9668 38.4155 85.1226 38.6329 86.2646 38.9301C86.5288 38.9989 86.7709 39.1145 86.9911 39.2713C87.214 39.4309 87.3984 39.6236 87.5497 39.8492C87.7011 40.0748 87.8084 40.3198 87.8689 40.5839C87.9322 40.8509 87.9432 41.1178 87.9075 41.3875C87.8744 41.6571 87.7919 41.9103 87.6625 42.1497C87.5332 42.3891 87.3681 42.5983 87.1645 42.7799C86.9581 42.9588 86.7297 43.0964 86.4738 43.1899C86.2206 43.2862 85.9564 43.333 85.684 43.333Z" fill="white"/>
<path d="M98.0423 43.3328C97.7699 43.3328 97.5057 43.286 97.2525 43.1897C96.9966 43.0934 96.7682 42.9558 96.5646 42.7769C96.3609 42.5981 96.1931 42.3889 96.0665 42.1495C95.9372 41.9101 95.8546 41.6542 95.8188 41.3845C95.7831 41.1176 95.7968 40.8507 95.8574 40.5837C95.9206 40.3195 96.0252 40.0746 96.1766 39.849C96.3279 39.6233 96.515 39.4307 96.7352 39.2739C96.9553 39.1142 97.1975 38.9987 97.4589 38.9299C98.6009 38.6327 99.7594 38.4153 100.932 38.2804C101.226 38.2502 101.518 38.2777 101.801 38.363C102.087 38.4483 102.343 38.5831 102.575 38.7703C102.806 38.9574 102.993 39.183 103.133 39.4445C103.274 39.7031 103.362 39.9811 103.392 40.2783C103.422 40.5727 103.395 40.8617 103.312 41.1478C103.227 41.4313 103.092 41.69 102.905 41.9211C102.718 42.1523 102.492 42.3366 102.233 42.4797C101.972 42.6201 101.694 42.7081 101.397 42.7384C100.461 42.8485 99.5393 43.0191 98.6257 43.2557C98.4358 43.308 98.2404 43.3328 98.0423 43.3328Z" fill="white"/>
<path d="M166.18 166.494L176.552 161.769V141.606H166.18V166.494Z" fill="#7F4242"/>
<path d="M161.26 121.124H156.824C156.395 121.124 155.971 121.168 155.55 121.251C155.129 121.333 154.722 121.457 154.326 121.622C153.929 121.787 153.555 121.988 153.197 122.225C152.842 122.462 152.512 122.734 152.209 123.037C151.907 123.339 151.634 123.67 151.398 124.025C151.158 124.38 150.957 124.757 150.795 125.153C150.63 125.549 150.506 125.956 150.423 126.375C150.338 126.796 150.297 127.22 150.297 127.649V136.097C150.297 136.526 150.338 136.95 150.423 137.368C150.506 137.789 150.63 138.197 150.792 138.593C150.957 138.989 151.158 139.366 151.398 139.721C151.634 140.076 151.904 140.406 152.209 140.709C152.512 141.012 152.84 141.284 153.197 141.521C153.552 141.76 153.929 141.961 154.326 142.123C154.722 142.289 155.129 142.412 155.55 142.495C155.971 142.577 156.395 142.622 156.824 142.622H165.041L161.26 121.124Z" fill="#125220"/>
<path d="M178.745 152.583H168.253C167.793 152.583 167.339 152.536 166.888 152.448C166.439 152.357 166.002 152.225 165.578 152.049C165.151 151.873 164.749 151.658 164.367 151.403C163.984 151.149 163.632 150.858 163.307 150.533C162.983 150.211 162.694 149.856 162.438 149.476C162.182 149.094 161.967 148.689 161.791 148.265C161.615 147.842 161.483 147.404 161.395 146.956C161.304 146.504 161.26 146.05 161.26 145.591V144.184C161.714 142.465 161.714 140.747 161.26 139.028V133.579C161.56 131.862 161.56 130.142 161.26 128.425V121.127H178.742C179.202 121.127 179.656 121.171 180.107 121.262C180.559 121.35 180.996 121.485 181.42 121.658C181.844 121.834 182.248 122.052 182.628 122.305C183.011 122.561 183.366 122.85 183.69 123.174C184.015 123.499 184.304 123.851 184.56 124.234C184.813 124.616 185.03 125.018 185.207 125.442C185.38 125.866 185.515 126.303 185.603 126.754C185.694 127.203 185.738 127.657 185.738 128.117V145.591C185.738 146.047 185.694 146.504 185.603 146.953C185.515 147.404 185.383 147.842 185.207 148.265C185.03 148.689 184.816 149.091 184.56 149.473C184.304 149.856 184.015 150.208 183.69 150.533C183.366 150.858 183.013 151.147 182.631 151.403C182.248 151.658 181.847 151.873 181.423 152.049C180.996 152.225 180.561 152.357 180.11 152.448C179.659 152.536 179.205 152.583 178.745 152.583Z" fill="#36922E"/>
<path d="M161.26 128.425H173.731C174.073 128.425 174.403 128.488 174.719 128.62C175.033 128.75 175.314 128.937 175.556 129.179C175.798 129.421 175.982 129.699 176.114 130.015C176.247 130.332 176.31 130.659 176.31 131.001C176.31 131.344 176.247 131.672 176.114 131.988C175.982 132.305 175.798 132.583 175.556 132.825C175.314 133.067 175.033 133.252 174.719 133.384C174.403 133.513 174.073 133.579 173.731 133.579H161.26V128.425Z" fill="#125220"/>
<path d="M161.26 139.028H173.731C174.073 139.028 174.403 139.094 174.719 139.223C175.033 139.355 175.314 139.539 175.556 139.782C175.798 140.024 175.982 140.302 176.114 140.618C176.247 140.935 176.31 141.262 176.31 141.606C176.31 141.947 176.247 142.275 176.114 142.591C175.982 142.908 175.798 143.186 175.556 143.428C175.314 143.67 175.033 143.857 174.719 143.986C174.403 144.118 174.073 144.182 173.731 144.182H161.26V139.028Z" fill="#125220"/>
<path d="M118.886 20.0035C117.811 20.1261 115.933 20.6771 113.995 22.8129C109.127 30.1103 109.076 38.8945 111.868 48.5568L111.887 48.5621C120.782 43.3984 116.919 26.8416 119.439 20.7464C119.596 20.367 119.296 19.9577 118.886 20.0035Z" fill="#125220"/>
<path d="M68.4836 22.8129C66.5471 20.6771 64.6702 20.1261 63.5949 20.0035C63.1845 19.9577 62.8851 20.367 63.0428 20.7464C65.5644 26.8469 61.6935 43.4187 70.6098 48.5707L70.6152 48.5685C76.494 39.3964 76.2478 30.769 68.4836 22.8129Z" fill="#125220"/>
<path d="M97.0006 61.1092C96.9932 60.7927 97.0507 60.4538 97.184 60.101C98.0845 57.719 100.974 55.2528 101.18 52C102.853 55.1547 103.232 59.4253 101.932 62.1174C100.687 64.6924 97.0454 63.5072 97.0006 61.1092Z" fill="#FFDBAC"/>
<path d="M85.71 61.1092C85.6652 63.5072 82.0234 64.6924 80.7786 62.1174C79.4784 59.4253 79.8588 55.1547 81.531 52C81.7367 55.2528 84.6261 57.719 85.5266 60.101C85.6599 60.4538 85.7174 60.7927 85.71 61.1092Z" fill="#FFDBAC"/>
</svg>
