<svg width="212" height="213" viewBox="0 0 212 213" fill="none" xmlns="http://www.w3.org/2000/svg">
<path d="M42.6896 92.3818C42.6896 92.3818 1.53058 115.698 8.36336 161.442L32.6289 177.08C32.6289 177.08 31.4237 161.428 40.0148 155.366C51.9715 146.926 54.1317 139.309 58.1962 130.825C62.2606 122.341 61.5149 93.9669 42.6896 92.3818Z" fill="#3F2F2C"/>
<path d="M42.6894 92.3818C36.817 95.9977 31.5308 100.326 26.8307 105.37C28.9991 108.111 31.2006 113.12 30.6915 122.011C30.6915 122.011 30.0228 126.945 32.4196 133.445C32.6095 133.937 32.7251 134.446 32.7746 134.969C32.8214 135.495 32.7966 136.015 32.7003 136.532C32.604 137.049 32.4416 137.545 32.2077 138.018C31.9766 138.489 31.6821 138.921 31.3326 139.314C29.5357 141.32 27.9259 143.467 26.5032 145.753C25.0777 148.04 23.8614 150.429 22.8515 152.927C21.8388 155.423 21.0518 157.988 20.485 160.619C19.9181 163.252 19.5824 165.913 19.4778 168.605L32.626 177.077C32.626 177.077 31.4207 161.425 40.0119 155.363C51.9713 146.926 54.1315 139.309 58.196 130.825C62.2604 122.341 61.5147 93.9669 42.6894 92.3818Z" fill="#1E100F"/>
<path d="M192.554 19.1118C191.406 20.3281 190.138 21.4013 188.748 22.3287C187.358 23.2588 185.881 24.0183 184.32 24.6127C182.757 25.2071 181.147 25.6199 179.491 25.851C177.834 26.0794 176.175 26.1235 174.507 25.9776V38.7131H180.402C180.837 38.7131 181.271 38.7543 181.701 38.8396C182.13 38.925 182.545 39.0515 182.95 39.2194C183.354 39.3873 183.737 39.5909 184.1 39.8358C184.463 40.078 184.802 40.3532 185.11 40.6614C185.418 40.9723 185.696 41.308 185.938 41.6713C186.181 42.0345 186.387 42.417 186.555 42.8215C186.723 43.2261 186.847 43.6416 186.932 44.0709C187.017 44.5002 187.061 44.9322 187.061 45.3697V71.9936C187.061 72.4312 187.017 72.8632 186.932 73.2925C186.847 73.7218 186.723 74.1373 186.555 74.5418C186.387 74.9463 186.181 75.3288 185.938 75.6921C185.696 76.0553 185.418 76.391 185.11 76.702C184.802 77.0102 184.463 77.2854 184.1 77.5276C183.737 77.7725 183.354 77.9761 182.95 78.144C182.545 78.3118 182.13 78.4384 181.701 78.5237C181.271 78.609 180.837 78.6503 180.402 78.6503H174.507V90.6125C182.089 91.5178 187.463 94.1788 191.277 97.4865C209.26 79.8116 207.419 38.1324 192.554 19.1118Z" fill="#7784B2"/>
<path d="M145.492 89.6548C145.492 89.6548 166.901 104.226 167.27 146.279L138.478 168.596C138.478 168.596 119.099 134.292 125.927 98.8761L145.492 89.6548Z" fill="#1E100F"/>
<path d="M164.725 141.579C164.725 141.579 152.262 145.06 145.038 155.316C138.095 165.173 141.026 178.429 149.95 186.538C150.971 187.469 152.094 188.399 153.329 189.321C153.83 189.695 154.367 190.014 154.936 190.281C155.503 190.545 156.092 190.751 156.703 190.897C157.314 191.043 157.933 191.126 158.558 191.148C159.185 191.167 159.81 191.123 160.426 191.016C161.045 190.911 161.648 190.743 162.231 190.515C162.815 190.284 163.371 190 163.896 189.656C164.422 189.315 164.909 188.924 165.355 188.484C165.801 188.044 166.2 187.562 166.546 187.042C168.563 183.974 170.459 179.458 171.365 172.856V141.579H164.725Z" fill="#131163"/>
<mask id="mask0_115_10123" style="mask-type:luminance" maskUnits="userSpaceOnUse" x="40" y="183" width="103" height="30">
<path d="M40.0092 183.129H142.861V213H40.0092V183.129Z" fill="white"/>
</mask>
<g mask="url(#mask0_115_10123)">
<path d="M136.714 199.742C138.989 198.388 140.492 196.335 140.299 193.239C139.589 182.061 126.821 183.39 126.821 183.39L89.3328 183.341L51.8475 183.39C51.8475 183.39 39.2386 198.069 40.1247 212.794H140.464C140.621 212.794 140.775 212.777 140.927 212.741C141.081 212.708 141.227 212.659 141.37 212.593C141.51 212.529 141.645 212.45 141.769 212.353C141.893 212.26 142.008 212.155 142.11 212.037C142.212 211.919 142.3 211.789 142.374 211.654C142.449 211.517 142.509 211.374 142.553 211.222C142.597 211.074 142.625 210.92 142.636 210.766C142.647 210.609 142.641 210.455 142.619 210.298C142.501 209.269 142.283 208.259 141.964 207.268C141.648 206.28 141.235 205.333 140.726 204.428C140.22 203.523 139.628 202.675 138.954 201.885C138.277 201.096 137.531 200.383 136.714 199.742Z" fill="#131163"/>
</g>
<path d="M132.082 136.813C142.399 129.898 141.552 116.967 138.756 106.829H43.9526C41.1567 116.967 40.3064 129.898 50.6257 136.813C50.5762 137.559 50.4414 138.285 50.2185 138.995C49.9928 139.705 49.6874 140.379 49.3021 141.015C48.9141 141.651 48.4573 142.231 47.9289 142.757C47.4006 143.285 46.8172 143.739 46.1815 144.125C38.1022 159.485 27.2875 193.663 91.3527 193.236C154.251 193.652 144.975 160.718 136.972 144.983C134.727 142.628 133.098 139.903 132.082 136.813Z" fill="#3F2F2C"/>
<path d="M133.356 120.522C133.695 113.109 136.76 108.843 138.753 106.829C137.349 101.812 135.44 96.9966 133.024 92.3818H49.6845C47.2656 96.9966 45.3559 101.812 43.9552 106.829C45.9475 108.843 49.0131 113.109 49.3488 120.522C49.357 120.709 49.3873 120.893 49.4368 121.075C49.4864 121.254 49.5552 121.427 49.6432 121.592C49.7313 121.758 49.8386 121.912 49.9597 122.052C50.0835 122.192 50.2211 122.319 50.3725 122.429C50.5238 122.539 50.6862 122.633 50.8595 122.704C51.0301 122.778 51.209 122.834 51.3934 122.867C51.5778 122.9 51.7649 122.913 51.952 122.905C52.1391 122.897 52.3235 122.867 52.5024 122.817C59.6544 120.849 77.277 118.742 89.1567 140.467C89.3768 140.869 89.6823 141.188 90.0758 141.422C90.4693 141.656 90.8958 141.772 91.3526 141.772C91.8122 141.772 92.2387 141.656 92.6322 141.422C93.0257 141.188 93.3312 140.869 93.5486 140.467C105.428 118.742 123.051 120.849 130.203 122.817C130.385 122.867 130.569 122.897 130.756 122.905C130.943 122.913 131.128 122.9 131.312 122.867C131.496 122.834 131.675 122.778 131.848 122.707C132.022 122.633 132.181 122.539 132.333 122.429C132.487 122.319 132.622 122.195 132.746 122.052C132.869 121.912 132.977 121.758 133.065 121.592C133.153 121.427 133.222 121.254 133.271 121.075C133.321 120.893 133.351 120.709 133.356 120.522Z" fill="#1E100F"/>
<path d="M9.86287 156.068C19.7392 158.613 34.4229 165.597 36.5996 184.681L27.5544 208.476C27.5544 208.476 -1.50216 204.42 0.0608725 163.291C0.0746314 162.999 0.102149 162.71 0.148931 162.424C0.19296 162.135 0.2535 161.852 0.330551 161.571C0.407602 161.29 0.498412 161.015 0.605734 160.746C0.715807 160.476 0.836887 160.212 0.974478 159.956C1.10932 159.697 1.26067 159.45 1.42578 159.21C1.59089 158.971 1.767 158.74 1.95688 158.519C2.14951 158.299 2.35039 158.09 2.56503 157.895C2.77692 157.697 3.00257 157.509 3.23648 157.339C3.47038 157.166 3.71254 157.006 3.96571 156.86C4.21613 156.717 4.47755 156.585 4.74173 156.469C5.00865 156.351 5.28108 156.249 5.55902 156.164C5.83695 156.079 6.12039 156.007 6.40658 155.952C6.69277 155.897 6.97896 155.858 7.27065 155.836C7.55959 155.814 7.85129 155.809 8.14023 155.817C8.43192 155.828 8.72087 155.853 9.00981 155.894C9.296 155.938 9.58219 155.996 9.86287 156.068Z" fill="#131163"/>
<path d="M153.83 84.6245C153.83 84.6245 124.476 85.5821 111.141 59.2527H71.5671C58.2318 85.5794 28.878 84.6245 28.878 84.6245C28.7432 85.8353 28.801 87.0406 29.0514 88.2349C29.145 88.6394 29.2688 89.0302 29.4257 89.4127C29.5825 89.7952 29.7696 90.1639 29.9843 90.5162C30.1989 90.8684 30.4411 91.2041 30.7108 91.5178C30.9804 91.8315 31.2721 92.1205 31.5858 92.3902C31.9023 92.6571 32.238 92.8965 32.5903 93.1111C32.9452 93.3258 33.314 93.5102 33.6965 93.6643C34.0817 93.8184 34.4725 93.9422 34.877 94.033C35.2815 94.1266 35.6888 94.1844 36.1016 94.2119C51.1898 95.3539 53.6885 108.282 54.06 113.89C54.0682 114.044 54.0958 114.196 54.137 114.344C54.1783 114.493 54.2361 114.636 54.3104 114.774C54.382 114.911 54.4673 115.038 54.5663 115.156C54.6681 115.274 54.7782 115.382 54.8993 115.478C55.0231 115.572 55.1525 115.654 55.2928 115.72C55.4331 115.789 55.579 115.841 55.7276 115.877C55.8789 115.913 56.033 115.935 56.1871 115.938C56.3413 115.943 56.4954 115.929 56.6467 115.902C76.4708 112.115 85.8133 123.351 89.4374 129.771C89.6328 130.118 89.8998 130.393 90.2437 130.594C90.5877 130.795 90.9592 130.896 91.3555 130.896C91.7545 130.896 92.1232 130.795 92.4672 130.594C92.8112 130.393 93.0809 130.118 93.2735 129.771C96.9004 123.351 106.24 112.115 126.064 115.902C126.216 115.929 126.37 115.943 126.527 115.938C126.681 115.935 126.832 115.913 126.983 115.877C127.135 115.841 127.281 115.789 127.418 115.72C127.558 115.654 127.691 115.572 127.812 115.478C127.935 115.382 128.046 115.274 128.145 115.156C128.244 115.038 128.332 114.911 128.403 114.774C128.475 114.636 128.533 114.493 128.574 114.344C128.618 114.196 128.643 114.044 128.654 113.89C129.022 108.282 131.521 95.3539 146.612 94.2119C147.025 94.1844 147.432 94.1266 147.834 94.033C148.238 93.9422 148.629 93.8184 149.014 93.6615C149.397 93.5074 149.766 93.323 150.118 93.1111C150.473 92.8965 150.806 92.6543 151.122 92.3874C151.436 92.1205 151.728 91.8315 151.997 91.5151C152.267 91.2014 152.509 90.8684 152.724 90.5162C152.939 90.1639 153.126 89.7952 153.28 89.4127C153.437 89.0302 153.563 88.6394 153.657 88.2377C153.907 87.0406 153.965 85.8381 153.83 84.6245Z" fill="#131163"/>
<path d="M71.5673 74.7757C71.5673 74.7757 77.2085 84.6245 91.3529 84.6245C105.5 84.6245 111.144 74.7757 111.144 74.7757C111.144 74.7757 108.577 59.2527 91.3529 59.2527C74.1292 59.2527 71.5673 74.7757 71.5673 74.7757Z" fill="#3F2F2C"/>
<path d="M168.448 8.91089H174.285C174.584 8.91089 174.873 8.96593 175.151 9.0815C175.429 9.19708 175.674 9.36219 175.886 9.57408C176.101 9.78597 176.263 10.0309 176.379 10.3088C176.494 10.5867 176.552 10.8757 176.552 11.1756V148.717H166.18V11.1756C166.18 10.8757 166.238 10.5867 166.354 10.3088C166.469 10.0309 166.632 9.78597 166.844 9.57408C167.058 9.36219 167.303 9.19708 167.581 9.0815C167.859 8.96593 168.148 8.91089 168.448 8.91089Z" fill="#1F0705"/>
<mask id="mask1_115_10123" style="mask-type:luminance" maskUnits="userSpaceOnUse" x="184" y="0" width="28" height="122">
<path d="M184 0H212V121.613H184V0Z" fill="white"/>
</mask>
<g mask="url(#mask1_115_10123)">
<path d="M195.204 -0.0153809C193.304 4.62225 190.355 8.73475 186.359 12.3221C191.758 24.565 207.363 66.5052 184.675 99.2861C196.863 108.146 196.994 121.201 196.994 121.201C231.527 56.5491 195.204 -0.0153809 195.204 -0.0153809Z" fill="#DCE2F9"/>
</g>
<path d="M67.3597 138.47C57.2687 140.123 50.6258 136.813 50.6258 136.813C48.9775 139.149 47.497 141.587 46.1816 144.125C56.5973 146.742 63.9749 144.204 68.4632 141.417C68.62 141.318 68.7549 141.197 68.8704 141.051C68.9833 140.905 69.0713 140.745 69.1291 140.572C69.1896 140.396 69.2172 140.217 69.2144 140.033C69.2117 139.845 69.1759 139.667 69.1126 139.496C69.0466 139.323 68.9557 139.166 68.8374 139.023C68.7163 138.882 68.5787 138.764 68.4191 138.67C68.2595 138.577 68.0889 138.514 67.9073 138.478C67.7257 138.445 67.5441 138.439 67.3597 138.47Z" fill="#1E100F"/>
<path d="M132.083 136.813C124.54 139.796 116.994 139.047 112.404 138.068C112.231 138.029 112.058 138.018 111.881 138.038C111.703 138.06 111.535 138.106 111.375 138.181C111.213 138.258 111.07 138.357 110.943 138.481C110.814 138.604 110.712 138.745 110.629 138.902C110.55 139.061 110.497 139.226 110.472 139.402C110.445 139.579 110.45 139.752 110.483 139.928C110.516 140.101 110.577 140.267 110.665 140.421C110.753 140.575 110.863 140.71 110.995 140.828C114.614 144.092 122.151 147.729 136.97 144.983C135.542 142.141 133.912 139.416 132.083 136.813Z" fill="#1E100F"/>
<path d="M93.1193 181.734H89.5887C89.2915 181.734 89.0053 181.676 88.7301 181.563C88.4549 181.447 88.2128 181.288 88.0036 181.076C87.7917 180.867 87.6294 180.625 87.5166 180.349C87.4037 180.074 87.3459 179.791 87.3459 179.494C87.3459 179.196 87.4037 178.91 87.5166 178.635C87.6294 178.36 87.7917 178.118 88.0036 177.909C88.2128 177.699 88.4549 177.537 88.7301 177.424C89.0053 177.309 89.2915 177.254 89.5887 177.254H93.1193C93.4165 177.254 93.7027 177.309 93.9778 177.424C94.2503 177.537 94.4952 177.699 94.7043 177.909C94.9135 178.118 95.0758 178.36 95.1886 178.635C95.3042 178.91 95.3593 179.196 95.3593 179.494C95.3593 179.791 95.3042 180.074 95.1886 180.349C95.0758 180.625 94.9135 180.867 94.7043 181.076C94.4952 181.288 94.2503 181.447 93.9778 181.563C93.7027 181.676 93.4165 181.734 93.1193 181.734Z" fill="#1E100F"/>
<path d="M61.3606 132.011H58.9995C58.7023 132.011 58.4161 131.953 58.1437 131.84C57.8685 131.728 57.6263 131.565 57.4145 131.356C57.2053 131.144 57.043 130.902 56.9301 130.63C56.8146 130.354 56.7595 130.068 56.7595 129.771C56.7595 129.474 56.8146 129.188 56.9301 128.915C57.043 128.64 57.2053 128.398 57.4145 128.186C57.6263 127.977 57.8685 127.814 58.1437 127.702C58.4161 127.589 58.7023 127.531 58.9995 127.531H61.3606C61.6578 127.531 61.944 127.589 62.2191 127.702C62.4943 127.814 62.7365 127.977 62.9456 128.186C63.1575 128.398 63.3199 128.64 63.4327 128.915C63.5455 129.188 63.6033 129.474 63.6033 129.771C63.6033 130.068 63.5455 130.354 63.4327 130.63C63.3199 130.902 63.1575 131.144 62.9456 131.356C62.7365 131.565 62.4943 131.728 62.2191 131.84C61.944 131.953 61.6578 132.011 61.3606 132.011Z" fill="#1E100F"/>
<path d="M123.706 132.011H121.342C121.045 132.011 120.759 131.953 120.486 131.84C120.211 131.728 119.969 131.565 119.757 131.356C119.548 131.144 119.386 130.902 119.273 130.63C119.16 130.354 119.102 130.068 119.102 129.771C119.102 129.474 119.16 129.188 119.273 128.915C119.386 128.64 119.548 128.398 119.757 128.186C119.969 127.977 120.211 127.814 120.486 127.702C120.759 127.589 121.045 127.531 121.342 127.531H123.703C124.003 127.531 124.287 127.589 124.562 127.702C124.837 127.814 125.079 127.977 125.288 128.186C125.5 128.398 125.663 128.64 125.775 128.915C125.888 129.188 125.946 129.474 125.946 129.771C125.946 130.068 125.888 130.354 125.775 130.63C125.663 130.902 125.5 131.144 125.288 131.356C125.079 131.565 124.837 131.728 124.562 131.84C124.287 131.953 124.003 132.011 123.703 132.011H123.706Z" fill="#1E100F"/>
<path d="M166.18 174.494V212.617H176.549V169.769C173.093 170.3 169.637 171.874 166.18 174.494Z" fill="#370604"/>
<path d="M43.8921 178.58L53.6721 182.201C54.0573 182.345 54.4316 182.521 54.792 182.724C55.1525 182.928 55.491 183.159 55.8157 183.418C56.1377 183.676 56.4349 183.96 56.7128 184.268C56.9908 184.576 57.2384 184.901 57.4641 185.251C57.687 185.597 57.8823 185.96 58.0475 186.34C58.2126 186.717 58.3447 187.108 58.4465 187.51C58.551 187.909 58.6198 188.316 58.6556 188.726C58.6914 189.139 58.6969 189.549 58.6666 189.962L58.2759 195.38C58.2373 195.897 58.1493 196.406 58.0089 196.904C57.8686 197.403 57.6787 197.884 57.4421 198.344C57.2054 198.806 56.9247 199.238 56.6 199.643C56.2753 200.044 55.912 200.413 55.513 200.743C55.114 201.073 54.6847 201.362 54.2279 201.607C53.7711 201.85 53.2951 202.048 52.797 202.193C52.2989 202.342 51.7926 202.438 51.278 202.485C50.7606 202.529 50.2433 202.524 49.7287 202.463L43.3252 201.731L43.8921 178.58Z" fill="#1E100F"/>
<mask id="mask2_115_10123" style="mask-type:luminance" maskUnits="userSpaceOnUse" x="23" y="176" width="29" height="37">
<path d="M23.8065 176.789H51.9852V213H23.8065V176.789Z" fill="white"/>
</mask>
<g mask="url(#mask2_115_10123)">
<path d="M41.1733 177.512C42.8932 177.986 44.481 178.737 45.934 179.772C47.387 180.806 48.617 182.058 49.627 183.528C50.48 184.86 51.0799 186.299 51.4294 187.84C51.7789 189.384 51.8559 190.938 51.6578 192.507C50.8102 193.624 50.7469 195.586 50.7662 197.636C50.3177 199.629 49.737 201.583 49.0271 203.495C47.8933 204.665 47.2962 206.351 46.8806 208.217C46.71 208.528 46.5367 208.836 46.355 209.145C46.0111 209.736 45.5928 210.273 45.1002 210.749C44.6076 211.225 44.0573 211.624 43.4519 211.949C42.8465 212.271 42.208 212.505 41.5366 212.648C40.8651 212.793 40.1882 212.843 39.503 212.796C36.9631 212.505 34.4699 211.99 32.0208 211.255C31.3741 211.068 30.7494 210.826 30.1468 210.526C29.5469 210.226 28.9773 209.874 28.4379 209.469C27.9013 209.065 27.4032 208.616 26.9464 208.124C26.4924 207.628 26.0851 207.097 25.7246 206.528C25.3669 205.958 25.0614 205.364 24.811 204.739C24.5606 204.114 24.3707 203.473 24.2359 202.813C24.1038 202.155 24.0322 201.489 24.0185 200.818C24.0075 200.143 24.057 199.477 24.1671 198.814C25.0917 193.096 26.8611 187.653 29.4726 182.485C29.7368 181.973 30.0395 181.486 30.3862 181.024C30.7357 180.564 31.1182 180.138 31.542 179.744C31.963 179.353 32.4143 178.998 32.8986 178.685C33.3829 178.371 33.8893 178.101 34.4204 177.876C34.9515 177.65 35.4963 177.471 36.0577 177.342C36.6191 177.212 37.1887 177.133 37.7638 177.1C38.339 177.069 38.9141 177.089 39.4865 177.157C40.0589 177.226 40.6202 177.344 41.1733 177.512Z" fill="#3F2F2C"/>
</g>
<path d="M40.6476 191.555C40.5403 191.88 40.499 192.21 40.5238 192.551C40.5458 192.892 40.6366 193.217 40.788 193.522C40.9421 193.828 41.1485 194.092 41.4071 194.318C41.6658 194.541 41.9575 194.706 42.2822 194.813L50.7606 197.634C51.1459 195.939 51.4458 194.23 51.6577 192.504L51.6522 192.496L43.9141 189.923C43.5893 189.813 43.2564 189.772 42.9151 189.796C42.5739 189.819 42.2492 189.907 41.9438 190.061C41.6355 190.215 41.3714 190.421 41.1457 190.68C40.9228 190.939 40.755 191.23 40.6476 191.555Z" fill="#1E100F"/>
<path d="M49.0269 203.492L39.8633 200.435C39.5386 200.325 39.2057 200.284 38.8644 200.308C38.5205 200.333 38.1985 200.421 37.8903 200.573C37.5848 200.727 37.3207 200.933 37.095 201.192C36.8721 201.45 36.7042 201.742 36.5969 202.067C36.4896 202.389 36.4456 202.722 36.4703 203.063C36.4951 203.404 36.5832 203.726 36.7373 204.032C36.8886 204.337 37.095 204.604 37.3537 204.827C37.6123 205.05 37.9013 205.218 38.226 205.325L46.8777 208.214C47.706 206.69 48.4215 205.119 49.0269 203.492Z" fill="#1E100F"/>
<path d="M91.3529 59.2527C74.1347 59.2527 71.5673 74.7757 71.5673 74.7757C71.5673 74.7757 76.9361 69.1675 91.3529 69.1675C105.77 69.1675 111.144 74.7757 111.144 74.7757C111.144 74.7757 108.574 59.2527 91.3529 59.2527Z" fill="#1E100F"/>
<path d="M107.649 24.2411C108.276 21.1536 108.108 16.902 107.8 13.52C107.767 13.1568 107.696 12.8018 107.586 12.455C107.476 12.1083 107.33 11.7753 107.148 11.4589C106.969 11.1452 106.755 10.8507 106.51 10.581C106.265 10.3114 105.995 10.0692 105.698 9.85731C105.401 9.64542 105.087 9.46655 104.751 9.32346C104.416 9.18036 104.069 9.07304 103.711 9.00425C103.353 8.93545 102.993 8.90518 102.627 8.91344C102.264 8.92169 101.903 8.96847 101.551 9.05653C84.7372 13.1512 75.9231 23.3688 75.9231 23.3688C74.6986 24.5383 73.6006 25.8206 72.6374 27.2131C71.6716 28.6055 70.8543 30.0805 70.1883 31.638C69.5224 33.1955 69.0215 34.8054 68.6803 36.4647C68.3418 38.1241 68.1712 39.7999 68.174 41.495V63.4766C68.174 63.4766 68.3611 70.07 71.567 74.7756C71.567 74.7756 76.845 63.6637 91.3554 63.6637C105.866 63.6637 111.144 74.7756 111.144 74.7756C114.347 70.0672 114.537 63.4766 114.537 63.4766V41.495C114.539 39.9045 114.388 38.3277 114.088 36.7647C113.788 35.2044 113.342 33.6826 112.754 32.2049C112.165 30.7272 111.438 29.3182 110.58 27.9808C109.721 26.6407 108.744 25.3941 107.649 24.2411Z" fill="#131163"/>
<path d="M85.684 51.333C85.4858 51.333 85.2905 51.3082 85.1006 51.256C84.187 51.0193 83.2651 50.8487 82.3295 50.7386C82.0351 50.7056 81.7571 50.6175 81.4985 50.4772C81.2398 50.3341 81.0169 50.147 80.8298 49.9186C80.6454 49.6874 80.5105 49.4287 80.4252 49.1453C80.3427 48.8619 80.3152 48.5729 80.3454 48.2785C80.3785 47.984 80.4638 47.7089 80.6041 47.4474C80.7445 47.1888 80.9288 46.9631 81.1572 46.776C81.3884 46.5889 81.6443 46.454 81.9277 46.3687C82.2112 46.2834 82.5001 46.2531 82.7946 46.2834C83.9668 46.4155 85.1226 46.6329 86.2646 46.9301C86.5288 46.9989 86.7709 47.1145 86.9911 47.2713C87.214 47.4309 87.3984 47.6236 87.5497 47.8492C87.7011 48.0748 87.8084 48.3198 87.8689 48.5839C87.9322 48.8509 87.9432 49.1178 87.9075 49.3875C87.8744 49.6571 87.7919 49.9103 87.6625 50.1497C87.5332 50.3891 87.3681 50.5983 87.1645 50.7799C86.9581 50.9588 86.7297 51.0964 86.4738 51.1899C86.2206 51.2862 85.9564 51.333 85.684 51.333Z" fill="white"/>
<path d="M98.0423 51.3328C97.7699 51.3328 97.5057 51.286 97.2525 51.1897C96.9966 51.0934 96.7682 50.9558 96.5646 50.7769C96.3609 50.5981 96.1931 50.3889 96.0665 50.1495C95.9372 49.9101 95.8546 49.6542 95.8188 49.3845C95.7831 49.1176 95.7968 48.8507 95.8574 48.5837C95.9206 48.3195 96.0252 48.0746 96.1766 47.849C96.3279 47.6233 96.515 47.4307 96.7352 47.2739C96.9553 47.1142 97.1975 46.9987 97.4589 46.9299C98.6009 46.6327 99.7594 46.4153 100.932 46.2804C101.226 46.2502 101.518 46.2777 101.801 46.363C102.087 46.4483 102.343 46.5831 102.575 46.7703C102.806 46.9574 102.993 47.183 103.133 47.4445C103.274 47.7031 103.362 47.9811 103.392 48.2783C103.422 48.5727 103.395 48.8617 103.312 49.1478C103.227 49.4313 103.092 49.69 102.905 49.9211C102.718 50.1523 102.492 50.3366 102.233 50.4797C101.972 50.6201 101.694 50.7081 101.397 50.7384C100.461 50.8485 99.5393 51.0191 98.6257 51.2557C98.4358 51.308 98.2404 51.3328 98.0423 51.3328Z" fill="white"/>
<path d="M166.18 174.494L176.552 169.769V149.606H166.18V174.494Z" fill="#7F4242"/>
<path d="M161.26 129.124H156.824C156.395 129.124 155.971 129.168 155.55 129.251C155.129 129.333 154.722 129.457 154.326 129.622C153.929 129.787 153.555 129.988 153.197 130.225C152.842 130.462 152.512 130.734 152.209 131.037C151.907 131.339 151.634 131.67 151.398 132.025C151.158 132.38 150.957 132.757 150.795 133.153C150.63 133.549 150.506 133.956 150.423 134.375C150.338 134.796 150.297 135.22 150.297 135.649V144.097C150.297 144.526 150.338 144.95 150.423 145.368C150.506 145.789 150.63 146.197 150.792 146.593C150.957 146.989 151.158 147.366 151.398 147.721C151.634 148.076 151.904 148.406 152.209 148.709C152.512 149.012 152.84 149.284 153.197 149.521C153.552 149.76 153.929 149.961 154.326 150.123C154.722 150.289 155.129 150.412 155.55 150.495C155.971 150.577 156.395 150.622 156.824 150.622H165.041L161.26 129.124Z" fill="#1E100F"/>
<path d="M178.745 160.583H168.252C167.793 160.583 167.339 160.536 166.887 160.448C166.439 160.357 166.001 160.225 165.578 160.049C165.151 159.873 164.749 159.658 164.367 159.403C163.984 159.149 163.632 158.858 163.307 158.533C162.983 158.211 162.694 157.856 162.438 157.476C162.182 157.094 161.967 156.689 161.791 156.265C161.615 155.842 161.483 155.404 161.395 154.956C161.304 154.504 161.26 154.05 161.26 153.591V152.184C161.714 150.465 161.714 148.747 161.26 147.028V141.579C161.56 139.862 161.56 138.142 161.26 136.425V129.127H178.742C179.202 129.127 179.656 129.171 180.107 129.262C180.559 129.35 180.996 129.485 181.42 129.658C181.844 129.834 182.248 130.052 182.628 130.305C183.01 130.561 183.365 130.85 183.69 131.174C184.015 131.499 184.304 131.851 184.56 132.234C184.813 132.616 185.03 133.018 185.206 133.442C185.38 133.866 185.515 134.303 185.603 134.754C185.693 135.203 185.737 135.657 185.737 136.117V153.591C185.737 154.047 185.693 154.504 185.603 154.953C185.515 155.404 185.383 155.842 185.206 156.265C185.03 156.689 184.816 157.091 184.56 157.473C184.304 157.856 184.015 158.208 183.69 158.533C183.365 158.858 183.013 159.147 182.631 159.403C182.248 159.658 181.846 159.873 181.423 160.049C180.996 160.225 180.561 160.357 180.11 160.448C179.659 160.536 179.205 160.583 178.745 160.583Z" fill="#3F2F2C"/>
<path d="M161.26 136.425H173.731C174.073 136.425 174.403 136.488 174.719 136.62C175.033 136.75 175.314 136.937 175.556 137.179C175.798 137.421 175.982 137.699 176.114 138.015C176.246 138.332 176.31 138.659 176.31 139.001C176.31 139.344 176.246 139.672 176.114 139.988C175.982 140.305 175.798 140.583 175.556 140.825C175.314 141.067 175.033 141.252 174.719 141.384C174.403 141.513 174.073 141.579 173.731 141.579H161.26V136.425Z" fill="#1E100F"/>
<path d="M161.26 147.028H173.731C174.073 147.028 174.403 147.094 174.719 147.223C175.033 147.355 175.314 147.539 175.556 147.782C175.798 148.024 175.982 148.302 176.114 148.618C176.246 148.935 176.31 149.262 176.31 149.606C176.31 149.947 176.246 150.275 176.114 150.591C175.982 150.908 175.798 151.186 175.556 151.428C175.314 151.67 175.033 151.857 174.719 151.986C174.403 152.118 174.073 152.182 173.731 152.182H161.26V147.028Z" fill="#1E100F"/>
</svg>
