<svg width="416" height="415" viewBox="0 0 416 415" fill="none" xmlns="http://www.w3.org/2000/svg">
<path d="M91.5426 115.288C85.8192 116.159 80.0958 116.175 74.3704 115.336C51.2335 111.938 35.6509 102.466 25.336 92.5948C20.4909 121.519 19.7816 148.973 25.336 174.201C35.657 164.321 51.2686 154.837 74.4487 151.449C80.1494 150.618 85.846 150.639 91.5406 151.507C99.7999 152.765 111.979 155.787 122.836 163.061C123.079 163.22 123.337 163.344 123.613 163.432C123.889 163.519 124.172 163.57 124.46 163.581C124.751 163.593 125.036 163.566 125.318 163.5C125.601 163.434 125.869 163.331 126.124 163.193C126.378 163.055 126.609 162.884 126.817 162.684C127.025 162.482 127.205 162.257 127.351 162.008C127.499 161.758 127.611 161.494 127.687 161.214C127.763 160.935 127.8 160.649 127.8 160.36V106.431C127.8 106.14 127.761 105.856 127.685 105.576C127.609 105.295 127.495 105.029 127.347 104.78C127.198 104.53 127.019 104.306 126.809 104.103C126.601 103.904 126.368 103.734 126.112 103.596C125.856 103.458 125.586 103.357 125.304 103.293C125.019 103.229 124.733 103.203 124.442 103.217C124.153 103.229 123.869 103.281 123.594 103.372C123.318 103.462 123.058 103.588 122.817 103.749C111.962 111.01 99.7979 114.031 91.5426 115.288Z" fill="#7F91BF"/>
<path d="M25.3464 92.5846C19.1282 86.6468 14.0645 79.8492 10.1555 72.1898C10.0276 71.9424 9.86681 71.7218 9.66888 71.528C9.47302 71.3322 9.25241 71.1713 9.005 71.0456C8.75965 70.9198 8.49987 70.8332 8.22566 70.7899C7.95351 70.7446 7.6793 70.7425 7.40509 70.7837C7.13088 70.825 6.8711 70.9074 6.62369 71.0291C6.37422 71.1528 6.15155 71.3115 5.95362 71.5033C5.75363 71.6971 5.59075 71.9156 5.4588 72.161C5.32891 72.4043 5.24026 72.664 5.19078 72.9362C-1.7573 111.899 -1.73049 152.142 5.27325 193.662C5.3186 193.936 5.4052 194.198 5.53303 194.443C5.66085 194.69 5.82373 194.913 6.02166 195.109C6.21752 195.305 6.44019 195.466 6.68966 195.591C6.93707 195.715 7.19891 195.802 7.47313 195.845C7.74734 195.888 8.02155 195.888 8.29576 195.845C8.57203 195.802 8.83181 195.717 9.08128 195.591C9.32869 195.468 9.55136 195.307 9.74929 195.111C9.94722 194.915 10.1101 194.694 10.2379 194.447C14.1387 186.854 19.1735 180.11 25.3464 174.213C24.0495 167.488 23.0785 160.717 22.4269 153.899C21.7775 147.081 21.4517 140.248 21.4517 133.399C21.4517 126.55 21.7775 119.717 22.4269 112.899C23.0785 106.081 24.0516 99.31 25.3464 92.5846Z" fill="#E4EFFF"/>
<path d="M80.4692 90.5353L96.4869 65.6665L81.3125 4.39771C75.5004 16.4671 70.6986 28.9283 66.905 41.7771C63.1135 54.6279 60.3817 67.6994 58.7075 80.9915C59.2023 81.1791 59.6868 81.3894 60.161 81.6265L80.4692 90.5353Z" fill="#E4EFFF"/>
<path d="M71.9315 98.374V170.516L90.6934 179.015V98.374C91.6253 85.3252 103.917 80.9915 103.917 80.9915C102.245 67.6994 99.5115 54.6279 95.7199 41.7771C91.9263 28.9283 87.1245 16.4671 81.3125 4.39771V63.2213C81.3125 63.8872 81.263 64.547 81.164 65.2047C81.063 65.8603 80.9166 66.5077 80.7187 67.1407C80.5228 67.7757 80.2795 68.3921 79.9888 68.99C79.6981 69.588 79.3662 70.1611 78.9909 70.7095C78.6136 71.2559 78.1992 71.7734 77.7457 72.2579C77.2921 72.7424 76.8034 73.1919 76.2818 73.6022C75.7602 74.0145 75.2118 74.3836 74.6345 74.7134C74.0572 75.0413 73.4572 75.3258 72.8387 75.5629L58.7075 80.9915C58.7075 80.9915 71.0017 85.3294 71.9315 98.374Z" fill="#7F91BF"/>
<path d="M71.9316 211.378C78.7539 214.926 85.0093 214.926 90.6935 211.378V179.015L71.9316 170.516V211.378Z" fill="#E4EFFF"/>
<path d="M71.9316 211.378H90.6935V409.773H71.9316V211.378Z" fill="#3C3C4F"/>
<path d="M349.277 195.387C353.734 200.783 358.542 206.655 363.486 212.759C363.907 214.013 364.534 215.153 365.362 216.182C366.191 217.209 367.173 218.062 368.304 218.74C373.141 224.765 378.032 230.938 382.782 237.045C383.248 238.269 383.881 239.399 384.681 240.436C385.481 241.473 386.413 242.372 387.479 243.133C391.986 249.011 396.293 254.757 400.22 260.177C400.472 262.406 402.344 264.497 404.573 266.556C405.486 268.136 406.255 269.783 406.88 271.498C407.506 273.212 407.979 274.968 408.298 276.766C408.616 278.562 408.776 280.374 408.781 282.199C408.783 284.026 408.628 285.838 408.315 287.636C407.513 291.932 406.006 295.967 403.795 299.74L354.561 296.196C354.561 296.196 349.988 288.51 342.502 278.15C342.37 277.502 342.17 276.878 341.9 276.275C341.63 275.671 341.298 275.104 340.904 274.575C340.51 274.045 340.065 273.564 339.566 273.131C339.067 272.7 338.527 272.327 337.945 272.014C334.49 267.482 330.61 262.668 326.412 257.903C319.049 219.866 322.214 193.913 349.277 195.387Z" fill="#E4EFFF"/>
<path d="M357.162 289.481H402.837C403.569 289.481 404.287 289.578 404.992 289.772C405.695 289.966 406.361 290.25 406.99 290.623C407.619 290.999 408.186 291.448 408.691 291.976C409.198 292.504 409.625 293.087 409.973 293.73C410.322 294.374 410.579 295.05 410.746 295.761C410.911 296.475 410.979 297.196 410.95 297.926C410.922 298.656 410.798 299.371 410.575 300.068C410.355 300.765 410.045 301.419 409.647 302.033C400.784 315.706 385.636 337.74 370.489 353.544L364.246 360.551C348.548 367.967 324.553 349.911 336.324 331.848C338.039 321.04 340.418 310.379 343.463 299.868C343.672 299.126 343.94 298.406 344.265 297.707C344.591 297.011 344.973 296.343 345.406 295.705C345.841 295.068 346.323 294.47 346.853 293.912C347.385 293.353 347.958 292.842 348.57 292.376C349.185 291.91 349.832 291.497 350.512 291.137C351.195 290.776 351.9 290.473 352.63 290.227C353.36 289.98 354.106 289.794 354.865 289.671C355.626 289.545 356.391 289.481 357.162 289.481Z" fill="#D88783"/>
<path d="M330.783 331.85C329.618 331.85 328.464 331.959 327.317 332.178C326.173 332.396 325.06 332.72 323.975 333.149C322.893 333.58 321.858 334.105 320.874 334.73C319.891 335.355 318.974 336.066 318.124 336.864L303.989 350.135C304.834 353.257 305.921 356.29 307.25 359.236C308.582 362.18 310.139 365.003 311.922 367.697C313.706 370.394 315.693 372.93 317.885 375.305C320.074 377.682 322.441 379.868 324.983 381.864C325.377 382.179 325.786 382.476 326.208 382.752C326.633 383.028 327.068 383.286 327.515 383.521C327.961 383.756 328.418 383.971 328.886 384.162C329.354 384.356 329.829 384.525 330.313 384.672C330.798 384.82 331.286 384.944 331.781 385.045C332.276 385.146 332.775 385.222 333.278 385.276C333.781 385.329 334.284 385.358 334.791 385.364C335.296 385.371 335.799 385.352 336.305 385.309C336.808 385.268 337.309 385.202 337.805 385.111C338.302 385.022 338.795 384.909 339.282 384.773C339.768 384.637 340.249 384.478 340.719 384.294C341.191 384.113 341.653 383.909 342.106 383.684C342.558 383.457 342.999 383.212 343.428 382.944C343.857 382.676 344.271 382.389 344.673 382.082C345.075 381.777 345.463 381.451 345.834 381.107C346.205 380.765 346.558 380.404 346.896 380.027L364.239 360.551C359.008 361.399 353.749 361.083 349.271 358.463C333.571 349.278 336.317 331.848 336.317 331.848L330.783 331.85Z" fill="#874F4F"/>
<path d="M324.557 165.933L308.446 168.467L310.094 241.506C315.902 246.613 321.345 252.081 326.425 257.912C326.94 218.386 342.007 201.329 349.287 195.391C335.146 178.281 324.557 165.933 324.557 165.933Z" fill="#7F91BF"/>
<path d="M141.884 188.808C141.567 189.513 141.251 190.241 140.94 190.989C139.884 193.523 138.612 196.83 137.183 200.694C137.62 204.673 136.878 207.38 134.443 208.261C132.14 214.73 129.598 222.093 127.019 229.688C127.386 233.362 126.78 236.148 124.431 237.354C115.636 263.536 107.214 289.823 107.214 289.823L142.426 328.84L161.163 295.72C161.78 292.382 162.782 289.726 164.918 289.083L167.404 284.687C173.773 233.35 172.221 192.325 141.884 188.808Z" fill="#E4EFFF"/>
<path d="M137.598 199.581C142.826 203.09 155.413 209.865 160.97 224.262C161.897 226.734 162.559 229.278 162.959 231.888C163.357 234.5 163.483 237.125 163.334 239.762C162.955 247.743 162.675 267.325 167.41 284.681L185.698 252.355V165.933H161.229C161.229 165.933 145.985 174.84 137.598 199.581Z" fill="#7F91BF"/>
<path d="M191.867 353.546C191.867 353.546 170.873 370.023 164.531 409.773H334.88C334.88 409.773 330.489 364.856 308.329 353.546C308.329 353.546 254.08 335.724 191.867 353.546Z" fill="#D88783"/>
<path d="M173.46 168.799V264.167C173.46 264.167 173.868 292.407 187.368 308.779C187.368 308.779 177.142 321.467 191.867 328.836C229.141 333.015 268.121 332.697 308.446 328.836C308.446 328.836 320.308 320.24 308.446 307.142C308.446 307.142 316.627 298.138 316.627 271.123V165.933L173.46 168.799Z" fill="#D88783"/>
<path d="M187.368 308.779C187.368 308.779 177.142 321.467 191.867 328.836C229.141 333.015 268.123 332.697 308.446 328.836C308.446 328.836 320.308 320.24 308.446 307.142C308.446 307.142 291.522 315.129 245.044 317.719C198.566 320.306 187.368 308.779 187.368 308.779Z" fill="#874F4F"/>
<path d="M316.627 189.482V165.933L173.46 168.797V194.412C177.75 197.241 183.932 202.422 191.867 211.918C191.867 211.918 210.314 234.078 247.928 226.843C247.928 226.843 278.025 219.464 300.3 199.406C305.207 195.216 310.648 191.907 316.627 189.482Z" fill="#874F4F"/>
<path d="M226.061 227.919V237.42H206.223C205.897 237.42 205.573 237.453 205.252 237.517C204.932 237.581 204.621 237.674 204.32 237.799C204.019 237.925 203.732 238.078 203.46 238.259C203.188 238.441 202.937 238.647 202.706 238.878C202.475 239.109 202.269 239.36 202.087 239.632C201.906 239.904 201.753 240.191 201.627 240.494C201.504 240.795 201.409 241.106 201.345 241.426C201.281 241.748 201.25 242.071 201.25 242.397V267.239C201.25 267.567 201.281 267.89 201.345 268.21C201.409 268.532 201.504 268.843 201.627 269.144C201.753 269.445 201.906 269.734 202.087 270.004C202.269 270.276 202.475 270.527 202.706 270.758C202.937 270.989 203.188 271.195 203.46 271.377C203.732 271.558 204.019 271.713 204.32 271.837C204.621 271.962 204.932 272.057 205.254 272.119C205.573 272.183 205.897 272.216 206.223 272.216H226.061V318.005C239.314 320.413 251.864 320.316 263.319 316.304V272.216H283.153C283.481 272.216 283.802 272.185 284.124 272.121C284.443 272.057 284.755 271.962 285.056 271.839C285.359 271.713 285.645 271.56 285.915 271.379C286.188 271.198 286.439 270.991 286.67 270.76C286.901 270.529 287.107 270.278 287.289 270.006C287.47 269.734 287.623 269.447 287.748 269.146C287.874 268.843 287.967 268.532 288.031 268.212C288.095 267.89 288.128 267.567 288.128 267.241V242.399C288.128 242.071 288.095 241.75 288.031 241.428C287.969 241.108 287.874 240.797 287.748 240.494C287.625 240.193 287.47 239.906 287.289 239.634C287.107 239.362 286.901 239.111 286.67 238.88C286.439 238.649 286.188 238.443 285.918 238.261C285.645 238.08 285.359 237.925 285.056 237.801C284.755 237.676 284.443 237.581 284.124 237.517C283.802 237.453 283.481 237.422 283.153 237.422H263.317V221.656L226.061 227.919Z" fill="white"/>
<path d="M245.043 317.719C237.91 318.114 231.615 318.176 226.053 318.001V331.409C238.314 331.905 250.732 331.984 263.313 331.641V316.302C257.808 316.857 251.742 317.343 245.043 317.719Z" fill="#DED9D9"/>
<path d="M245.405 167.36L226.057 167.741V227.913C228.832 228.208 231.614 228.33 234.403 228.282C242.027 228.097 249.429 226.724 256.612 224.163C258.6 223.47 260.859 222.635 263.317 221.65V167.001L245.405 167.36Z" fill="#DED9D9"/>
<path d="M145.808 154.266C145.371 154.507 144.956 154.781 144.562 155.089C144.169 155.396 143.802 155.732 143.463 156.099C143.123 156.464 142.814 156.853 142.538 157.27C142.259 157.684 142.018 158.119 141.81 158.573C141.602 159.026 141.431 159.494 141.299 159.975C141.165 160.457 141.07 160.946 141.016 161.441C140.96 161.938 140.944 162.435 140.969 162.933C140.993 163.432 141.057 163.925 141.16 164.414C141.264 164.902 141.404 165.381 141.583 165.847C141.762 166.313 141.977 166.76 142.228 167.193C142.48 167.624 142.762 168.032 143.08 168.418C143.395 168.805 143.74 169.164 144.113 169.494C144.486 169.826 144.884 170.125 145.305 170.393C145.727 170.661 146.166 170.892 146.624 171.09C147.084 171.288 147.554 171.446 148.038 171.568C148.521 171.69 149.012 171.774 149.508 171.817C157.287 172.502 167.703 175.856 180.628 185.297C211.934 208.164 221.952 208.791 241.677 208.791C261.399 208.791 288.948 188.742 288.948 188.742C288.948 188.742 306.72 173.3 338.222 172.747C346.999 172.593 351.714 162.133 345.803 155.645C339.997 149.27 330.113 143.056 313.289 140.537C312.075 140.359 310.879 140.102 309.702 139.757C308.522 139.415 307.374 138.995 306.255 138.491C305.133 137.99 304.055 137.413 303.013 136.762C301.974 136.11 300.983 135.391 300.042 134.603C299.102 133.813 298.22 132.964 297.397 132.055C296.575 131.143 295.818 130.181 295.129 129.164C294.439 128.15 293.822 127.092 293.28 125.991C292.736 124.89 292.272 123.756 291.884 122.591C290.286 117.513 289.517 112.311 289.575 106.986V65.9449C289.575 65.0852 289.552 64.2234 289.511 63.3636C289.468 62.5039 289.406 61.6441 289.321 60.7865C289.237 59.9308 289.132 59.0752 289.006 58.2237C288.878 57.3722 288.732 56.5228 288.565 55.6775C288.396 54.8342 288.208 53.993 287.998 53.158C287.79 52.323 287.561 51.4921 287.309 50.6695C287.06 49.8448 286.79 49.0263 286.501 48.216C286.21 47.4058 285.901 46.6017 285.571 45.8058C285.241 45.01 284.893 44.2224 284.526 43.4451C284.157 42.6658 283.771 41.8968 283.365 41.136C282.959 40.3773 282.534 39.6289 282.093 38.8887C281.65 38.1506 281.19 37.4228 280.712 36.7074C280.233 35.9919 279.736 35.2868 279.225 34.5961C278.712 33.9034 278.182 33.2251 277.635 32.5591C277.091 31.8932 276.528 31.2417 275.951 30.6025C275.372 29.9655 274.778 29.3408 274.17 28.7325C273.561 28.1223 272.939 27.5285 272.3 26.9512C271.663 26.3719 271.011 25.8111 270.345 25.2647C269.681 24.7163 269.003 24.1885 268.31 23.6751C267.62 23.1617 266.916 22.6648 266.201 22.1865C265.484 21.7082 264.758 21.2484 264.02 20.8051C263.282 20.3619 262.533 19.9372 261.772 19.531C261.014 19.1269 260.245 18.7393 259.467 18.3702C258.69 18.0032 257.903 17.6527 257.107 17.3229C256.313 16.995 255.509 16.6837 254.699 16.3951C253.888 16.1044 253.072 15.8343 252.247 15.5848C251.425 15.3333 250.594 15.1044 249.759 14.8941C248.924 14.6859 248.084 14.4962 247.241 14.3292C246.396 14.1601 245.549 14.0138 244.697 13.888C243.846 13.7602 242.992 13.655 242.134 13.5705C241.279 13.486 240.421 13.4241 239.561 13.3808C238.702 13.3396 237.84 13.3169 236.98 13.3169C236.12 13.3169 235.258 13.3396 234.399 13.3808C233.539 13.4241 232.681 13.486 231.826 13.5705C230.968 13.655 230.114 13.7602 229.263 13.888C228.411 14.0138 227.564 14.1601 226.719 14.3292C225.875 14.4962 225.034 14.6859 224.201 14.8941C223.366 15.1044 222.535 15.3333 221.713 15.5848C220.888 15.8343 220.072 16.1044 219.261 16.3951C218.451 16.6837 217.647 16.995 216.853 17.3229C216.057 17.6527 215.27 18.0032 214.493 18.3702C213.715 18.7393 212.946 19.1269 212.187 19.531C211.427 19.9372 210.678 20.3619 209.94 20.8051C209.202 21.2484 208.474 21.7082 207.759 22.1865C207.043 22.6648 206.34 23.1617 205.65 23.6751C204.957 24.1885 204.279 24.7163 203.613 25.2626C202.949 25.809 202.297 26.3719 201.658 26.9512C201.021 27.5285 200.398 28.1223 199.79 28.7325C199.18 29.3408 198.588 29.9655 198.009 30.6025C197.432 31.2417 196.869 31.8932 196.322 32.5591C195.776 33.2251 195.248 33.9034 194.735 34.5961C194.221 35.2868 193.727 35.9899 193.248 36.7074C192.77 37.4228 192.31 38.1506 191.867 38.8887C191.424 39.6289 191.001 40.3773 190.595 41.136C190.189 41.8968 189.803 42.6658 189.434 43.4451C189.065 44.2224 188.717 45.01 188.389 45.8058C188.059 46.6017 187.75 47.4058 187.459 48.216C187.168 49.0263 186.898 49.8448 186.649 50.6674C186.399 51.4921 186.17 52.323 185.96 53.158C185.752 53.993 185.562 54.8342 185.395 55.6775C185.226 56.5228 185.08 57.3722 184.954 58.2237C184.828 59.0752 184.721 59.9308 184.638 60.7865C184.554 61.6441 184.49 62.5039 184.447 63.3636C184.406 64.2234 184.385 65.0852 184.385 65.9449V103.316C184.414 107.489 183.993 111.617 183.119 115.699C182.245 119.779 180.94 123.717 179.202 127.513C175.866 134.659 170.466 142.207 161.844 146.454C155.341 149.654 150.03 151.969 145.808 154.266Z" fill="#E4EFFF"/>
<path d="M203.817 108.938V126.882C203.811 127.799 203.842 128.715 203.91 129.63C203.978 130.543 204.083 131.453 204.225 132.36C204.368 133.265 204.547 134.164 204.761 135.054C204.978 135.945 205.229 136.828 205.516 137.698C205.803 138.568 206.124 139.427 206.481 140.271C206.838 141.116 207.227 141.945 207.652 142.757C208.075 143.569 208.532 144.363 209.021 145.14C209.51 145.916 210.029 146.67 210.578 147.404C211.128 148.136 211.707 148.848 212.316 149.532C212.922 150.219 213.557 150.88 214.219 151.513C214.88 152.148 215.565 152.755 216.276 153.334C216.988 153.913 217.72 154.462 218.476 154.981C219.231 155.501 220.006 155.987 220.802 156.443C221.596 156.899 222.408 157.321 223.237 157.711C224.068 158.103 224.911 158.457 225.769 158.779C226.628 159.098 227.498 159.385 228.379 159.635C237.741 161.938 250.171 159.247 258.218 152.794C257.695 165.929 249.51 171.011 245.258 174.854C245.033 175.063 244.848 175.302 244.699 175.57C244.551 175.838 244.446 176.122 244.388 176.425C244.33 176.726 244.32 177.029 244.359 177.333C244.398 177.638 244.483 177.928 244.613 178.205C244.745 178.483 244.916 178.732 245.126 178.955C245.337 179.178 245.578 179.363 245.846 179.51C246.116 179.656 246.4 179.757 246.703 179.813C247.005 179.866 247.308 179.875 247.611 179.833C247.829 179.805 248.046 179.774 248.26 179.741C249.004 179.617 249.743 179.46 250.474 179.271C251.206 179.081 251.928 178.86 252.639 178.607C253.351 178.353 254.049 178.071 254.736 177.755C255.423 177.44 256.095 177.095 256.75 176.72C257.408 176.345 258.045 175.943 258.666 175.512C259.286 175.081 259.888 174.623 260.468 174.139C261.047 173.656 261.606 173.147 262.14 172.613C262.676 172.081 263.187 171.525 263.674 170.945C264.158 170.368 264.618 169.768 265.051 169.149C265.486 168.529 265.89 167.892 266.267 167.238C266.645 166.583 266.991 165.913 267.309 165.226C267.626 164.539 267.913 163.843 268.168 163.131C268.426 162.42 268.649 161.698 268.84 160.966C269.034 160.237 269.193 159.498 269.321 158.752C269.447 158.008 269.541 157.259 269.601 156.505C269.663 155.752 269.69 154.998 269.684 154.241V123.305L203.817 108.938Z" fill="#7F91BF"/>
<path d="M236.753 141.893C235.675 141.893 234.599 141.842 233.525 141.735C232.452 141.629 231.387 141.471 230.329 141.26C229.271 141.05 228.226 140.788 227.193 140.475C226.16 140.161 225.146 139.799 224.15 139.386C223.154 138.972 222.179 138.512 221.228 138.003C220.276 137.494 219.352 136.939 218.455 136.341C217.558 135.741 216.695 135.098 215.86 134.413C215.027 133.729 214.227 133.005 213.466 132.242C212.703 131.479 211.979 130.68 211.295 129.847C210.61 129.012 209.969 128.146 209.369 127.249C208.769 126.35 208.217 125.426 207.707 124.474C207.198 123.523 206.738 122.548 206.326 121.55C205.912 120.554 205.549 119.538 205.235 118.505C204.924 117.472 204.662 116.427 204.452 115.369C204.24 114.309 204.083 113.243 203.976 112.169C203.87 111.095 203.817 110.019 203.817 108.938V70.9219C203.817 70.2416 203.838 69.5674 203.881 68.8953C228.24 65.5758 250.251 70.9426 269.69 85.8077V108.938C269.69 110.019 269.636 111.095 269.531 112.169C269.426 113.243 269.267 114.309 269.057 115.369C268.846 116.427 268.584 117.472 268.271 118.505C267.958 119.538 267.595 120.554 267.182 121.55C266.768 122.548 266.308 123.523 265.799 124.474C265.292 125.426 264.737 126.352 264.137 127.249C263.539 128.146 262.898 129.012 262.214 129.847C261.529 130.68 260.806 131.479 260.043 132.242C259.28 133.005 258.482 133.729 257.647 134.413C256.814 135.098 255.948 135.741 255.051 136.341C254.154 136.941 253.231 137.494 252.278 138.003C251.328 138.512 250.355 138.972 249.357 139.386C248.361 139.799 247.346 140.161 246.314 140.475C245.283 140.788 244.237 141.05 243.18 141.26C242.12 141.471 241.056 141.629 239.982 141.735C238.908 141.842 237.832 141.893 236.753 141.893Z" fill="#FFD7CD"/>
<path d="M127.867 290.149L141.253 303.064C142.631 304.383 143.934 305.771 145.167 307.226C146.4 308.684 147.552 310.199 148.626 311.777C149.7 313.352 150.69 314.981 151.593 316.661C152.496 318.341 153.311 320.063 154.036 321.83C154.76 323.595 155.389 325.392 155.927 327.223C156.463 329.054 156.902 330.908 157.244 332.786C157.589 334.662 157.832 336.551 157.978 338.454C158.123 340.357 158.17 342.262 158.116 344.169C157.962 349.55 157.434 354.894 156.535 360.201C156.49 360.461 156.438 360.716 156.378 360.972C156.319 361.228 156.251 361.481 156.174 361.733C156.1 361.984 156.018 362.234 155.927 362.481C155.836 362.727 155.739 362.972 155.634 363.211C155.529 363.452 155.416 363.689 155.298 363.924C155.179 364.157 155.053 364.388 154.919 364.613C154.785 364.84 154.647 365.062 154.5 365.281C154.352 365.497 154.199 365.712 154.04 365.92C153.882 366.128 153.715 366.332 153.544 366.53C153.372 366.73 153.195 366.922 153.012 367.11C152.828 367.299 152.638 367.481 152.445 367.658C152.251 367.833 152.051 368.005 151.847 368.17C151.643 368.334 151.432 368.491 151.22 368.644C151.006 368.796 150.787 368.941 150.564 369.079C150.342 369.219 150.115 369.351 149.884 369.475C149.653 369.6 149.418 369.718 149.181 369.829C148.942 369.941 148.701 370.044 148.457 370.141C148.214 370.237 147.967 370.326 147.717 370.407C147.468 370.489 147.216 370.561 146.962 370.629C146.707 370.695 146.451 370.753 146.193 370.804C145.938 370.854 145.678 370.897 145.418 370.932C145.158 370.969 144.897 370.996 144.635 371.015C144.373 371.035 144.111 371.046 143.849 371.05C143.587 371.054 143.326 371.05 143.062 371.037C142.8 371.025 142.538 371.004 142.278 370.978C142.016 370.949 141.757 370.914 141.499 370.87C141.239 370.827 140.981 370.776 140.726 370.716C140.47 370.656 140.216 370.59 139.965 370.516C139.713 370.442 139.464 370.359 139.219 370.27C138.971 370.18 138.728 370.083 138.487 369.98C138.245 369.875 138.008 369.763 137.773 369.646C137.54 369.526 137.309 369.402 137.083 369.268C127.79 363.815 119.329 357.284 111.696 349.674C99.8702 318.053 108.206 300.229 127.867 290.149Z" fill="#D88783"/>
<path d="M258.072 409.771V376.214C258.072 357.756 250.654 347.018 250.338 346.571C250.076 346.208 249.765 345.894 249.404 345.626C247.617 345.626 245.802 345.651 243.961 345.699C243.745 345.872 243.547 346.063 243.368 346.274C243.188 346.484 243.029 346.711 242.891 346.95C242.755 347.191 242.64 347.443 242.549 347.705C242.458 347.966 242.394 348.234 242.353 348.507C242.314 348.781 242.3 349.057 242.31 349.333C242.322 349.61 242.357 349.884 242.421 350.154C242.483 350.424 242.57 350.686 242.681 350.939C242.792 351.193 242.926 351.434 243.083 351.661C243.145 351.75 249.211 360.739 249.211 376.214V409.771H258.072Z" fill="#874F4F"/>
<path d="M231.622 101.347C231.622 101.644 231.593 101.937 231.535 102.227C231.477 102.518 231.393 102.798 231.279 103.073C231.166 103.347 231.028 103.607 230.863 103.852C230.698 104.097 230.513 104.326 230.302 104.534C230.094 104.745 229.865 104.932 229.62 105.095C229.374 105.26 229.115 105.4 228.84 105.512C228.568 105.625 228.286 105.712 227.995 105.769C227.706 105.827 227.412 105.856 227.117 105.856C226.82 105.856 226.527 105.827 226.239 105.769C225.948 105.712 225.665 105.625 225.393 105.512C225.119 105.4 224.859 105.26 224.614 105.095C224.366 104.932 224.14 104.745 223.931 104.534C223.721 104.326 223.536 104.097 223.371 103.852C223.206 103.607 223.068 103.347 222.954 103.073C222.841 102.798 222.754 102.518 222.696 102.227C222.639 101.937 222.61 101.644 222.61 101.347C222.61 101.052 222.639 100.757 222.696 100.469C222.754 100.178 222.841 99.8955 222.954 99.6212C223.068 99.3491 223.206 99.0893 223.371 98.8419C223.536 98.5966 223.721 98.3677 223.931 98.1595C224.14 97.9492 224.366 97.7636 224.614 97.5987C224.859 97.4337 225.119 97.2956 225.393 97.1822C225.665 97.0688 225.948 96.9822 226.239 96.9245C226.527 96.8668 226.82 96.8379 227.117 96.8379C227.412 96.8379 227.706 96.8668 227.995 96.9245C228.286 96.9822 228.568 97.0688 228.84 97.1822C229.115 97.2956 229.374 97.4337 229.62 97.5987C229.865 97.7636 230.094 97.9492 230.302 98.1595C230.513 98.3677 230.698 98.5966 230.863 98.8419C231.028 99.0893 231.166 99.3491 231.279 99.6212C231.393 99.8955 231.477 100.178 231.535 100.469C231.593 100.757 231.622 101.052 231.622 101.347Z" fill="#3C3C4F"/>
<path d="M252.435 101.347C252.435 101.644 252.406 101.937 252.348 102.227C252.29 102.518 252.204 102.798 252.09 103.073C251.977 103.347 251.839 103.607 251.674 103.852C251.511 104.097 251.323 104.326 251.115 104.534C250.905 104.745 250.678 104.932 250.431 105.095C250.185 105.26 249.926 105.4 249.653 105.512C249.379 105.625 249.097 105.712 248.808 105.769C248.517 105.827 248.225 105.856 247.928 105.856C247.633 105.856 247.34 105.827 247.049 105.769C246.759 105.712 246.478 105.625 246.204 105.512C245.93 105.4 245.67 105.26 245.425 105.095C245.179 104.932 244.951 104.745 244.742 104.534C244.534 104.326 244.347 104.097 244.182 103.852C244.017 103.607 243.878 103.347 243.765 103.073C243.652 102.798 243.567 102.518 243.509 102.227C243.452 101.937 243.423 101.644 243.423 101.347C243.423 101.052 243.452 100.757 243.509 100.469C243.567 100.178 243.652 99.8955 243.765 99.6212C243.878 99.3491 244.017 99.0893 244.182 98.8419C244.347 98.5966 244.534 98.3677 244.742 98.1595C244.951 97.9492 245.179 97.7636 245.425 97.5987C245.67 97.4337 245.93 97.2956 246.204 97.1822C246.478 97.0688 246.759 96.9822 247.049 96.9245C247.34 96.8668 247.633 96.8379 247.928 96.8379C248.225 96.8379 248.517 96.8668 248.808 96.9245C249.097 96.9822 249.379 97.0688 249.653 97.1822C249.926 97.2956 250.185 97.4337 250.431 97.5987C250.678 97.7636 250.905 97.9492 251.115 98.1595C251.323 98.3677 251.511 98.5966 251.674 98.8419C251.839 99.0893 251.977 99.3491 252.09 99.6212C252.204 99.8955 252.29 100.178 252.348 100.469C252.406 100.757 252.435 101.052 252.435 101.347Z" fill="#3C3C4F"/>
<path d="M115.226 277.956C89.1445 275.88 81.7388 301.577 81.7388 301.577C83.2727 306.092 85.0623 310.507 87.1034 314.816C89.1446 319.127 91.4269 323.306 93.9484 327.353C96.4699 331.4 99.2141 335.291 102.183 339.023C105.152 342.754 108.323 346.305 111.7 349.671C105.863 313.781 121.99 295.487 127.866 290.149L115.226 277.956Z" fill="#874F4F"/>
<path d="M101.283 252.355H114.525C115.018 252.355 115.507 252.405 115.989 252.5C116.474 252.596 116.942 252.739 117.397 252.928C117.853 253.116 118.286 253.349 118.696 253.623C119.104 253.895 119.484 254.207 119.832 254.557C120.183 254.906 120.492 255.285 120.766 255.695C121.04 256.106 121.271 256.539 121.461 256.994C121.649 257.45 121.791 257.92 121.888 258.402C121.985 258.887 122.032 259.375 122.032 259.868V277.067C122.032 277.56 121.985 278.049 121.888 278.531C121.791 279.016 121.649 279.486 121.461 279.941C121.271 280.397 121.04 280.83 120.766 281.238C120.492 281.648 120.181 282.028 119.832 282.378C119.484 282.727 119.104 283.038 118.694 283.312C118.286 283.584 117.853 283.817 117.397 284.005C116.942 284.195 116.472 284.337 115.989 284.432C115.505 284.529 115.018 284.576 114.525 284.576H96.5469L101.283 252.355Z" fill="#874F4F"/>
<path d="M71.2675 252.355H103.763V291.99C103.763 292.37 103.744 292.747 103.707 293.124C103.67 293.501 103.614 293.875 103.54 294.246C103.468 294.619 103.375 294.986 103.266 295.347C103.154 295.71 103.029 296.066 102.882 296.417C102.738 296.765 102.577 297.107 102.398 297.441C102.22 297.775 102.025 298.101 101.814 298.415C101.604 298.73 101.379 299.035 101.14 299.328C100.899 299.621 100.645 299.901 100.377 300.167C100.109 300.435 99.8309 300.691 99.5381 300.93C99.2453 301.171 98.9402 301.396 98.6268 301.606C98.3114 301.816 97.9877 302.01 97.6537 302.19C97.3197 302.369 96.9774 302.53 96.629 302.674C96.2785 302.821 95.9218 302.946 95.561 303.058C95.1981 303.167 94.8311 303.26 94.46 303.332C94.0889 303.406 93.7157 303.462 93.3384 303.499C92.9611 303.536 92.5838 303.554 92.2045 303.554H71.2675C70.8902 303.554 70.5108 303.536 70.1356 303.499C69.7583 303.462 69.3851 303.406 69.014 303.332C68.6429 303.26 68.2759 303.167 67.913 303.058C67.5502 302.946 67.1956 302.821 66.8451 302.674C66.4946 302.53 66.1544 302.369 65.8204 302.19C65.4864 302.01 65.1627 301.816 64.8472 301.606C64.5318 301.396 64.2287 301.171 63.9359 300.93C63.6432 300.691 63.3628 300.435 63.0947 300.167C62.8288 299.901 62.5731 299.621 62.334 299.328C62.0948 299.035 61.868 298.73 61.6577 298.415C61.4474 298.101 61.2536 297.775 61.0742 297.441C60.8969 297.107 60.7361 296.765 60.5897 296.417C60.4454 296.066 60.3176 295.71 60.2083 295.347C60.099 294.986 60.0063 294.619 59.932 294.246C59.8578 293.875 59.8042 293.501 59.7671 293.124C59.73 292.747 59.7114 292.37 59.7114 291.99V263.922C59.7114 263.542 59.73 263.165 59.7671 262.788C59.8042 262.41 59.8578 262.035 59.932 261.664C60.0063 261.293 60.099 260.926 60.2083 260.563C60.3176 260.202 60.4454 259.846 60.5897 259.495C60.7361 259.145 60.8969 258.802 61.0742 258.468C61.2536 258.134 61.4474 257.811 61.6577 257.495C61.868 257.182 62.0948 256.877 62.334 256.584C62.5731 256.291 62.8288 256.011 63.0947 255.743C63.3628 255.475 63.6432 255.221 63.9359 254.982C64.2287 254.741 64.5318 254.516 64.8472 254.306C65.1627 254.095 65.4864 253.899 65.8204 253.722C66.1544 253.543 66.4946 253.382 66.8451 253.236C67.1956 253.091 67.5502 252.963 67.913 252.854C68.2759 252.745 68.6429 252.652 69.014 252.578C69.3851 252.504 69.7583 252.448 70.1356 252.411C70.5108 252.374 70.8902 252.355 71.2675 252.355Z" fill="#D88783"/>
<path d="M191.867 328.836H239.792V353.544H191.867V328.836Z" fill="#3C3C4F"/>
<path d="M253.641 328.836H308.446L308.329 353.544H253.641V328.836Z" fill="#3C3C4F"/>
<path d="M239.792 328.836H253.643C253.959 328.836 254.276 328.85 254.589 328.881C254.905 328.914 255.218 328.959 255.53 329.021C255.841 329.083 256.148 329.159 256.451 329.252C256.754 329.345 257.051 329.45 257.344 329.572C257.637 329.693 257.923 329.829 258.202 329.978C258.482 330.128 258.754 330.291 259.016 330.467C259.28 330.644 259.534 330.831 259.779 331.034C260.024 331.233 260.259 331.446 260.482 331.671C260.707 331.895 260.919 332.128 261.121 332.374C261.321 332.619 261.509 332.875 261.686 333.136C261.861 333.4 262.024 333.673 262.175 333.953C262.323 334.231 262.459 334.518 262.579 334.811C262.7 335.103 262.808 335.402 262.9 335.705C262.991 336.008 263.067 336.316 263.129 336.627C263.191 336.938 263.238 337.25 263.269 337.567C263.3 337.883 263.317 338.198 263.317 338.516V343.864C263.317 344.181 263.3 344.499 263.269 344.814C263.238 345.13 263.191 345.443 263.129 345.752C263.067 346.064 262.991 346.371 262.9 346.674C262.808 346.977 262.7 347.276 262.579 347.569C262.459 347.861 262.323 348.148 262.175 348.428C262.024 348.707 261.861 348.979 261.686 349.243C261.509 349.507 261.321 349.76 261.121 350.006C260.919 350.251 260.707 350.486 260.482 350.709C260.259 350.933 260.024 351.146 259.779 351.348C259.534 351.548 259.28 351.738 259.016 351.913C258.754 352.09 258.482 352.251 258.202 352.401C257.923 352.55 257.637 352.686 257.344 352.808C257.051 352.929 256.754 353.036 256.451 353.127C256.148 353.22 255.841 353.296 255.53 353.358C255.218 353.42 254.905 353.467 254.589 353.498C254.276 353.529 253.959 353.544 253.643 353.544H239.792C239.475 353.544 239.159 353.529 238.844 353.498C238.529 353.467 238.215 353.42 237.904 353.358C237.595 353.296 237.287 353.22 236.984 353.127C236.681 353.036 236.382 352.929 236.089 352.808C235.797 352.686 235.512 352.55 235.232 352.401C234.951 352.251 234.681 352.09 234.417 351.913C234.153 351.738 233.9 351.548 233.655 351.348C233.409 351.146 233.176 350.933 232.951 350.709C232.727 350.486 232.514 350.251 232.314 350.006C232.112 349.76 231.925 349.507 231.749 349.243C231.572 348.979 231.409 348.707 231.261 348.428C231.11 348.148 230.976 347.861 230.855 347.569C230.733 347.276 230.626 346.977 230.535 346.674C230.442 346.371 230.366 346.064 230.304 345.752C230.242 345.443 230.195 345.13 230.164 344.814C230.133 344.499 230.119 344.181 230.119 343.864V338.516C230.119 338.198 230.133 337.883 230.164 337.567C230.195 337.25 230.242 336.938 230.304 336.627C230.366 336.316 230.442 336.008 230.535 335.705C230.626 335.402 230.733 335.103 230.855 334.811C230.976 334.518 231.11 334.231 231.261 333.953C231.409 333.673 231.572 333.4 231.749 333.136C231.925 332.875 232.112 332.619 232.314 332.374C232.514 332.128 232.727 331.895 232.951 331.671C233.176 331.446 233.409 331.233 233.655 331.034C233.9 330.831 234.153 330.644 234.417 330.467C234.681 330.291 234.951 330.128 235.232 329.978C235.512 329.829 235.797 329.693 236.089 329.572C236.382 329.45 236.681 329.345 236.984 329.252C237.287 329.159 237.595 329.083 237.904 329.021C238.215 328.959 238.529 328.914 238.844 328.881C239.159 328.85 239.475 328.836 239.792 328.836Z" fill="#E4EFFF"/>
<path d="M205.353 60.9512C204.539 63.5387 204.054 66.188 203.897 68.8951C204.258 76.3792 206.13 89.2733 232.364 93.1535C232.661 93.1968 232.96 93.2133 233.261 93.201C233.562 93.1907 233.859 93.1515 234.154 93.0834C234.446 93.0175 234.731 92.9247 235.007 92.8051C235.283 92.6855 235.547 92.5412 235.797 92.3721C236.046 92.2031 236.277 92.0134 236.492 91.8031C236.706 91.5907 236.9 91.3619 237.073 91.1145C237.244 90.8671 237.393 90.6052 237.514 90.331C237.638 90.0568 237.737 89.7723 237.807 89.4795L238.665 85.923C241.163 86.7745 243.716 87.4116 246.32 87.8384C248.924 88.2652 251.546 88.4713 254.185 88.461C256.824 88.4507 259.443 88.2219 262.045 87.7745C264.645 87.3271 267.191 86.6673 269.684 85.7952V80.4367C253.606 64.8603 232.55 58.5926 205.353 60.9512Z" fill="#F79089"/>
<path d="M236.754 37.9651C235.886 37.9651 235.02 37.9981 234.156 38.0682C233.29 38.1362 232.43 38.2393 231.572 38.3754C230.717 38.5115 229.867 38.6826 229.024 38.8846C228.181 39.0887 227.346 39.3258 226.521 39.5959C225.697 39.866 224.884 40.167 224.084 40.501C223.282 40.835 222.497 41.2 221.726 41.5958C220.952 41.9917 220.198 42.4185 219.46 42.8741C218.722 43.3297 218.002 43.8143 217.301 44.3256C216.602 44.8389 215.924 45.3771 215.266 45.944C214.608 46.511 213.973 47.1007 213.363 47.7171C212.753 48.3336 212.167 48.9727 211.607 49.6366C211.046 50.2984 210.512 50.9829 210.007 51.688C209.499 52.3911 209.023 53.1148 208.574 53.8591C208.124 54.6013 207.704 55.36 207.316 56.1352C206.926 56.9104 206.568 57.7001 206.24 58.5042C205.914 59.3082 205.619 60.1247 205.357 60.9515C207.683 67.6336 213.47 76.365 227.826 80.9937L232.405 66.4811C232.405 66.4811 241.648 81.5483 269.69 80.437V70.922C269.69 69.8438 269.636 68.7675 269.531 67.6934C269.426 66.6192 269.267 65.5512 269.057 64.4935C268.847 63.4338 268.585 62.3885 268.271 61.3556C267.958 60.3226 267.595 59.3083 267.183 58.3104C266.771 57.3125 266.309 56.3393 265.802 55.3868C265.292 54.4343 264.74 53.5106 264.14 52.6117C263.54 51.7149 262.899 50.8489 262.214 50.0139C261.53 49.181 260.806 48.381 260.043 47.6182C259.28 46.8553 258.482 46.1317 257.649 45.4451C256.814 44.7606 255.951 44.1194 255.052 43.5194C254.155 42.9195 253.231 42.3648 252.281 41.8556C251.328 41.3484 250.355 40.8866 249.359 40.4742C248.361 40.0598 247.347 39.697 246.314 39.3836C245.283 39.0702 244.238 38.8083 243.18 38.598C242.122 38.3877 241.056 38.229 239.982 38.1238C238.908 38.0166 237.832 37.9651 236.754 37.9651Z" fill="#3C3C4F"/>
<path d="M253.641 328.836H252.088L242.293 353.537H253.641C253.958 353.537 254.274 353.523 254.589 353.492C254.905 353.461 255.218 353.414 255.527 353.352C255.839 353.29 256.146 353.214 256.449 353.121C256.752 353.03 257.051 352.923 257.344 352.801C257.636 352.68 257.923 352.546 258.201 352.395C258.482 352.247 258.752 352.084 259.016 351.907C259.28 351.731 259.533 351.542 259.779 351.342C260.024 351.14 260.259 350.927 260.482 350.703C260.706 350.478 260.919 350.245 261.121 349.999C261.321 349.754 261.51 349.498 261.686 349.237C261.861 348.973 262.024 348.701 262.174 348.42C262.323 348.142 262.459 347.855 262.581 347.563C262.7 347.27 262.807 346.971 262.9 346.668C262.991 346.365 263.069 346.057 263.129 345.746C263.191 345.435 263.238 345.121 263.269 344.806C263.3 344.491 263.317 344.175 263.317 343.858V338.509C263.314 338.192 263.3 337.876 263.269 337.561C263.238 337.246 263.191 336.932 263.129 336.621C263.067 336.31 262.989 336.002 262.898 335.699C262.805 335.396 262.698 335.099 262.576 334.807C262.457 334.514 262.321 334.227 262.17 333.949C262.022 333.668 261.859 333.396 261.684 333.134C261.506 332.871 261.319 332.617 261.117 332.372C260.917 332.126 260.704 331.891 260.48 331.669C260.255 331.444 260.022 331.231 259.777 331.029C259.531 330.829 259.278 330.642 259.014 330.464C258.75 330.289 258.48 330.126 258.199 329.978C257.921 329.827 257.634 329.693 257.342 329.572C257.049 329.45 256.752 329.343 256.449 329.252C256.146 329.159 255.839 329.083 255.527 329.021C255.216 328.959 254.905 328.912 254.589 328.881C254.274 328.85 253.958 328.836 253.641 328.836Z" fill="#7F91BF"/>
<path d="M6.23382 206.904C6.49566 206.939 6.75956 206.954 7.02347 206.943C7.28737 206.933 7.54921 206.898 7.80899 206.84C8.06671 206.785 8.31824 206.704 8.56153 206.601C8.80687 206.5 9.03985 206.376 9.26252 206.232C9.48519 206.09 9.69136 205.927 9.88517 205.745C10.079 205.564 10.2542 205.368 10.413 205.156C10.5717 204.943 10.7099 204.719 10.8274 204.482C10.9449 204.244 11.0418 203.999 11.116 203.743C16.8724 184.742 39.4835 162.406 67.5006 157.239V248.391C66.6367 248.601 65.7955 248.881 64.9791 249.232C64.1605 249.582 63.3791 249.997 62.6307 250.479C61.8823 250.959 61.1793 251.5 60.5216 252.098C59.8639 252.695 59.2598 253.345 58.7093 254.044C58.1588 254.743 57.6702 255.483 57.2434 256.262C56.8166 257.044 56.4579 257.854 56.1672 258.695C55.8744 259.534 55.6538 260.394 55.5054 261.27C55.3569 262.149 55.2827 263.031 55.2806 263.922V291.99C55.2827 292.881 55.3569 293.763 55.5054 294.642C55.6559 295.518 55.8744 296.376 56.1672 297.217C56.4579 298.058 56.8187 298.868 57.2455 299.648C57.6722 300.429 58.1609 301.169 58.7093 301.868C59.2598 302.567 59.8639 303.214 60.5216 303.814C61.1793 304.412 61.8823 304.952 62.6307 305.433C63.3791 305.913 64.1605 306.33 64.9791 306.68C65.7955 307.031 66.6367 307.311 67.5006 307.521V409.771C67.5006 410.064 67.5294 410.353 67.5851 410.637C67.6428 410.924 67.7253 411.2 67.8366 411.468C67.948 411.738 68.0861 411.994 68.2469 412.235C68.4077 412.478 68.5933 412.701 68.7974 412.907C69.0036 413.113 69.2283 413.297 69.4695 413.46C69.7108 413.621 69.9664 413.757 70.2365 413.868C70.5045 413.979 70.7808 414.064 71.0674 414.122C71.3519 414.177 71.6405 414.206 71.9313 414.206H90.6931C90.9838 414.206 91.2725 414.177 91.559 414.122C91.8436 414.064 92.1198 413.979 92.3899 413.868C92.658 413.757 92.9136 413.621 93.1548 413.46C93.3981 413.297 93.6208 413.113 93.827 412.907C94.0331 412.701 94.2166 412.478 94.3774 412.235C94.5403 411.994 94.6764 411.738 94.7877 411.468C94.8991 411.2 94.9836 410.924 95.0393 410.637C95.097 410.353 95.1238 410.064 95.1238 409.771V337.12C105.76 352.391 131.46 375.697 143.665 375.489C144.175 375.487 144.684 375.462 145.191 375.415C145.698 375.367 146.203 375.299 146.704 375.208C147.208 375.118 147.704 375.004 148.195 374.87C148.688 374.736 149.172 374.582 149.651 374.406C150.129 374.229 150.599 374.033 151.061 373.817C151.523 373.598 151.974 373.361 152.413 373.105C152.855 372.85 153.284 372.575 153.7 372.281C154.119 371.988 154.521 371.677 154.91 371.347C155.302 371.019 155.675 370.675 156.036 370.312C156.397 369.951 156.739 369.576 157.067 369.184C157.395 368.792 157.704 368.388 157.997 367.97C158.287 367.553 158.562 367.122 158.815 366.681C159.071 366.238 159.306 365.786 159.522 365.324C159.737 364.863 159.933 364.39 160.106 363.912C160.281 363.432 160.436 362.947 160.568 362.454C160.7 361.962 160.811 361.463 160.9 360.962C163.695 345.738 163.456 328.576 155.535 314.671L171.967 285.628C173.845 293.339 176.921 301.882 181.969 309.002C177.705 316.321 178.69 326.182 187.442 331.396V351.54C182.084 356.523 165.718 374.245 160.161 409.077C160.114 409.394 160.1 409.712 160.12 410.029C160.141 410.349 160.194 410.662 160.283 410.969C160.37 411.279 160.489 411.573 160.642 411.854C160.792 412.136 160.972 412.398 161.178 412.641C161.386 412.885 161.617 413.103 161.871 413.297C162.126 413.491 162.398 413.656 162.687 413.79C162.978 413.926 163.279 414.029 163.59 414.099C163.901 414.169 164.217 414.206 164.536 414.208H334.88C338.065 414.208 339.411 410.588 339.292 409.345C338.541 402.728 337.319 396.201 335.62 389.764C337.001 389.723 338.366 389.544 339.71 389.226C341.057 388.907 342.356 388.455 343.611 387.872C344.865 387.29 346.046 386.585 347.157 385.762C348.269 384.938 349.285 384.01 350.209 382.979L373.744 356.556C388.712 340.926 403.548 319.597 413.37 304.447C413.735 303.886 414.051 303.303 414.321 302.693C414.591 302.082 414.811 301.454 414.981 300.808C415.15 300.163 415.267 299.507 415.333 298.843C415.397 298.18 415.409 297.514 415.366 296.848C415.325 296.182 415.232 295.524 415.084 294.873C414.937 294.221 414.739 293.586 414.492 292.967C414.242 292.347 413.948 291.751 413.603 291.18C413.259 290.609 412.871 290.067 412.443 289.557C412.696 288.337 412.888 287.106 413.014 285.865C413.141 284.626 413.203 283.38 413.199 282.135C413.197 280.888 413.129 279.644 412.997 278.403C412.865 277.164 412.669 275.933 412.41 274.715C412.15 273.494 411.826 272.292 411.443 271.107C411.057 269.921 410.612 268.758 410.104 267.618C409.599 266.478 409.034 265.369 408.414 264.289C407.791 263.208 407.115 262.161 406.385 261.151C386.99 233.907 356.182 196.591 339.793 177.075C340.436 177.001 341.071 176.887 341.7 176.731C342.327 176.574 342.943 176.376 343.545 176.137C344.147 175.898 344.731 175.621 345.296 175.306C345.861 174.988 346.403 174.638 346.92 174.248C347.44 173.861 347.931 173.44 348.392 172.988C348.856 172.535 349.287 172.052 349.685 171.543C350.085 171.032 350.448 170.498 350.776 169.939C351.106 169.38 351.394 168.803 351.646 168.207C358.982 150.297 331.053 138.38 313.947 136.157C299.15 133.716 293.81 120.828 294.008 106.99V65.9448C291.327 -9.57061 182.63 -9.56649 179.956 65.9448V103.314C179.991 107.165 179.608 110.971 178.804 114.738C178 118.503 176.796 122.134 175.19 125.632C167.848 141.902 156.96 143.157 143.692 150.369C133.668 155.501 134.433 170.681 144.56 175.054C131.969 194.95 127.017 218.015 116.236 247.92H95.1238V156.649C104.053 158.463 115.508 162.255 124.945 170.182C125.271 170.448 125.625 170.663 126.011 170.828C126.396 170.993 126.796 171.1 127.213 171.151C127.629 171.205 128.044 171.197 128.458 171.133C128.872 171.067 129.268 170.945 129.65 170.768C130.029 170.591 130.378 170.364 130.693 170.09C131.01 169.813 131.281 169.5 131.509 169.147C131.736 168.795 131.911 168.418 132.033 168.016C132.155 167.616 132.219 167.205 132.225 166.785V100.011C132.219 99.5925 132.155 99.1801 132.033 98.7802C131.911 98.3781 131.736 98.0008 131.509 97.6503C131.281 97.2978 131.008 96.9844 130.693 96.7081C130.378 96.4318 130.029 96.2071 129.648 96.0298C129.268 95.8525 128.872 95.7308 128.458 95.6649C128.044 95.601 127.629 95.5927 127.213 95.6442C126.796 95.6958 126.396 95.8051 126.011 95.97C125.625 96.1349 125.271 96.3494 124.945 96.6153C115.537 104.512 104.167 108.314 95.1238 110.147V98.5389C95.9134 88.7683 105.028 85.3087 105.391 85.1747C105.626 85.0902 105.853 84.9892 106.072 84.8675C106.29 84.7459 106.496 84.6077 106.692 84.451C106.886 84.2944 107.067 84.1232 107.232 83.9356C107.397 83.7501 107.548 83.5501 107.68 83.3377C107.812 83.1253 107.925 82.9047 108.02 82.6738C108.115 82.4429 108.189 82.2058 108.243 81.9605C108.298 81.7172 108.331 81.4698 108.346 81.2203C108.358 80.9708 108.35 80.7234 108.321 80.4739C106.637 66.9097 103.857 53.5744 99.9854 40.4658C96.1134 27.3593 91.2003 14.6549 85.2439 2.35245C85.0542 1.99783 84.8192 1.67413 84.5409 1.38137C84.2625 1.09066 83.9492 0.839129 83.6028 0.632955C83.2564 0.424719 82.8894 0.268026 82.5018 0.160816C82.1121 0.0536048 81.7163 0 81.3122 0C80.9081 0 80.5122 0.0536048 80.1246 0.160816C79.735 0.268026 79.368 0.424719 79.0216 0.632955C78.6752 0.839129 78.3618 1.09066 78.0835 1.38137C77.8052 1.67413 77.5701 1.99783 77.3804 2.35245C71.4241 14.6549 66.5109 27.3593 62.639 40.4658C58.767 53.5744 55.9899 66.9097 54.3054 80.4739C54.2786 80.7214 54.2724 80.9688 54.2869 81.2162C54.2992 81.4636 54.3343 81.7089 54.3879 81.9502C54.4436 82.1934 54.5178 82.4285 54.6126 82.6573C54.7054 82.8882 54.8188 83.1089 54.9487 83.3192C55.0786 83.5294 55.227 83.7294 55.3899 83.915C55.5528 84.1006 55.7321 84.2737 55.9239 84.4304C56.1156 84.5871 56.3197 84.7253 56.5342 84.849C56.7506 84.9727 56.9754 85.0758 57.2083 85.1623C57.598 85.3046 66.713 88.7642 67.5006 98.5389V109.561C39.4485 104.403 16.8209 81.9543 11.1181 63.0687C11.0459 62.8131 10.9511 62.5677 10.8336 62.3285C10.716 62.0914 10.58 61.8647 10.4233 61.6523C10.2645 61.4379 10.0893 61.2399 9.89754 61.0585C9.70373 60.8771 9.49756 60.7142 9.27489 60.5678C9.05222 60.4235 8.81925 60.2998 8.57596 60.1967C8.33061 60.0936 8.07908 60.0132 7.82136 59.9555C7.56158 59.8978 7.29974 59.8648 7.03584 59.8545C6.77194 59.8421 6.50803 59.8565 6.24413 59.8916C5.98229 59.9287 5.72457 59.9885 5.47304 60.0709C5.2215 60.1534 4.97822 60.2586 4.74524 60.3843C4.51226 60.5122 4.29372 60.6565 4.08548 60.8235C3.87931 60.9884 3.68963 61.1719 3.51438 61.3719C3.34119 61.5719 3.18656 61.7863 3.05049 62.0131C2.91441 62.242 2.80102 62.4791 2.70618 62.7285C2.6134 62.9759 2.5433 63.2316 2.49588 63.4914C2.44846 63.7532 2.42578 64.0151 2.42578 64.281V202.521C2.42578 202.785 2.45052 203.047 2.49794 203.308C2.54536 203.568 2.61546 203.822 2.70824 204.069C2.80102 204.317 2.91441 204.556 3.04843 204.783C3.1845 205.009 3.33913 205.224 3.51232 205.422C3.68551 205.622 3.87519 205.805 4.08136 205.97C4.28754 206.137 4.50814 206.281 4.73906 206.409C4.97203 206.535 5.21326 206.64 5.46479 206.723C5.71632 206.805 5.97198 206.867 6.23382 206.904ZM86.2624 405.339H76.3619V307.989H79.3783C81.3637 313.119 83.6584 318.106 86.2624 322.951V405.339ZM153.688 344.027C153.539 349.199 153.034 354.337 152.168 359.438C152.106 359.78 152.026 360.116 151.925 360.448C151.824 360.778 151.704 361.104 151.564 361.419C151.424 361.737 151.265 362.044 151.088 362.343C150.912 362.64 150.719 362.927 150.506 363.201C150.296 363.477 150.069 363.737 149.828 363.984C149.585 364.232 149.329 364.465 149.059 364.681C148.789 364.898 148.506 365.098 148.212 365.281C147.919 365.465 147.614 365.629 147.3 365.776C146.987 365.922 146.665 366.05 146.337 366.157C146.008 366.267 145.674 366.353 145.333 366.421C144.993 366.489 144.651 366.537 144.307 366.563C143.96 366.59 143.616 366.596 143.27 366.582C142.923 366.568 142.579 366.533 142.239 366.477C141.896 366.421 141.558 366.345 141.226 366.25C140.894 366.153 140.569 366.038 140.249 365.902C139.93 365.768 139.62 365.613 139.319 365.44C136.517 363.811 133.786 362.073 131.124 360.222C128.462 358.37 125.879 356.416 123.376 354.356C120.873 352.294 118.457 350.135 116.129 347.88C113.801 345.624 111.566 343.276 109.43 340.839C107.292 338.402 105.255 335.881 103.321 333.279C101.389 330.675 99.5627 327.999 97.8474 325.246C96.1299 322.496 94.528 319.679 93.0394 316.797C91.5508 313.917 90.1818 310.981 88.9324 307.987C100.961 308.989 109.131 301.118 108.197 289.009C110.385 288.914 117.912 289.302 119.912 288.63C137.237 305.732 154.267 316.906 153.688 344.027ZM117.003 256.79C117.205 256.79 117.405 256.811 117.603 256.85C117.801 256.889 117.993 256.947 118.18 257.025C118.366 257.101 118.543 257.196 118.71 257.31C118.879 257.421 119.034 257.549 119.176 257.691C119.32 257.835 119.448 257.99 119.56 258.157C119.671 258.326 119.766 258.503 119.844 258.689C119.922 258.877 119.98 259.068 120.019 259.266C120.059 259.464 120.079 259.664 120.079 259.866V277.067C120.079 277.269 120.059 277.469 120.019 277.667C119.98 277.865 119.922 278.057 119.844 278.245C119.766 278.43 119.671 278.607 119.56 278.774C119.448 278.943 119.32 279.098 119.176 279.242C119.034 279.385 118.879 279.513 118.71 279.624C118.543 279.737 118.366 279.832 118.18 279.908C117.993 279.987 117.801 280.044 117.603 280.084C117.405 280.123 117.205 280.143 117.003 280.143H108.193V256.79H117.003ZM144.327 299.872L127.161 283.312C129.565 280.075 128.856 273.938 128.941 270.105C138.398 277.764 148.574 284.302 159.469 289.722L150.086 306.307C148.321 304.023 146.401 301.878 144.327 299.872ZM163.846 281.983C160.574 280.451 157.347 278.717 154.253 276.89C155.887 273.383 159.788 268.783 154.898 265.915C149.989 263.761 148.496 268.787 146.729 272.138C143.422 269.917 140.4 267.721 137.808 265.75L140.519 260.41C140.651 260.151 140.756 259.881 140.835 259.6C140.913 259.32 140.965 259.035 140.987 258.745C141.01 258.454 141.004 258.165 140.969 257.875C140.934 257.586 140.872 257.303 140.781 257.027C140.69 256.749 140.575 256.485 140.433 256.231C140.29 255.976 140.123 255.739 139.934 255.518C139.746 255.297 139.536 255.095 139.307 254.916C139.078 254.737 138.835 254.58 138.575 254.448C138.315 254.316 138.045 254.211 137.767 254.132C137.486 254.054 137.2 254.003 136.911 253.98C136.62 253.957 136.33 253.963 136.041 253.998C135.753 254.034 135.47 254.095 135.194 254.186C134.917 254.277 134.652 254.392 134.398 254.535C134.144 254.679 133.907 254.844 133.687 255.033C133.464 255.223 133.264 255.431 133.085 255.66C132.905 255.889 132.749 256.134 132.617 256.394L130.736 260.099C129.872 259.373 129.235 258.823 128.856 258.491C128.767 257.736 128.611 257 128.382 256.277C128.155 255.555 127.86 254.86 127.501 254.192C127.141 253.526 126.72 252.9 126.242 252.314C125.761 251.726 125.231 251.19 124.65 250.706C126.456 245.259 128.169 240.135 129.788 235.338C136.726 241.605 152.176 254.419 169.035 260.852C168.947 264.536 169.126 268.206 169.575 271.863L163.846 281.983ZM139.567 207.104C145.566 211.986 157.621 221.134 169.029 225.872V251.258C164.609 249.287 160.357 247.003 156.277 244.401L159.149 238.828C159.281 238.57 159.386 238.3 159.465 238.022C159.541 237.742 159.592 237.459 159.615 237.168C159.638 236.88 159.632 236.591 159.597 236.305C159.564 236.016 159.502 235.733 159.413 235.459C159.322 235.183 159.209 234.919 159.067 234.666C158.926 234.412 158.762 234.175 158.574 233.954C158.386 233.734 158.18 233.534 157.953 233.352C157.727 233.173 157.483 233.016 157.226 232.882C156.968 232.75 156.7 232.643 156.421 232.565C156.143 232.484 155.861 232.431 155.572 232.406C155.283 232.383 154.995 232.385 154.706 232.418C154.42 232.451 154.137 232.511 153.861 232.598C153.585 232.684 153.319 232.798 153.065 232.938C152.811 233.078 152.574 233.241 152.352 233.426C152.129 233.612 151.927 233.818 151.745 234.045C151.564 234.27 151.405 234.511 151.271 234.769L148.89 239.393C143.28 235.317 137.952 230.897 132.913 226.134C135.423 218.796 137.649 212.43 139.567 207.104ZM169.029 183.048V216.139C164.598 213.908 160.347 211.374 156.275 208.539L159.409 202.63C159.545 202.372 159.654 202.104 159.739 201.826C159.821 201.546 159.877 201.261 159.906 200.973C159.933 200.682 159.931 200.393 159.902 200.102C159.873 199.814 159.815 199.529 159.731 199.251C159.644 198.973 159.533 198.705 159.395 198.449C159.256 198.193 159.096 197.952 158.91 197.727C158.724 197.503 158.52 197.298 158.294 197.115C158.069 196.931 157.828 196.771 157.57 196.635C157.312 196.499 157.044 196.389 156.766 196.305C156.487 196.22 156.203 196.165 155.914 196.138C155.624 196.111 155.335 196.111 155.046 196.14C154.756 196.171 154.471 196.228 154.195 196.313C153.916 196.397 153.648 196.511 153.393 196.649C153.137 196.787 152.896 196.948 152.671 197.134C152.446 197.319 152.242 197.525 152.059 197.75C151.875 197.975 151.715 198.216 151.578 198.474L149.034 203.278C146.274 201.158 144.096 199.36 142.82 198.288C145.667 190.458 149.546 182.386 154.195 177.048C159.427 178.335 164.374 180.337 169.029 183.054V183.048ZM177.89 264.161V188.788C198.351 203.754 210.32 209.675 221.626 211.856V232.981H201.246C200.955 232.981 200.666 233.008 200.382 233.066C200.097 233.123 199.819 233.206 199.551 233.317C199.281 233.428 199.027 233.567 198.784 233.727C198.543 233.89 198.318 234.074 198.114 234.28C197.908 234.484 197.724 234.709 197.561 234.95C197.401 235.193 197.265 235.449 197.153 235.717C197.042 235.987 196.957 236.263 196.9 236.55C196.844 236.834 196.815 237.123 196.815 237.414V272.216C196.815 272.509 196.844 272.797 196.9 273.082C196.957 273.369 197.042 273.645 197.153 273.913C197.265 274.183 197.401 274.439 197.561 274.68C197.724 274.923 197.908 275.146 198.114 275.352C198.318 275.558 198.543 275.742 198.784 275.904C199.027 276.065 199.281 276.201 199.551 276.313C199.819 276.424 200.097 276.509 200.382 276.566C200.666 276.622 200.955 276.651 201.246 276.651H221.63V324.409H192.982C186.564 321.242 187.937 315.311 190.818 311.571C190.976 311.373 191.116 311.164 191.24 310.942C191.364 310.721 191.467 310.49 191.549 310.251C191.634 310.012 191.696 309.767 191.737 309.517C191.78 309.268 191.799 309.016 191.799 308.762C191.797 308.509 191.774 308.257 191.729 308.008C191.686 307.758 191.62 307.515 191.533 307.276C191.446 307.039 191.341 306.81 191.215 306.589C191.09 306.369 190.947 306.161 190.785 305.967C178.457 291.009 177.895 264.363 177.89 264.167V264.161ZM328.862 177.846C335.618 185.854 346.611 198.989 358.573 213.735L351.79 220.287L348.151 215.644C347.972 215.415 347.772 215.205 347.551 215.015C347.331 214.825 347.094 214.658 346.84 214.516C346.586 214.374 346.322 214.256 346.044 214.166C345.768 214.075 345.485 214.013 345.197 213.978C344.908 213.943 344.619 213.937 344.329 213.959C344.038 213.98 343.753 214.032 343.473 214.11C343.193 214.188 342.923 214.291 342.663 214.423C342.403 214.555 342.16 214.71 341.931 214.891C341.702 215.071 341.492 215.271 341.302 215.491C341.114 215.712 340.947 215.949 340.805 216.203C340.661 216.456 340.545 216.722 340.455 216.998C340.364 217.275 340.302 217.559 340.267 217.848C340.232 218.137 340.226 218.425 340.246 218.716C340.269 219.007 340.319 219.291 340.397 219.571C340.475 219.852 340.58 220.122 340.712 220.382C340.844 220.642 340.999 220.887 341.178 221.116L345.38 226.478L334.556 236.933C334.346 237.135 334.158 237.356 333.993 237.595C333.828 237.834 333.686 238.088 333.571 238.354C333.455 238.622 333.364 238.896 333.303 239.181C333.241 239.465 333.208 239.754 333.204 240.045C333.197 240.335 333.22 240.624 333.274 240.911C333.325 241.197 333.404 241.478 333.511 241.748C333.616 242.018 333.748 242.277 333.907 242.521C334.063 242.766 334.243 242.993 334.445 243.203C334.647 243.411 334.867 243.601 335.107 243.766C335.346 243.933 335.599 244.073 335.865 244.189C336.133 244.306 336.408 244.395 336.692 244.457C336.977 244.519 337.265 244.552 337.556 244.558C337.847 244.562 338.135 244.539 338.422 244.488C338.708 244.436 338.987 244.356 339.257 244.248C339.527 244.143 339.785 244.011 340.03 243.853C340.275 243.696 340.502 243.517 340.712 243.315L364.159 220.658C368.21 225.707 372.317 230.866 376.352 236.014L355.563 254.852L351.143 249.366C350.959 249.139 350.757 248.931 350.535 248.741C350.312 248.553 350.071 248.388 349.815 248.248C349.559 248.108 349.293 247.993 349.015 247.904C348.737 247.817 348.452 247.758 348.161 247.725C347.873 247.694 347.582 247.69 347.291 247.714C347.001 247.741 346.714 247.795 346.434 247.877C346.153 247.96 345.885 248.067 345.626 248.203C345.368 248.339 345.125 248.498 344.898 248.681C344.671 248.865 344.463 249.069 344.275 249.292C344.09 249.516 343.927 249.757 343.786 250.013C343.646 250.271 343.533 250.537 343.446 250.817C343.36 251.096 343.302 251.38 343.271 251.671C343.242 251.961 343.24 252.252 343.267 252.543C343.294 252.834 343.349 253.118 343.432 253.399C343.516 253.679 343.626 253.947 343.762 254.207C343.898 254.464 344.059 254.706 344.244 254.932L348.984 260.815L340.702 268.319C334.636 260.361 328.088 252.823 321.058 245.704V221.561L336.339 206.201C336.542 205.993 336.723 205.768 336.88 205.527C337.038 205.284 337.17 205.028 337.28 204.76C337.387 204.492 337.469 204.216 337.523 203.931C337.577 203.647 337.603 203.36 337.601 203.071C337.599 202.783 337.568 202.496 337.511 202.212C337.453 201.929 337.368 201.653 337.255 201.387C337.144 201.119 337.007 200.865 336.845 200.626C336.684 200.387 336.5 200.164 336.296 199.96C336.09 199.756 335.867 199.573 335.628 199.414C335.387 199.253 335.133 199.117 334.865 199.006C334.599 198.896 334.323 198.812 334.041 198.754C333.756 198.698 333.47 198.67 333.181 198.67C332.892 198.667 332.606 198.694 332.321 198.75C332.037 198.806 331.762 198.888 331.494 198.997C331.226 199.107 330.971 199.243 330.729 199.401C330.488 199.56 330.266 199.742 330.059 199.946L321.058 208.993V179.161C323.513 178.629 326.119 178.184 328.862 177.846ZM239.792 349.111C239.45 349.111 239.108 349.078 238.772 349.01C238.433 348.942 238.106 348.843 237.788 348.711C237.471 348.579 237.168 348.418 236.881 348.226C236.596 348.035 236.331 347.816 236.087 347.573C235.844 347.329 235.627 347.066 235.436 346.779C235.244 346.492 235.083 346.191 234.951 345.872C234.819 345.554 234.718 345.226 234.65 344.888C234.584 344.552 234.549 344.21 234.549 343.866V338.515C234.549 338.171 234.584 337.831 234.65 337.493C234.718 337.155 234.819 336.827 234.951 336.509C235.083 336.192 235.244 335.889 235.436 335.602C235.627 335.318 235.844 335.052 236.087 334.808C236.331 334.565 236.596 334.349 236.881 334.157C237.168 333.965 237.471 333.802 237.788 333.67C238.106 333.538 238.433 333.439 238.772 333.371C239.108 333.305 239.45 333.27 239.792 333.27H253.641C253.985 333.27 254.325 333.305 254.664 333.371C255.002 333.439 255.327 333.538 255.647 333.67C255.964 333.802 256.265 333.965 256.552 334.157C256.839 334.349 257.103 334.565 257.346 334.808C257.589 335.052 257.808 335.318 257.999 335.602C258.189 335.889 258.352 336.192 258.484 336.509C258.616 336.827 258.715 337.155 258.783 337.493C258.851 337.831 258.884 338.171 258.884 338.515V343.866C258.884 344.21 258.851 344.552 258.783 344.888C258.715 345.226 258.616 345.554 258.484 345.872C258.352 346.191 258.189 346.492 257.999 346.779C257.808 347.066 257.589 347.329 257.346 347.573C257.103 347.816 256.839 348.035 256.552 348.226C256.265 348.418 255.964 348.579 255.647 348.711C255.327 348.843 255.002 348.942 254.664 349.01C254.325 349.078 253.985 349.111 253.641 349.111H239.792ZM226.708 333.277C225.356 336.087 225.723 340.779 225.688 343.872C225.688 345.686 226.028 347.437 226.708 349.119H196.3V333.283L226.708 333.277ZM266.725 333.277H303.995L303.921 349.111H266.725C268.077 346.301 267.71 341.61 267.747 338.515C267.745 336.701 267.405 334.953 266.725 333.268V333.277ZM312.869 330.833C319.004 325.042 320.184 314.853 313.951 306.892C319.792 297.411 321.689 279.189 321.058 258.571C329.787 268.334 337.785 278.665 345.046 289.566C343.644 290.761 342.446 292.132 341.451 293.681C340.455 295.231 339.704 296.891 339.199 298.662C336.494 308.134 334.276 317.719 332.546 327.417C330.958 327.314 329.375 327.374 327.796 327.594C326.218 327.815 324.68 328.192 323.179 328.726C321.678 329.26 320.248 329.941 318.885 330.767C317.524 331.594 316.26 332.549 315.093 333.633L312.844 335.745L312.869 330.833ZM312.196 271.132C312.196 295.58 305.187 304.142 305.166 304.167C304.984 304.369 304.822 304.585 304.677 304.818C304.535 305.051 304.413 305.295 304.316 305.548C304.218 305.804 304.143 306.064 304.094 306.332C304.044 306.602 304.02 306.872 304.02 307.144C304.02 307.416 304.044 307.686 304.094 307.956C304.143 308.224 304.218 308.484 304.316 308.74C304.413 308.993 304.535 309.237 304.677 309.47C304.822 309.701 304.984 309.919 305.166 310.121C309.788 314.956 310.712 320.461 306.741 324.403H267.747V276.651H288.132C288.422 276.651 288.711 276.622 288.996 276.566C289.28 276.509 289.559 276.424 289.827 276.313C290.095 276.201 290.35 276.065 290.594 275.904C290.835 275.742 291.059 275.558 291.264 275.352C291.47 275.146 291.653 274.923 291.816 274.68C291.977 274.439 292.113 274.183 292.224 273.913C292.336 273.645 292.42 273.369 292.478 273.082C292.534 272.797 292.562 272.509 292.562 272.216V237.416C292.562 237.125 292.534 236.837 292.478 236.552C292.42 236.265 292.336 235.989 292.224 235.719C292.113 235.451 291.977 235.195 291.816 234.954C291.653 234.711 291.47 234.488 291.264 234.282C291.059 234.076 290.835 233.892 290.594 233.729C290.35 233.569 290.095 233.433 289.827 233.321C289.559 233.21 289.28 233.125 288.996 233.068C288.709 233.012 288.422 232.983 288.132 232.983H267.747V206.197C276.217 202.247 284.25 197.546 291.845 192.099C291.952 192.004 299.139 185.963 312.196 181.594V271.132ZM263.317 241.859H283.699V267.783H263.317C263.024 267.783 262.737 267.812 262.451 267.868C262.166 267.926 261.888 268.01 261.62 268.121C261.352 268.233 261.096 268.369 260.855 268.53C260.612 268.693 260.389 268.876 260.183 269.082C259.977 269.288 259.793 269.511 259.632 269.754C259.469 269.996 259.333 270.251 259.222 270.521C259.111 270.789 259.026 271.066 258.971 271.352C258.913 271.637 258.884 271.925 258.884 272.216V324.409H230.492V272.216C230.492 271.925 230.463 271.637 230.407 271.352C230.349 271.066 230.265 270.789 230.154 270.521C230.042 270.251 229.906 269.996 229.745 269.754C229.582 269.511 229.399 269.288 229.193 269.082C228.989 268.876 228.764 268.693 228.523 268.53C228.279 268.369 228.026 268.233 227.756 268.121C227.488 268.01 227.209 267.926 226.925 267.868C226.64 267.812 226.352 267.783 226.061 267.783H205.679V241.851H226.061C226.352 241.851 226.64 241.822 226.925 241.766C227.209 241.708 227.488 241.624 227.756 241.513C228.026 241.401 228.279 241.265 228.523 241.104C228.764 240.941 228.989 240.758 229.193 240.552C229.399 240.346 229.582 240.123 229.745 239.88C229.906 239.638 230.042 239.383 230.154 239.113C230.265 238.845 230.349 238.566 230.407 238.282C230.463 237.995 230.492 237.709 230.492 237.416V212.968C239.848 213.609 249.439 213.487 258.888 209.817V237.422C258.888 237.713 258.917 238.001 258.975 238.286C259.03 238.57 259.115 238.847 259.226 239.117C259.337 239.385 259.476 239.64 259.636 239.882C259.797 240.123 259.981 240.348 260.187 240.552C260.393 240.758 260.616 240.941 260.857 241.102C261.098 241.265 261.354 241.401 261.622 241.513C261.89 241.624 262.168 241.708 262.453 241.764C262.737 241.822 263.026 241.851 263.317 241.851V241.859ZM193.545 357.987H245.536C246.571 359.968 249.208 366.019 249.208 376.227V405.353H169.827C175.693 376.452 189.599 361.685 193.545 357.978V357.987ZM258.072 405.347C257.818 394.632 259.412 366.512 255.16 357.987H307.184C322.233 366.582 328.035 394.09 329.81 405.347H258.072ZM405.927 299.629C398.039 311.812 382.471 334.668 367.187 350.601L343.597 377.085C342.935 377.823 342.193 378.464 341.366 379.01C340.541 379.557 339.659 379.99 338.721 380.309C337.785 380.629 336.822 380.825 335.834 380.895C334.847 380.967 333.865 380.911 332.892 380.732C328.907 369.242 322.598 357.269 312.778 351.006L312.792 347.964L321.163 340.103C321.808 339.495 322.505 338.955 323.254 338.478C324.002 338.002 324.788 337.602 325.612 337.274C326.437 336.949 327.284 336.703 328.154 336.536C329.026 336.371 329.905 336.289 330.791 336.289H336.329C336.595 336.289 336.857 336.266 337.119 336.219C337.381 336.171 337.634 336.101 337.882 336.008C338.131 335.916 338.368 335.8 338.597 335.664C338.824 335.528 339.038 335.373 339.238 335.2C339.438 335.025 339.622 334.835 339.787 334.627C339.954 334.421 340.098 334.2 340.226 333.967C340.352 333.734 340.457 333.491 340.539 333.239C340.622 332.988 340.681 332.73 340.719 332.466C342.409 321.863 344.747 311.402 347.731 301.087C347.877 300.575 348.063 300.08 348.287 299.6C348.512 299.118 348.776 298.66 349.075 298.221C349.374 297.784 349.706 297.371 350.073 296.986C350.438 296.602 350.831 296.25 351.254 295.928C351.677 295.609 352.122 295.322 352.592 295.075C353.06 294.825 353.545 294.615 354.048 294.446C354.551 294.275 355.064 294.145 355.586 294.058C356.11 293.969 356.637 293.924 357.167 293.922H402.843C403.177 293.92 403.503 293.963 403.824 294.05C404.144 294.136 404.449 294.264 404.734 294.435C405.02 294.604 405.278 294.809 405.509 295.048C405.74 295.287 405.934 295.555 406.092 295.846C406.251 296.138 406.367 296.448 406.443 296.771C406.517 297.095 406.546 297.423 406.531 297.757C406.517 298.089 406.459 298.413 406.356 298.73C406.253 299.045 406.111 299.342 405.927 299.621V299.629ZM404.177 285.139C401.19 285.127 354.87 284.572 353.015 285.533C351.116 282.673 348.753 279.236 346.023 275.463L381.809 243.032C385.508 247.821 389.093 252.543 392.464 257.093L386.353 262.864C383.929 259.942 381.374 255.06 376.95 258.221C372.69 262.048 377.595 265.845 379.888 268.971L376.682 272C376.364 272.307 376.098 272.653 375.884 273.039C375.671 273.424 375.517 273.832 375.424 274.263C375.331 274.696 375.302 275.131 375.339 275.57C375.377 276.012 375.475 276.436 375.638 276.847C375.801 277.257 376.02 277.634 376.294 277.979C376.57 278.325 376.89 278.622 377.253 278.871C377.616 279.123 378.007 279.315 378.428 279.449C378.848 279.583 379.279 279.651 379.721 279.657C380.286 279.657 380.83 279.554 381.356 279.346C381.881 279.135 382.347 278.836 382.758 278.449L397.734 264.307C398.928 265.746 399.973 267.286 400.864 268.932C401.754 270.577 402.478 272.292 403.031 274.08C403.583 275.867 403.956 277.692 404.15 279.552C404.342 281.413 404.352 283.275 404.177 285.139ZM147.923 158.162C152.587 155.655 158.465 153.08 163.8 150.435C180.033 142.675 189.063 121.767 188.816 103.32V65.9448C191.45 2.037 282.501 2.00195 285.142 65.9448V106.982C284.546 124.9 293.863 142.165 312.634 144.918C326.01 146.922 336.069 151.534 342.529 158.626C342.9 159.028 343.205 159.474 343.444 159.964C343.685 160.455 343.848 160.971 343.935 161.511C344.022 162.051 344.03 162.591 343.956 163.133C343.883 163.674 343.733 164.193 343.506 164.692C343.29 165.224 342.999 165.715 342.636 166.162C342.271 166.609 341.853 166.993 341.374 167.317C340.898 167.638 340.383 167.884 339.832 168.055C339.284 168.224 338.721 168.31 338.143 168.312C306.706 168.865 288.315 183.489 286.221 185.246C257.173 205.651 227.271 217 183.241 181.714C171.487 173.129 160.269 168.312 149.898 167.399C149.37 167.358 148.861 167.232 148.372 167.026C147.886 166.82 147.441 166.541 147.043 166.191C146.645 165.842 146.311 165.438 146.043 164.981C145.775 164.523 145.585 164.034 145.474 163.517C145.362 162.997 145.338 162.476 145.395 161.948C145.453 161.42 145.591 160.915 145.812 160.432C146.032 159.95 146.323 159.515 146.684 159.127C147.045 158.74 147.459 158.418 147.923 158.162ZM99.3318 291.99C99.3318 292.458 99.2844 292.922 99.1937 293.382C99.103 293.84 98.9669 294.285 98.7875 294.718C98.6081 295.151 98.3875 295.561 98.1278 295.951C97.868 296.34 97.5732 296.699 97.2433 297.031C96.9113 297.361 96.5526 297.658 96.1629 297.918C95.7732 298.177 95.363 298.398 94.9321 298.577C94.4991 298.757 94.0538 298.891 93.596 298.984C93.1363 299.074 92.6724 299.122 92.2044 299.122H71.2674C70.7994 299.12 70.3375 299.074 69.8778 298.984C69.4201 298.891 68.9747 298.755 68.5418 298.575C68.1108 298.396 67.7006 298.177 67.3109 297.918C66.9212 297.656 66.5625 297.361 66.2326 297.029C65.9007 296.699 65.6058 296.338 65.346 295.951C65.0863 295.561 64.8657 295.151 64.6863 294.718C64.5069 294.285 64.3729 293.84 64.2801 293.382C64.1894 292.922 64.1441 292.458 64.142 291.99V263.922C64.1441 263.454 64.1894 262.99 64.2801 262.53C64.3729 262.072 64.5069 261.625 64.6863 261.194C64.8657 260.761 65.0863 260.351 65.346 259.961C65.6058 259.571 65.9007 259.213 66.2326 258.881C66.5625 258.551 66.9212 258.254 67.3109 257.994C67.7006 257.734 68.1108 257.514 68.5418 257.334C68.9747 257.155 69.4201 257.021 69.8778 256.928C70.3375 256.837 70.7994 256.79 71.2674 256.79H99.3318V291.99ZM123.361 108.672V158.136C119.021 155.528 114.477 153.34 109.731 151.573C104.985 149.806 100.119 148.489 95.13 147.621V119.181C100.119 118.317 104.987 117.004 109.733 115.237C114.479 113.47 119.021 111.283 123.361 108.672ZM63.5029 78.3854C65.0595 67.4705 67.3274 56.7041 70.3087 46.0882C73.2899 35.4743 76.9578 25.1017 81.3122 14.9724C85.6686 25.1017 89.3365 35.4743 92.3178 46.0882C95.299 56.7041 97.569 67.4685 99.1236 78.3854C98.2205 78.8658 97.3525 79.3998 96.5155 79.9915C95.6805 80.5812 94.8846 81.2203 94.13 81.911C93.3754 82.5996 92.6662 83.3356 92.0044 84.115C91.3405 84.8943 90.7302 85.7128 90.1715 86.5685C89.6107 87.4261 89.1076 88.3127 88.6602 89.2343C88.2128 90.1538 87.8252 91.0981 87.4954 92.0671C87.1675 93.0361 86.9016 94.0217 86.6975 95.0237C86.4913 96.0277 86.3511 97.038 86.2748 98.0586C86.2315 98.2936 86.2748 247.644 86.2624 247.92H76.3619C76.3516 247.603 76.3846 98.3493 76.3516 98.0586C76.2733 97.038 76.1331 96.0277 75.929 95.0237C75.7249 94.0217 75.4589 93.0361 75.129 92.0671C74.8012 91.0981 74.4136 90.1538 73.9662 89.2343C73.5188 88.3148 73.0137 87.4261 72.4549 86.5685C71.8962 85.7128 71.2839 84.8943 70.622 84.115C69.9602 83.3356 69.251 82.6017 68.4964 81.911C67.7418 81.2203 66.946 80.5812 66.111 79.9915C65.2759 79.3998 64.4059 78.8658 63.5029 78.3854ZM67.5026 148.169C60.6783 149.458 54.0807 151.493 47.714 154.268C41.3474 157.043 35.3662 160.494 29.7748 164.616V102.18C35.3662 106.303 41.3453 109.753 47.714 112.53C54.0807 115.305 60.6783 117.338 67.5026 118.629V148.169ZM11.2913 82.8017C14.1406 86.9829 17.3487 90.8651 20.9217 94.4464V172.356C17.3487 175.939 14.1406 179.821 11.2913 184.002V82.8017Z" fill="#3C3C4F"/>
<path d="M227.216 163.913C232.31 165.766 252.13 165.706 248.728 156.8C248.608 156.534 248.464 156.284 248.295 156.045C248.126 155.808 247.936 155.589 247.724 155.392C247.514 155.192 247.285 155.014 247.037 154.86C246.79 154.705 246.53 154.575 246.26 154.472C245.988 154.369 245.708 154.293 245.421 154.245C245.134 154.196 244.844 154.177 244.553 154.185C244.262 154.194 243.976 154.231 243.691 154.297C243.409 154.361 243.134 154.453 242.868 154.573C228.593 160.428 212.2 148.373 209.122 134.081C223.808 150.728 251.21 150.202 265.259 133.075V152.909C264.785 165.243 255.674 175.768 237.522 175.421C237.232 175.421 236.945 175.45 236.659 175.508C236.374 175.564 236.096 175.648 235.828 175.76C235.56 175.871 235.304 176.007 235.061 176.17C234.819 176.331 234.595 176.514 234.391 176.72C234.184 176.926 234.001 177.151 233.838 177.392C233.677 177.636 233.541 177.891 233.43 178.159C233.318 178.427 233.234 178.706 233.178 178.99C233.121 179.277 233.092 179.565 233.092 179.856C233.092 180.147 233.121 180.436 233.178 180.72C233.234 181.007 233.318 181.283 233.43 181.553C233.541 181.821 233.677 182.077 233.838 182.32C234.001 182.561 234.184 182.786 234.391 182.992C234.595 183.196 234.819 183.382 235.061 183.543C235.304 183.703 235.56 183.842 235.828 183.953C236.096 184.064 236.374 184.149 236.659 184.204C236.945 184.262 237.232 184.289 237.522 184.289C249.452 184.289 258.783 180.949 265.259 174.353C266.626 172.908 267.849 171.351 268.929 169.679C270.007 168.009 270.927 166.255 271.683 164.416C272.442 162.577 273.026 160.682 273.434 158.736C273.844 156.789 274.073 154.823 274.12 152.833V70.922C272.38 21.4298 201.073 21.4298 199.388 70.922V126.884C199.382 127.923 199.417 128.958 199.496 129.993C199.574 131.028 199.694 132.057 199.856 133.081C200.017 134.106 200.221 135.123 200.467 136.131C200.71 137.139 200.994 138.135 201.32 139.12C201.646 140.104 202.011 141.075 202.415 142.029C202.821 142.986 203.262 143.922 203.743 144.842C204.225 145.761 204.741 146.658 205.295 147.536C205.85 148.413 206.437 149.266 207.06 150.095C207.683 150.924 208.338 151.726 209.027 152.501C209.716 153.278 210.435 154.025 211.184 154.742C211.932 155.458 212.709 156.144 213.515 156.798C214.32 157.451 215.15 158.072 216.004 158.657C216.86 159.245 217.738 159.795 218.637 160.311C219.538 160.824 220.457 161.303 221.395 161.742C222.336 162.183 223.29 162.583 224.261 162.946C225.232 163.309 226.218 163.63 227.216 163.913ZM236.753 137.461C235.819 137.459 234.89 137.413 233.96 137.32C233.032 137.228 232.11 137.089 231.195 136.906C230.279 136.725 229.376 136.496 228.484 136.226C227.591 135.953 226.713 135.638 225.851 135.281C224.989 134.923 224.146 134.525 223.323 134.083C222.501 133.642 221.701 133.162 220.925 132.644C220.15 132.125 219.402 131.568 218.68 130.976C217.959 130.385 217.268 129.758 216.608 129.098C215.948 128.436 215.322 127.746 214.73 127.024C214.138 126.302 213.581 125.554 213.064 124.777C212.544 124.002 212.064 123.202 211.625 122.377C211.184 121.554 210.786 120.711 210.427 119.849C210.07 118.987 209.755 118.109 209.485 117.214C209.213 116.322 208.986 115.416 208.802 114.501C208.619 113.586 208.481 112.664 208.39 111.734C208.297 110.804 208.25 109.872 208.25 108.938V74.1383C212.247 78.4453 218.078 82.3729 226.467 85.214C226.744 85.3294 227.028 85.4119 227.323 85.4655C227.618 85.5191 227.915 85.5376 228.216 85.5273C228.515 85.515 228.807 85.4696 229.098 85.3933C229.387 85.317 229.665 85.2098 229.931 85.0717C230.197 84.9336 230.444 84.7707 230.675 84.5769C230.904 84.3851 231.112 84.1707 231.294 83.9357C231.477 83.6986 231.634 83.4429 231.762 83.1728C231.888 82.9007 231.985 82.6203 232.051 82.3275L234.386 74.9279C239.848 79.3524 249.594 84.5769 265.257 84.8985V108.938C265.257 109.872 265.21 110.804 265.117 111.734C265.026 112.664 264.888 113.586 264.704 114.501C264.523 115.416 264.294 116.322 264.024 117.214C263.752 118.109 263.436 118.987 263.08 119.849C262.721 120.711 262.323 121.554 261.882 122.377C261.443 123.202 260.962 124.002 260.445 124.777C259.925 125.554 259.371 126.302 258.777 127.024C258.185 127.746 257.56 128.436 256.899 129.098C256.239 129.758 255.548 130.385 254.829 130.976C254.107 131.568 253.359 132.125 252.581 132.644C251.806 133.162 251.006 133.642 250.184 134.083C249.361 134.525 248.518 134.923 247.656 135.281C246.794 135.638 245.918 135.953 245.025 136.226C244.13 136.496 243.227 136.725 242.312 136.906C241.396 137.089 240.475 137.228 239.547 137.32C238.617 137.413 237.687 137.459 236.753 137.461ZM236.753 42.3977C255.126 42.5524 267.042 58.2958 265.259 76.0454C243.782 75.5609 236.477 64.6171 236.182 64.1615C235.955 63.8048 235.685 63.4852 235.368 63.2069C235.052 62.9265 234.702 62.6956 234.321 62.5142C233.939 62.3348 233.539 62.2111 233.123 62.1431C232.706 62.075 232.288 62.0688 231.869 62.1204C231.451 62.1719 231.046 62.2812 230.657 62.4461C230.269 62.6131 229.912 62.8296 229.585 63.0976C229.259 63.3657 228.976 63.6749 228.737 64.0234C228.498 64.3718 228.313 64.747 228.181 65.147L225.016 75.1898C216.237 71.3116 212.058 65.6088 210.076 60.8751C210.328 60.2009 210.604 59.537 210.907 58.8834C211.208 58.2299 211.536 57.5887 211.887 56.9578C212.237 56.3289 212.61 55.7145 213.008 55.1146C213.406 54.5146 213.827 53.9291 214.268 53.3621C214.709 52.7931 215.173 52.2426 215.658 51.7086C216.14 51.1746 216.645 50.6612 217.167 50.1664C217.69 49.6716 218.231 49.1974 218.791 48.7438C219.35 48.2902 219.925 47.8572 220.517 47.447C221.109 47.0367 221.715 46.6511 222.336 46.2862C222.958 45.9233 223.591 45.5831 224.239 45.2677C224.886 44.9522 225.544 44.6615 226.214 44.3956C226.882 44.1317 227.56 43.8904 228.249 43.6781C228.935 43.4637 229.63 43.276 230.331 43.1152C231.034 42.9544 231.741 42.8204 232.453 42.7132C233.164 42.606 233.879 42.5256 234.597 42.474C235.314 42.4204 236.034 42.3957 236.753 42.3977Z" fill="#3C3C4F"/>
</svg>
