<svg width="430" height="432" viewBox="0 0 430 432" fill="none" xmlns="http://www.w3.org/2000/svg">
<mask id="mask0_40_6059" style="mask-type:luminance" maskUnits="userSpaceOnUse" x="260" y="125" width="107" height="69">
<path d="M366.646 125.333H260.157V193.333H366.646V125.333Z" fill="white"/>
</mask>
<g mask="url(#mask0_40_6059)">
<mask id="mask1_40_6059" style="mask-type:luminance" maskUnits="userSpaceOnUse" x="261" y="126" width="105" height="67">
<path d="M268.698 129.172C268.698 129.172 298.785 114.156 325.507 149.885C330.335 156.437 335.622 162.609 341.372 168.391C348.722 175.865 356.763 182.526 365.482 188.38C357.416 191.63 349.028 193.062 340.324 192.687C338.829 192.62 337.354 192.443 335.885 192.156C334.421 191.875 332.984 191.49 331.578 191C330.167 190.51 328.803 189.922 327.481 189.234C326.16 188.547 324.896 187.766 323.69 186.896C322.485 186.026 321.347 185.078 320.278 184.042C319.215 183.01 318.23 181.906 317.324 180.729C316.424 179.557 315.608 178.323 314.886 177.026C314.165 175.734 313.544 174.396 313.017 173.016C312.006 170.375 310.743 167.318 309.179 163.833C306.936 158.708 303.813 154.177 299.806 150.245C292.103 142.839 278.771 135.849 261.126 148.87L268.698 129.172Z" fill="white"/>
</mask>
<g mask="url(#mask1_40_6059)">
<path d="M365.482 114.156V193.063H261.126V114.156H365.482Z" fill="url(#paint0_linear_40_6059)"/>
</g>
</g>
<mask id="mask2_40_6059" style="mask-type:luminance" maskUnits="userSpaceOnUse" x="256" y="105" width="146" height="43">
<path d="M401.693 105.333H256.113V148H401.693V105.333Z" fill="white"/>
</mask>
<g mask="url(#mask2_40_6059)">
<mask id="mask3_40_6059" style="mask-type:luminance" maskUnits="userSpaceOnUse" x="256" y="106" width="145" height="41">
<path d="M256.945 126.771C266.97 117.948 283.209 109.63 308.773 109.765C308.773 109.765 328.829 110.552 345.952 106.896C348.1 106.427 350.275 106.219 352.471 106.276C354.672 106.328 356.836 106.64 358.958 107.213C361.08 107.781 363.102 108.599 365.029 109.656C366.951 110.713 368.72 111.984 370.331 113.469L400.408 141.338C400.408 141.338 368.504 156.63 321.025 135.557C318.582 134.474 316.065 133.604 313.469 132.948C310.879 132.292 308.246 131.859 305.576 131.651C302.912 131.437 300.243 131.458 297.578 131.698C294.914 131.943 292.286 132.411 289.701 133.099C289.701 133.099 269.382 137.948 256.945 126.771Z" fill="white"/>
</mask>
<g mask="url(#mask3_40_6059)">
<path d="M400.408 106.219V156.63H256.945V106.219H400.408Z" fill="url(#paint1_linear_40_6059)"/>
</g>
</g>
<path d="M286.279 134.156C275.922 137.787 263.959 144.203 254.902 155.537L242.297 147.156C242.297 147.156 245.735 136.651 256.95 126.776C271.183 137.005 289.702 133.115 289.702 133.115C288.554 133.417 287.411 133.76 286.279 134.156Z" fill="#4F4F68"/>
<path d="M59.9637 136.745C59.9637 136.745 61.0115 110.042 29.6082 98.3906C29.6082 98.3906 19.5933 128.979 47.9057 141.599L59.9637 136.745Z" fill="#C84343"/>
<mask id="mask4_40_6059" style="mask-type:luminance" maskUnits="userSpaceOnUse" x="47" y="92" width="33" height="50">
<path d="M79.5298 92H47.1787V141.333H79.5298V92Z" fill="white"/>
</mask>
<g mask="url(#mask4_40_6059)">
<mask id="mask5_40_6059" style="mask-type:luminance" maskUnits="userSpaceOnUse" x="47" y="93" width="32" height="48">
<path d="M74.5118 93.1511C74.5118 93.1511 42.3714 104.469 48.7479 140.255H65.9238C66.0713 137.828 66.6452 135.495 67.6351 133.266C68.625 131.037 69.973 129.047 71.679 127.292C74.5118 124.479 76.4127 121.141 77.3763 117.281C78.6558 111.682 79.0033 103.281 74.5118 93.1511Z" fill="white"/>
</mask>
<g mask="url(#mask5_40_6059)">
<path d="M79.0034 93.1511V140.255H42.3715V93.1511H79.0034Z" fill="url(#paint2_linear_40_6059)"/>
</g>
</g>
<path d="M79.8457 157.786C80.0563 154.646 79.7298 151.552 78.8768 148.521C78.5451 147.396 78.1186 146.307 77.5973 145.26C77.076 144.213 76.4653 143.219 75.7649 142.276C75.0646 141.333 74.2853 140.458 73.4323 139.651C72.5793 138.844 71.6579 138.115 70.6732 137.469C69.6886 136.823 68.6565 136.266 67.5719 135.797C66.4924 135.328 65.3762 134.958 64.223 134.687C63.0751 134.411 61.9115 134.24 60.732 134.172C59.5525 134.099 58.3783 134.13 57.2041 134.266C47.1997 135.323 33.4358 140.365 37.1269 160.63L79.8457 157.786Z" fill="#C84343"/>
<path d="M150.898 266.26C150.898 266.26 136.25 313.901 82.6577 313.901V345.938C82.6577 345.938 124.645 351.875 154.642 318.635L150.898 266.26Z" fill="#E78582"/>
<mask id="mask6_40_6059" style="mask-type:luminance" maskUnits="userSpaceOnUse" x="5" y="296" width="90" height="72">
<path d="M94.3574 296H5.3919V368H94.3574V296Z" fill="white"/>
</mask>
<g mask="url(#mask6_40_6059)">
<mask id="mask7_40_6059" style="mask-type:luminance" maskUnits="userSpaceOnUse" x="5" y="297" width="90" height="71">
<path d="M82.6526 313.901L94.2524 367.307C94.2524 367.307 29.2606 373.635 5.56599 309.531L14.5226 301.411C15.1386 300.854 15.7916 300.349 16.4813 299.896C17.1764 299.443 17.8977 299.047 18.656 298.703C19.4089 298.365 20.1882 298.083 20.9886 297.865C21.7889 297.646 22.6051 297.49 23.4265 297.396C24.2532 297.302 25.0799 297.276 25.9118 297.312C26.7437 297.349 27.5652 297.453 28.376 297.62C29.1922 297.781 29.9873 298.01 30.7613 298.302C31.5406 298.588 32.2883 298.937 33.0097 299.344C43.7565 305.422 62.3858 313.901 82.6526 313.901Z" fill="white"/>
</mask>
<g mask="url(#mask7_40_6059)">
<path d="M94.2524 297.276V373.635H5.56599V297.276H94.2524Z" fill="url(#paint3_linear_40_6059)"/>
</g>
</g>
<mask id="mask8_40_6059" style="mask-type:luminance" maskUnits="userSpaceOnUse" x="345" y="240" width="81" height="148">
<path d="M425.956 240H345.078V388H425.956V240Z" fill="white"/>
</mask>
<g mask="url(#mask8_40_6059)">
<mask id="mask9_40_6059" style="mask-type:luminance" maskUnits="userSpaceOnUse" x="345" y="240" width="81" height="148">
<path d="M425.235 240.589C425.235 240.589 365.519 311.557 345.61 368.766L367.731 387.214C367.731 387.214 426.499 340.943 425.235 240.589Z" fill="white"/>
</mask>
<g mask="url(#mask9_40_6059)">
<path d="M426.498 240.589V387.214H345.61V240.589H426.498Z" fill="url(#paint4_linear_40_6059)"/>
</g>
</g>
<mask id="mask10_40_6059" style="mask-type:luminance" maskUnits="userSpaceOnUse" x="322" y="389" width="32" height="35">
<path d="M353.166 389.333H322.163V424H353.166V389.333Z" fill="white"/>
</mask>
<g mask="url(#mask10_40_6059)">
<mask id="mask11_40_6059" style="mask-type:luminance" maskUnits="userSpaceOnUse" x="322" y="389" width="31" height="35">
<path d="M352.098 406.359L332.626 389.833L323.532 410C323.338 410.437 323.18 410.891 323.069 411.354C322.953 411.823 322.885 412.297 322.864 412.771C322.837 413.25 322.858 413.729 322.927 414.203C322.99 414.677 323.101 415.141 323.253 415.599C323.401 416.052 323.596 416.49 323.833 416.906C324.064 417.328 324.338 417.724 324.643 418.094C324.954 418.463 325.291 418.802 325.665 419.109C326.034 419.417 326.434 419.687 326.855 419.922L330.651 422.031C331.452 422.474 332.305 422.771 333.216 422.917C334.121 423.068 335.022 423.057 335.927 422.891C336.828 422.724 337.676 422.411 338.465 421.948C339.255 421.49 339.945 420.906 340.529 420.208L352.098 406.359Z" fill="white"/>
</mask>
<g mask="url(#mask11_40_6059)">
<path d="M352.098 389.833V423.068H322.837V389.833H352.098Z" fill="url(#paint5_linear_40_6059)"/>
</g>
</g>
<mask id="mask12_40_6059" style="mask-type:luminance" maskUnits="userSpaceOnUse" x="134" y="361" width="125" height="67">
<path d="M258.809 361.333H134.796V428H258.809V361.333Z" fill="white"/>
</mask>
<g mask="url(#mask12_40_6059)">
<mask id="mask13_40_6059" style="mask-type:luminance" maskUnits="userSpaceOnUse" x="135" y="361" width="124" height="67">
<path d="M199.935 361.828V389.391L258.366 385.406V427.448H135.017V361.828H199.935Z" fill="white"/>
</mask>
<g mask="url(#mask13_40_6059)">
<path d="M258.366 361.828V427.448H135.017V361.828H258.366Z" fill="url(#paint6_linear_40_6059)"/>
</g>
</g>
<mask id="mask14_40_6059" style="mask-type:luminance" maskUnits="userSpaceOnUse" x="134" y="189" width="166" height="174">
<path d="M299.248 189.333H134.796V362.667H299.248V189.333Z" fill="white"/>
</mask>
<g mask="url(#mask14_40_6059)">
<mask id="mask15_40_6059" style="mask-type:luminance" maskUnits="userSpaceOnUse" x="135" y="190" width="164" height="172">
<path d="M298.047 197.193C298.047 197.193 281.771 254.26 245.845 306.797C244.744 308.411 243.812 310.12 243.054 311.922C242.301 313.724 241.733 315.578 241.353 317.495C240.974 319.406 240.79 321.344 240.801 323.292C240.816 325.245 241.027 327.172 241.432 329.083L248.372 361.833H135.022C135.022 361.833 134.654 278.812 161.15 201.615C161.15 201.615 237.694 179.661 298.047 197.193Z" fill="white"/>
</mask>
<g mask="url(#mask15_40_6059)">
<path d="M298.047 179.661V361.833H134.654V179.661H298.047Z" fill="url(#paint7_linear_40_6059)"/>
</g>
</g>
<mask id="mask16_40_6059" style="mask-type:luminance" maskUnits="userSpaceOnUse" x="152" y="45" width="99" height="97">
<path d="M250.721 45.3333H152.319V141.333H250.721V45.3333Z" fill="white"/>
</mask>
<g mask="url(#mask16_40_6059)">
<mask id="mask17_40_6059" style="mask-type:luminance" maskUnits="userSpaceOnUse" x="152" y="46" width="98" height="95">
<path d="M244.887 83.9165C244.887 83.9165 254.954 87.8123 246.751 105.448C238.542 123.083 210.398 140.255 210.398 140.255L157.159 127.724C157.159 127.724 151.061 110.318 153.173 85.7238L210.398 46.0415L244.887 83.9165Z" fill="white"/>
</mask>
<g mask="url(#mask17_40_6059)">
<path d="M254.954 46.0415V140.255H151.061V46.0415H254.954Z" fill="url(#paint8_linear_40_6059)"/>
</g>
</g>
<path d="M298.047 197.193C289.722 224.016 278.859 249.787 265.454 274.51C261.11 271.599 253.432 263.76 249.968 243.672C230.517 258.552 205.543 269.542 192.011 274.896C191.258 275.193 190.484 275.432 189.689 275.599C188.894 275.771 188.088 275.87 187.277 275.901C186.461 275.938 185.655 275.901 184.844 275.797C184.039 275.688 183.249 275.516 182.47 275.276C181.696 275.037 180.943 274.734 180.221 274.37C179.495 274 178.81 273.573 178.157 273.089C177.51 272.604 176.904 272.073 176.346 271.484C175.793 270.896 175.288 270.271 174.84 269.594C168.732 260.328 161.055 243.458 160.939 217.115L225.873 191.037C248.757 189.531 274.621 190.385 298.047 197.193Z" fill="#9D8D88"/>
<mask id="mask18_40_6059" style="mask-type:luminance" maskUnits="userSpaceOnUse" x="118" y="4" width="140" height="95">
<path d="M257.461 4H118.621V98.6667H257.461V4Z" fill="white"/>
</mask>
<g mask="url(#mask18_40_6059)">
<mask id="mask19_40_6059" style="mask-type:luminance" maskUnits="userSpaceOnUse" x="119" y="4" width="138" height="95">
<path d="M213.104 63.703C213.104 63.703 222.193 70.1562 224.694 91.7135C224.725 92.0364 224.899 92.2239 225.22 92.2812C225.542 92.3385 225.773 92.2239 225.915 91.9322C227.89 87.7343 233.245 80.0103 244.887 83.9166C244.887 83.9166 264.058 61.203 253.717 31.5051L240.854 29.5103C240.854 29.5103 233.787 13.5364 220.924 4.552C220.924 4.552 164.678 5.052 119.779 60.953L142.479 59.7083C142.479 59.7083 135.165 68.9426 135.418 98.3905C135.418 98.3905 190.405 95.6458 213.104 63.703Z" fill="white"/>
</mask>
<g mask="url(#mask19_40_6059)">
<path d="M264.059 4.552V98.3905H119.779V4.552H264.059Z" fill="url(#paint9_linear_40_6059)"/>
</g>
</g>
<path d="M194.07 361.828V395.432C194.07 396.323 194.154 397.203 194.333 398.078C194.507 398.948 194.765 399.797 195.112 400.62C195.455 401.438 195.876 402.219 196.376 402.958C196.876 403.698 197.445 404.385 198.077 405.01C198.714 405.641 199.404 406.203 200.152 406.698C200.899 407.193 201.689 407.609 202.521 407.948C203.353 408.286 204.206 408.547 205.091 408.719C205.97 408.891 206.86 408.979 207.76 408.979H242.639L240.032 361.833L194.07 361.828Z" fill="#A25B59"/>
<path d="M225.294 372.505C227.969 383.698 230.001 395.005 231.407 406.422C231.581 407.859 231.881 409.266 232.313 410.646C232.745 412.026 233.303 413.359 233.977 414.641C234.656 415.922 235.446 417.13 236.341 418.271C237.241 419.411 238.236 420.464 239.332 421.422C240.422 422.385 241.596 423.24 242.844 423.99C244.092 424.74 245.397 425.37 246.766 425.885C248.13 426.401 249.531 426.792 250.968 427.052C252.406 427.313 253.854 427.448 255.318 427.448H274.674C275.284 427.448 275.89 427.417 276.501 427.349C277.106 427.286 277.706 427.188 278.307 427.057C278.902 426.927 279.491 426.771 280.071 426.578C280.65 426.385 281.219 426.167 281.771 425.911C282.33 425.661 282.867 425.38 283.393 425.073C283.92 424.766 284.425 424.432 284.915 424.068C285.405 423.703 285.873 423.318 286.321 422.906C286.768 422.495 287.19 422.063 287.59 421.604C287.99 421.146 288.364 420.672 288.717 420.177C289.064 419.682 289.385 419.167 289.68 418.635C289.97 418.104 290.233 417.563 290.47 417.005C290.707 416.448 290.907 415.875 291.081 415.297C291.255 414.719 291.397 414.13 291.507 413.536C291.618 412.943 291.692 412.344 291.739 411.74C291.786 411.135 291.797 410.536 291.776 409.932C291.755 409.328 291.702 408.724 291.618 408.125C290.66 400.88 288.985 393.802 286.595 386.891C284.204 379.974 281.145 373.365 277.417 367.057C276.522 365.589 275.458 364.26 274.221 363.068C272.978 361.87 271.604 360.854 270.098 360.016C268.592 359.172 267.002 358.536 265.327 358.104C263.653 357.672 261.952 357.453 260.22 357.458H237.331C236.867 357.458 236.404 357.484 235.941 357.536C235.477 357.589 235.024 357.661 234.566 357.766C234.114 357.87 233.671 357.995 233.229 358.146C232.792 358.302 232.36 358.479 231.944 358.677C231.523 358.875 231.117 359.099 230.723 359.344C230.333 359.589 229.954 359.859 229.59 360.146C229.227 360.432 228.88 360.74 228.553 361.068C228.227 361.391 227.916 361.734 227.632 362.099C227.342 362.458 227.074 362.833 226.826 363.224C226.584 363.615 226.357 364.021 226.157 364.432C225.957 364.849 225.784 365.276 225.631 365.708C225.483 366.146 225.357 366.589 225.257 367.036C225.152 367.484 225.078 367.938 225.031 368.396C224.983 368.854 224.957 369.313 224.962 369.776C224.967 370.234 224.994 370.693 225.052 371.151C225.104 371.604 225.189 372.057 225.294 372.505Z" fill="#D07B72"/>
<mask id="mask20_40_6059" style="mask-type:luminance" maskUnits="userSpaceOnUse" x="265" y="198" width="97" height="136">
<path d="M361.254 198.667H265.549V333.333H361.254V198.667Z" fill="white"/>
</mask>
<g mask="url(#mask20_40_6059)">
<mask id="mask21_40_6059" style="mask-type:luminance" maskUnits="userSpaceOnUse" x="265" y="199" width="96" height="134">
<path d="M296.741 199.708C296.741 199.708 269.561 203.708 266.065 233.927C265.938 235.021 265.886 236.115 265.917 237.219C265.943 238.318 266.054 239.406 266.233 240.495C266.417 241.578 266.681 242.646 267.012 243.693C267.349 244.745 267.755 245.766 268.239 246.755C268.718 247.75 269.266 248.703 269.882 249.62C270.498 250.537 271.172 251.401 271.909 252.224C272.652 253.047 273.441 253.813 274.289 254.526C275.137 255.24 276.032 255.891 276.975 256.474L328.887 288.901V332.807L358.616 313.542L360.169 287.13C360.317 284.219 360.016 281.354 359.258 278.542C358.5 275.724 357.326 273.089 355.736 270.636C346.732 256.745 325.722 226.667 296.741 199.708Z" fill="white"/>
</mask>
<g mask="url(#mask21_40_6059)">
<path d="M360.316 199.708V332.807H265.885V199.708H360.316Z" fill="url(#paint10_linear_40_6059)"/>
</g>
</g>
<mask id="mask22_40_6059" style="mask-type:luminance" maskUnits="userSpaceOnUse" x="149" y="114" width="157" height="147">
<path d="M305.988 114.667H149.624V260H305.988V114.667Z" fill="white"/>
</mask>
<g mask="url(#mask22_40_6059)">
<mask id="mask23_40_6059" style="mask-type:luminance" maskUnits="userSpaceOnUse" x="150" y="115" width="156" height="145">
<path d="M243.75 145.823C244.276 143.349 244.534 140.844 244.508 138.313C244.487 135.781 244.187 133.281 243.613 130.818C243.039 128.349 242.202 125.974 241.101 123.688C240.001 121.401 238.669 119.26 237.094 117.266C236.647 116.682 236.083 116.24 235.409 115.943C234.73 115.646 234.025 115.526 233.287 115.589C229.949 115.969 226.716 116.781 223.599 118.016C220.476 119.255 217.575 120.88 214.895 122.891C213.637 123.792 212.283 124.521 210.83 125.068C209.377 125.62 207.876 125.969 206.333 126.125C204.785 126.281 203.243 126.24 201.71 125.99C200.173 125.745 198.698 125.302 197.282 124.667C194.123 123.271 190.874 122.13 187.525 121.26C184.182 120.385 180.785 119.781 177.342 119.453C173.898 119.125 170.449 119.078 166.995 119.307C163.546 119.531 160.134 120.037 156.764 120.813C156.306 120.906 155.859 121.047 155.427 121.224C154.995 121.406 154.584 121.62 154.195 121.88C153.805 122.135 153.442 122.427 153.11 122.75C152.773 123.073 152.473 123.427 152.21 123.807C151.941 124.188 151.715 124.594 151.525 125.016C151.335 125.438 151.193 125.88 151.088 126.328C150.983 126.781 150.919 127.24 150.904 127.703C150.888 128.167 150.914 128.625 150.988 129.083C151.651 133.162 152.615 137.162 153.884 141.094C155.158 145.031 156.722 148.844 158.57 152.547C160.424 156.245 162.546 159.787 164.936 163.167C167.332 166.552 169.965 169.74 172.845 172.729C173.408 173.313 174.082 173.708 174.872 173.917C175.662 174.125 176.447 174.115 177.231 173.891L183.228 172.125L184.834 178.693C184.834 178.693 182.049 185.063 166.784 190.443C165.642 190.844 164.594 191.412 163.636 192.146C162.683 192.88 161.866 193.745 161.192 194.74C160.518 195.734 160.018 196.807 159.697 197.964C159.376 199.12 159.244 200.297 159.307 201.49C159.934 212.75 162.335 235.839 173.271 253.302C173.708 253.99 174.203 254.63 174.762 255.229C175.32 255.823 175.931 256.365 176.594 256.849C177.252 257.333 177.952 257.75 178.69 258.104C179.427 258.458 180.196 258.745 180.985 258.958C181.78 259.172 182.586 259.307 183.402 259.375C184.224 259.438 185.04 259.427 185.856 259.344C186.672 259.255 187.478 259.094 188.262 258.865C189.047 258.63 189.805 258.323 190.537 257.953C205.28 250.469 234.072 234.458 259.82 211.891C262.074 209.875 264.517 208.13 267.16 206.651C269.798 205.172 272.573 204 275.48 203.125C278.381 202.255 281.345 201.708 284.373 201.484C287.401 201.26 290.413 201.365 293.414 201.797C294.03 201.896 294.651 202.005 295.278 202.13C295.62 202.198 295.968 202.245 296.315 202.266C296.668 202.292 297.015 202.292 297.363 202.271C297.716 202.255 298.063 202.214 298.406 202.151C298.748 202.089 299.09 202.005 299.422 201.896C299.759 201.792 300.08 201.667 300.401 201.521C300.717 201.375 301.022 201.214 301.323 201.026C301.617 200.844 301.902 200.641 302.176 200.422C302.444 200.203 302.702 199.969 302.939 199.719C303.181 199.464 303.408 199.203 303.613 198.922C303.824 198.641 304.013 198.354 304.182 198.047C304.35 197.745 304.503 197.432 304.635 197.115C304.761 196.792 304.872 196.464 304.961 196.13C305.051 195.792 305.119 195.453 305.166 195.109C305.209 194.766 305.235 194.422 305.235 194.078C305.235 193.729 305.219 193.385 305.177 193.042C305.135 192.698 305.072 192.354 304.982 192.021C304.951 191.885 304.914 191.755 304.877 191.625C304.361 189.714 303.682 187.865 302.844 186.073C302.007 184.276 301.028 182.563 299.896 180.938C298.769 179.307 297.51 177.781 296.12 176.365C294.73 174.943 293.23 173.651 291.618 172.484C290.007 171.318 288.312 170.292 286.521 169.412C284.736 168.526 282.888 167.802 280.977 167.229C279.065 166.656 277.122 166.245 275.137 165.995C273.158 165.75 271.172 165.672 269.177 165.755L268.603 165.781C268.571 164.099 268.355 162.438 267.966 160.797C267.576 159.156 267.013 157.573 266.286 156.052C265.554 154.531 264.67 153.099 263.632 151.76C262.6 150.427 261.431 149.208 260.136 148.12C251.669 141.323 243.75 145.823 243.75 145.823Z" fill="white"/>
</mask>
<g mask="url(#mask23_40_6059)">
<path d="M305.235 115.526V259.438H150.888V115.526H305.235Z" fill="url(#paint11_linear_40_6059)"/>
</g>
</g>
<mask id="mask24_40_6059" style="mask-type:luminance" maskUnits="userSpaceOnUse" x="312" y="313" width="61" height="98">
<path d="M372.038 313.333H312.727V410.667H372.038V313.333Z" fill="white"/>
</mask>
<g mask="url(#mask24_40_6059)">
<mask id="mask25_40_6059" style="mask-type:luminance" maskUnits="userSpaceOnUse" x="313" y="313" width="59" height="97">
<path d="M358.616 313.542C358.616 313.542 329.172 321.833 313.054 340.271L320.036 378.568C320.436 380.76 321.231 382.807 322.421 384.703C323.611 386.599 325.112 388.208 326.928 389.536L351.571 407.562C352.129 407.974 352.724 408.328 353.351 408.62C353.977 408.917 354.63 409.151 355.304 409.318C355.983 409.484 356.668 409.588 357.363 409.62C358.058 409.656 358.748 409.62 359.437 409.521C360.127 409.417 360.801 409.25 361.454 409.021C362.112 408.786 362.734 408.495 363.334 408.135C363.929 407.781 364.487 407.375 364.998 406.906C365.514 406.443 365.977 405.937 366.393 405.38C367.852 403.385 369.084 401.265 370.095 399.015C370.8 397.406 371.285 395.729 371.548 393.995C371.811 392.255 371.843 390.515 371.643 388.771C371.443 387.026 371.022 385.338 370.374 383.703C369.721 382.068 368.873 380.547 367.82 379.13L356.083 363.135L358.616 313.542Z" fill="white"/>
</mask>
<g mask="url(#mask25_40_6059)">
<path d="M371.843 313.542V409.656H313.054V313.542H371.843Z" fill="url(#paint12_linear_40_6059)"/>
</g>
</g>
<mask id="mask26_40_6059" style="mask-type:luminance" maskUnits="userSpaceOnUse" x="9" y="152" width="102" height="102">
<path d="M110.533 152H9.43554V253.333H110.533V152Z" fill="white"/>
</mask>
<g mask="url(#mask26_40_6059)">
<mask id="mask27_40_6059" style="mask-type:luminance" maskUnits="userSpaceOnUse" x="10" y="152" width="100" height="102">
<path d="M60.6478 152.609C60.6478 152.609 107.563 145.401 109.232 201.906C109.406 206.323 109.001 210.682 108.021 214.995C107.042 219.307 105.515 223.422 103.446 227.339C103.182 227.828 102.903 228.328 102.614 228.828C85.3745 258.516 42.4345 261.578 21.2831 234.479C18.4819 230.797 16.2282 226.807 14.5328 222.516C12.8373 218.219 11.7526 213.781 11.284 209.193C5.98688 166.229 36.5793 156.099 60.6478 152.609Z" fill="white"/>
</mask>
<g mask="url(#mask27_40_6059)">
<path d="M109.406 145.401V261.578H5.987V145.401H109.406Z" fill="url(#paint13_linear_40_6059)"/>
</g>
</g>
<path d="M166.779 190.443C182.043 185.057 184.829 178.687 184.829 178.687L183.223 172.12C183.223 172.12 204.737 162.125 216.948 150.125C217.343 149.739 217.817 149.505 218.365 149.432C218.917 149.354 219.433 149.453 219.918 149.724C220.402 149.995 220.75 150.385 220.971 150.89C221.187 151.401 221.229 151.917 221.092 152.453C217.812 164.969 207.512 186.828 175.224 195.755C170.907 196.948 168.506 201.573 169.032 205.979C169.964 213.75 172.244 226.031 177.789 236.969C178.163 237.682 178.594 238.354 179.1 238.979C179.605 239.604 180.163 240.177 180.78 240.693C181.401 241.208 182.064 241.661 182.77 242.047C183.475 242.437 184.218 242.75 184.987 242.989C185.761 243.234 186.545 243.401 187.351 243.484C188.156 243.573 188.957 243.583 189.762 243.515C190.568 243.443 191.363 243.297 192.137 243.073C192.916 242.849 193.659 242.547 194.375 242.177C215.6 231.161 234.735 217.323 251.779 200.651C254.954 197.484 258.545 194.875 262.552 192.833C266.559 190.786 270.788 189.406 275.237 188.682C279.892 187.812 284.478 188.083 288.99 189.5C297.952 192.62 298.458 184.292 297.736 178.14C301.133 182.099 303.513 186.588 304.871 191.604C304.908 191.734 304.945 191.875 304.982 192.015C305.066 192.349 305.129 192.687 305.171 193.031C305.213 193.375 305.234 193.724 305.234 194.068C305.229 194.417 305.208 194.76 305.161 195.104C305.119 195.448 305.05 195.786 304.961 196.12C304.871 196.458 304.76 196.786 304.629 197.104C304.497 197.427 304.35 197.739 304.176 198.042C304.008 198.344 303.818 198.635 303.613 198.917C303.402 199.193 303.181 199.458 302.939 199.708C302.696 199.963 302.444 200.198 302.17 200.417C301.901 200.635 301.617 200.838 301.317 201.021C301.022 201.203 300.717 201.37 300.395 201.515C300.079 201.661 299.753 201.786 299.421 201.89C299.084 201.995 298.747 202.078 298.405 202.14C298.058 202.208 297.71 202.245 297.362 202.265C297.015 202.286 296.662 202.286 296.315 202.26C295.962 202.234 295.62 202.193 295.272 202.125C294.651 202 294.029 201.89 293.413 201.792C290.412 201.359 287.395 201.25 284.367 201.474C281.345 201.698 278.375 202.245 275.474 203.12C272.567 203.989 269.798 205.167 267.154 206.646C264.516 208.125 262.068 209.87 259.814 211.88C234.082 234.437 205.311 250.443 190.558 257.932C189.831 258.307 189.067 258.614 188.283 258.849C187.493 259.083 186.693 259.245 185.877 259.333C185.055 259.417 184.239 259.432 183.418 259.364C182.596 259.302 181.791 259.167 180.995 258.953C180.2 258.739 179.437 258.453 178.694 258.099C177.952 257.745 177.252 257.328 176.588 256.844C175.93 256.359 175.319 255.818 174.756 255.224C174.198 254.625 173.697 253.984 173.26 253.297C162.324 235.828 159.928 212.745 159.302 201.484C159.238 200.286 159.365 199.114 159.691 197.958C160.012 196.802 160.507 195.729 161.181 194.734C161.855 193.739 162.672 192.875 163.63 192.14C164.588 191.406 165.636 190.838 166.779 190.443Z" fill="#4F4F68"/>
<path d="M180.801 109.328C181.285 109.328 181.748 109.245 182.201 109.073C183.349 108.641 184.855 108.172 184.876 108.167C185.376 108.01 185.829 107.766 186.229 107.427C186.63 107.094 186.951 106.698 187.193 106.24C187.435 105.781 187.577 105.292 187.625 104.776C187.667 104.26 187.614 103.755 187.456 103.26C187.298 102.766 187.051 102.318 186.714 101.922C186.377 101.526 185.977 101.208 185.513 100.969C185.05 100.729 184.555 100.583 184.034 100.542C183.512 100.495 183.002 100.547 182.501 100.703C182.428 100.729 180.732 101.26 179.39 101.766C178.958 101.927 178.568 102.156 178.221 102.453C177.868 102.755 177.578 103.104 177.352 103.5C177.125 103.901 176.973 104.323 176.899 104.776C176.82 105.224 176.825 105.677 176.909 106.125C176.994 106.578 177.152 107 177.383 107.396C177.615 107.787 177.91 108.13 178.268 108.427C178.621 108.719 179.016 108.943 179.453 109.099C179.884 109.255 180.332 109.333 180.795 109.333L180.801 109.328Z" fill="#E78582"/>
<path d="M163.53 111.641C164.009 111.641 164.478 111.557 164.925 111.391C165.378 111.219 165.784 110.979 166.147 110.661C166.51 110.349 166.8 109.979 167.026 109.557C167.253 109.135 167.395 108.687 167.453 108.213C167.511 107.739 167.484 107.271 167.369 106.807C167.258 106.344 167.063 105.917 166.789 105.521C166.521 105.125 166.184 104.792 165.789 104.521C165.394 104.25 164.962 104.052 164.494 103.937C164.494 103.937 163.33 103.646 161.787 103.333C161.271 103.234 160.76 103.229 160.244 103.328C159.728 103.427 159.254 103.62 158.817 103.906C158.38 104.193 158.017 104.552 157.722 104.979C157.433 105.411 157.232 105.88 157.127 106.385C157.022 106.896 157.017 107.401 157.117 107.911C157.217 108.422 157.411 108.891 157.701 109.323C157.991 109.755 158.349 110.114 158.786 110.406C159.218 110.698 159.691 110.896 160.202 111C161.529 111.266 162.524 111.516 162.561 111.531C162.882 111.604 163.204 111.646 163.53 111.641Z" fill="#E78582"/>
<mask id="mask28_40_6059" style="mask-type:luminance" maskUnits="userSpaceOnUse" x="5" y="88" width="110" height="171">
<path d="M114.577 88H5.39171V258.667H114.577V88Z" fill="white"/>
</mask>
<g mask="url(#mask28_40_6059)">
<mask id="mask29_40_6059" style="mask-type:luminance" maskUnits="userSpaceOnUse" x="6" y="88" width="108" height="170">
<path d="M106.611 231.099C105.51 232.984 104.299 234.792 102.972 236.531C101.645 238.266 100.218 239.917 98.686 241.479C97.1537 243.042 95.5319 244.505 93.8207 245.875C92.1094 247.24 90.3139 248.495 88.4446 249.641C86.5754 250.792 84.6429 251.823 82.6473 252.734C80.6517 253.646 78.6034 254.432 76.5078 255.094C74.4121 255.76 72.2849 256.292 70.1207 256.698C67.9619 257.099 65.782 257.37 63.5863 257.51C62.3384 257.599 61.0957 257.641 59.8531 257.635C55.7828 257.651 51.76 257.208 47.7899 256.307C43.8249 255.412 40.0075 254.078 36.348 252.313C32.6885 250.547 29.2764 248.391 26.1172 245.854C22.9526 243.313 20.125 240.448 17.6292 237.266C14.5805 233.255 12.1268 228.912 10.2733 224.24C8.41988 219.568 7.22988 214.74 6.70333 209.745C4.16011 189.052 9.29395 173.193 21.9838 162.609C25.0641 160.063 28.3971 157.901 31.9829 156.12C31.6459 149.589 33.1413 144.089 36.2953 139.813C20.7937 126.99 22.0785 106.594 25.2273 96.9844C25.4168 96.3959 25.7222 95.8646 26.1382 95.3959C26.5489 94.9219 27.0386 94.5521 27.6073 94.2813C28.1759 94.0105 28.7709 93.8646 29.4028 93.8334C30.0294 93.8073 30.6402 93.9011 31.2299 94.1198C38.67 96.7657 45.2414 100.797 50.9544 106.203C53.724 102.344 56.9834 98.9428 60.7271 95.9948C64.4656 93.0469 68.5464 90.6667 72.9641 88.8542C73.5117 88.6615 74.0804 88.573 74.6596 88.5938C75.2441 88.6094 75.8022 88.7344 76.3393 88.9636C76.8711 89.1928 77.3502 89.5105 77.761 89.9167C78.1769 90.323 78.4981 90.7917 78.7351 91.3178C80.7149 95.5261 81.9786 99.9376 82.5157 104.552C83.0528 109.162 82.8421 113.745 81.8786 118.287C80.7412 122.974 78.456 127.026 75.0176 130.443C74.1646 131.333 73.4222 132.307 72.7851 133.365C75.3652 134.948 77.5609 136.943 79.3775 139.349C81.1993 141.755 82.5104 144.401 83.3213 147.297C83.653 148.526 83.9163 149.776 84.1006 151.037C88.4604 152.693 92.4358 154.99 96.0322 157.938C107.263 167.177 113.256 181.927 113.829 201.771C114.014 206.583 113.571 211.344 112.497 216.042C111.428 220.74 109.759 225.224 107.506 229.49C107.221 230.021 106.926 230.557 106.611 231.099ZM32.9096 104.745C31.8355 111.885 31.7775 125.094 43.3247 133.688C43.3405 133.677 43.3616 133.667 43.3774 133.656C42.9877 127.104 43.9882 120.771 46.384 114.646C42.5612 110.458 38.0698 107.156 32.9096 104.745ZM72.8851 116.276C73.4854 113.469 73.7065 110.63 73.5486 107.76C73.3853 104.891 72.8535 102.094 71.9479 99.3646C65.2765 103.005 52.8974 112.208 52.5393 130.391C53.8767 130.115 55.251 129.88 56.7148 129.729C59.2001 129.469 61.6749 129.568 64.1339 130.031C65.2502 127.87 66.6508 125.906 68.341 124.146C70.5946 121.938 72.1058 119.318 72.8851 116.276ZM57.6995 138.797C44.5305 140.193 41.6082 147.099 41.1606 152.354C47.3002 150.38 53.5713 148.964 59.9636 148.094C64.6499 147.531 69.3204 147.625 73.9751 148.375C73.6539 147.599 73.2748 146.849 72.8325 146.135C72.3902 145.417 71.8899 144.74 71.3371 144.104C70.7842 143.469 70.1839 142.88 69.531 142.339C68.8834 141.797 68.1936 141.313 67.4617 140.885C66.7298 140.458 65.9715 140.089 65.1817 139.781C64.3919 139.474 63.581 139.229 62.7543 139.052C61.9224 138.875 61.0852 138.766 60.2374 138.724C59.3897 138.682 58.542 138.708 57.6995 138.802V138.797ZM90.2085 165.016C81.7311 157.995 71.316 156.891 65.603 156.891C64.176 156.875 62.7543 156.953 61.3379 157.12H61.3116C26.1119 162.229 12.1004 178.12 15.86 208.641C16.2865 212.813 17.2711 216.859 18.8087 220.771C20.3462 224.682 22.3892 228.318 24.9324 231.682C25.4906 232.385 26.075 233.073 26.6753 233.74C27.2808 234.406 27.9074 235.057 28.5498 235.688C29.1922 236.318 29.8556 236.932 30.5349 237.521C31.2141 238.115 31.9144 238.682 32.6305 239.229C33.3466 239.781 34.0785 240.307 34.8262 240.813C35.5739 241.318 36.3374 241.797 37.1167 242.255C37.896 242.719 38.6858 243.151 39.4915 243.563C40.2971 243.974 41.1132 244.359 41.9399 244.724C42.7719 245.083 43.6091 245.422 44.4568 245.734C45.3098 246.047 46.1681 246.333 47.0316 246.594C47.9004 246.854 48.7745 247.089 49.6538 247.292C50.5384 247.5 51.423 247.682 52.3182 247.839C53.208 247.99 54.1032 248.12 55.0036 248.219C55.904 248.318 56.8096 248.391 57.71 248.438C58.6157 248.484 59.5213 248.5 60.427 248.495C61.3327 248.484 62.2383 248.448 63.144 248.385C64.0444 248.323 64.9448 248.234 65.8452 248.115C66.7456 248 67.6354 247.854 68.5253 247.682C69.4152 247.516 70.2998 247.318 71.1738 247.094C72.0532 246.87 72.922 246.62 73.7855 246.344C74.6438 246.063 75.4968 245.766 76.3393 245.438C77.1818 245.109 78.019 244.755 78.8404 244.375C79.6618 244 80.4674 243.599 81.2678 243.172C82.0629 242.745 82.8474 242.297 83.6162 241.823C84.3849 241.349 85.1379 240.849 85.8751 240.333C86.6175 239.813 87.3389 239.271 88.0444 238.708C88.75 238.151 89.4345 237.568 90.1032 236.964C90.7772 236.359 91.4249 235.734 92.0567 235.094C92.6886 234.448 93.2994 233.787 93.8891 233.109C94.4788 232.427 95.0475 231.734 95.5951 231.021C96.1427 230.302 96.6693 229.573 97.1748 228.828C97.675 228.083 98.1542 227.323 98.6122 226.552C98.8808 226.089 99.1335 225.635 99.381 225.177C101.256 221.609 102.64 217.865 103.53 213.943C104.415 210.021 104.783 206.047 104.62 202.031C104.12 184.969 99.2652 172.51 90.2085 165.016Z" fill="white"/>
</mask>
<g mask="url(#mask29_40_6059)">
<path d="M114.014 88.573V257.651H4.16V88.573H114.014Z" fill="url(#paint14_linear_40_6059)"/>
</g>
</g>
<mask id="mask30_40_6059" style="mask-type:luminance" maskUnits="userSpaceOnUse" x="0" y="0" width="430" height="432">
<path d="M430 0H9.53674e-07V432H430V0Z" fill="white"/>
</mask>
<g mask="url(#mask30_40_6059)">
<mask id="mask31_40_6059" style="mask-type:luminance" maskUnits="userSpaceOnUse" x="0" y="-1" width="430" height="434">
<path d="M11.4101 298.047C12.1999 297.323 13.0424 296.672 13.9322 296.083C14.8274 295.495 15.7646 294.979 16.744 294.537C17.7181 294.099 18.7238 293.735 19.7611 293.453C20.7931 293.167 21.8462 292.964 22.9151 292.849C23.9788 292.729 25.0477 292.693 26.1218 292.74C27.196 292.792 28.2596 292.922 29.3074 293.141C30.3605 293.354 31.3873 293.651 32.393 294.026C33.3987 294.406 34.3675 294.854 35.2995 295.386C44.5141 300.599 62.9222 309.339 82.652 309.339C111.433 309.339 128.177 294.662 137.16 282.354C137.176 282.333 137.197 282.318 137.208 282.297C141.015 256.531 146.843 231.224 154.705 206.37C154.779 206.162 154.868 205.958 154.973 205.761C154.863 204.386 154.768 203.031 154.694 201.745C154.657 200.906 154.684 200.068 154.773 199.235C154.868 198.401 155.031 197.583 155.258 196.771C155.484 195.964 155.774 195.177 156.126 194.417C156.479 193.656 156.89 192.922 157.364 192.224C157.832 191.531 158.359 190.875 158.933 190.261C159.512 189.641 160.134 189.078 160.802 188.563C161.471 188.047 162.177 187.583 162.919 187.177C163.661 186.776 164.43 186.432 165.225 186.146C174.098 183.021 178.11 179.656 179.726 177.912L176.067 178.99C175.272 179.224 174.471 179.245 173.666 179.052C172.855 178.86 172.155 178.474 171.56 177.906C168.237 174.688 165.194 171.229 162.429 167.531C159.67 163.833 157.222 159.943 155.084 155.854C152.951 151.771 151.161 147.542 149.708 143.172C148.255 138.807 147.165 134.349 146.433 129.807C146.275 128.833 146.243 127.854 146.333 126.87C146.427 125.886 146.638 124.927 146.975 123.995C147.312 123.068 147.76 122.193 148.313 121.37C148.871 120.552 149.524 119.813 150.271 119.156C149.16 113.328 148.486 107.453 148.234 101.531C141.13 102.636 136.302 102.912 135.649 102.948C135.57 102.948 135.496 102.948 135.417 102.948C134.812 102.948 134.227 102.833 133.664 102.604C133.101 102.375 132.6 102.047 132.169 101.625C131.737 101.203 131.405 100.714 131.168 100.156C130.931 99.6043 130.81 99.0262 130.805 98.422C130.663 81.6251 132.911 70.9897 135.075 64.6772L120.037 65.5053C119.131 65.5522 118.283 65.3543 117.494 64.9116C116.704 64.4637 116.104 63.8439 115.682 63.047C115.266 62.2501 115.103 61.4012 115.187 60.5053C115.277 59.6147 115.603 58.8126 116.172 58.1095C161.908 1.16679 218.496 0.00533704 220.887 -0.0154963C221.877 -0.0311216 222.777 0.250129 223.583 0.817837C234.466 8.4168 241.385 20.3595 243.955 25.3699L254.428 26.9949C255.27 27.1251 256.023 27.4585 256.676 28.0053C257.329 28.547 257.798 29.2137 258.077 30.0158C266.749 54.922 256.413 75.0783 251.137 83.1095C252.085 84.2345 252.832 85.4741 253.385 86.8335C255.581 92.2345 254.759 99.1408 250.937 107.349C248.962 111.401 246.493 115.13 243.528 118.542C245.476 121.745 246.924 125.162 247.867 128.781C248.809 132.401 249.21 136.083 249.067 139.818C251.158 139.708 253.217 139.922 255.233 140.469C257.255 141.016 259.135 141.865 260.878 143.021C268.039 137.224 275.99 132.833 284.736 129.849C287.811 128.761 290.965 127.974 294.193 127.485C297.42 126.995 300.664 126.818 303.928 126.943C307.188 127.073 310.41 127.511 313.591 128.25C316.766 128.99 319.846 130.026 322.821 131.349C355.293 145.787 380.267 142.443 391.646 139.469L367.177 116.797C365.84 115.568 364.366 114.516 362.77 113.636C361.169 112.761 359.49 112.083 357.726 111.61C355.962 111.136 354.166 110.88 352.339 110.839C350.512 110.792 348.706 110.969 346.921 111.36C329.819 115.011 310.305 114.386 308.673 114.328H308.104C288.137 114.328 272.23 119.349 260.809 129.255C260.351 129.662 259.835 129.969 259.251 130.172C258.666 130.375 258.071 130.458 257.45 130.422C256.834 130.386 256.25 130.235 255.697 129.964C255.144 129.698 254.659 129.333 254.254 128.875C253.848 128.417 253.543 127.896 253.348 127.318C253.153 126.74 253.08 126.146 253.122 125.537C253.169 124.927 253.327 124.349 253.606 123.802C253.885 123.261 254.259 122.787 254.733 122.391C267.876 110.979 285.831 105.198 308.104 105.198C308.383 105.198 308.673 105.198 308.952 105.198C309.141 105.208 328.655 105.917 344.978 102.432C347.49 101.886 350.033 101.646 352.608 101.714C355.177 101.776 357.705 102.146 360.19 102.813C362.67 103.485 365.04 104.438 367.288 105.677C369.536 106.917 371.6 108.401 373.485 110.136L403.557 138.011C403.83 138.261 404.073 138.542 404.273 138.854C404.478 139.167 404.641 139.495 404.762 139.844C404.889 140.193 404.962 140.552 404.999 140.922C405.031 141.292 405.02 141.656 404.968 142.026C404.91 142.391 404.81 142.745 404.668 143.089C404.525 143.427 404.341 143.75 404.12 144.047C403.894 144.344 403.641 144.61 403.351 144.849C403.067 145.083 402.751 145.281 402.414 145.443C401.092 146.078 370.732 160.125 325.227 142.25C326.586 143.813 327.918 145.443 329.213 147.172C333.905 153.547 339.049 159.547 344.636 165.172C351.755 172.422 359.542 178.886 367.999 184.552C368.699 185.005 369.241 185.604 369.615 186.349C369.989 187.089 370.147 187.875 370.084 188.703C370.026 189.537 369.757 190.292 369.278 190.974C368.799 191.656 368.183 192.172 367.42 192.521C359.521 195.75 351.297 197.344 342.751 197.297C341.893 197.297 341.018 197.281 340.134 197.245C338.417 197.172 336.717 196.974 335.032 196.651C333.341 196.328 331.688 195.886 330.066 195.323C328.445 194.761 326.875 194.089 325.354 193.297C323.832 192.511 322.379 191.615 320.989 190.615C319.599 189.615 318.287 188.521 317.061 187.333C315.834 186.146 314.702 184.87 313.659 183.521C312.622 182.167 311.69 180.745 310.858 179.255C310.031 177.766 309.315 176.229 308.709 174.636C307.63 171.828 306.372 168.818 304.966 165.688C302.97 161.099 300.179 157.042 296.599 153.516C287.937 145.188 278.333 143.979 268.018 149.849C270.424 153.297 272.004 157.083 272.752 161.208C274.842 161.323 276.917 161.599 278.965 162.031C281.013 162.464 283.019 163.057 284.973 163.802C286.931 164.542 288.817 165.432 290.633 166.469C292.45 167.505 294.172 168.677 295.804 169.979C297.436 171.281 298.953 172.703 300.358 174.24C301.764 175.776 303.044 177.412 304.192 179.151C305.34 180.886 306.345 182.698 307.204 184.589C308.067 186.479 308.773 188.422 309.331 190.427L309.452 190.88C309.726 191.922 309.863 192.99 309.863 194.068C309.863 195.146 309.726 196.208 309.452 197.255C309.178 198.302 308.773 199.297 308.246 200.24C307.714 201.182 307.072 202.047 306.319 202.828C305.856 203.302 305.361 203.74 304.829 204.146C329.798 226.016 352.481 257.162 359.611 268.172C361.47 271.026 362.839 274.099 363.723 277.38C364.603 280.667 364.95 284.005 364.771 287.396L363.218 313.807L362.818 321.719C387.955 277.948 421.306 238.115 421.691 237.667C421.991 237.307 422.344 237.005 422.739 236.75C423.134 236.5 423.56 236.313 424.013 236.188C424.471 236.063 424.934 236.011 425.403 236.026C425.872 236.047 426.33 236.13 426.777 236.287C427.22 236.443 427.63 236.662 428.009 236.943C428.383 237.224 428.71 237.552 428.984 237.932C429.257 238.313 429.468 238.724 429.615 239.167C429.763 239.61 429.842 240.063 429.847 240.531C430.905 325.037 389.877 372.38 375.844 386.047C376.387 388.537 376.524 391.047 376.26 393.583C375.997 396.115 375.344 398.547 374.302 400.88C373.159 403.417 371.769 405.813 370.121 408.063C368.941 409.672 367.499 410.995 365.782 412.031C364.065 413.063 362.212 413.729 360.227 414.026C359.448 414.141 358.663 414.203 357.873 414.203C355.978 414.198 354.151 413.86 352.392 413.177L344.083 423.125C343.625 423.677 343.119 424.182 342.567 424.651C342.014 425.115 341.429 425.526 340.808 425.891C340.181 426.255 339.534 426.563 338.854 426.813C338.175 427.068 337.48 427.255 336.769 427.391C336.058 427.521 335.342 427.589 334.616 427.594C333.894 427.604 333.173 427.547 332.462 427.432C331.746 427.313 331.046 427.136 330.366 426.901C329.682 426.662 329.024 426.37 328.392 426.016L324.595 423.906C323.921 423.537 323.29 423.11 322.7 422.62C322.105 422.136 321.563 421.599 321.073 421.011C320.578 420.422 320.146 419.797 319.772 419.13C319.404 418.464 319.093 417.766 318.851 417.047C318.609 416.323 318.435 415.583 318.335 414.828C318.229 414.073 318.198 413.313 318.24 412.552C318.282 411.792 318.393 411.042 318.572 410.297C318.756 409.557 319.004 408.839 319.319 408.146L325.591 394.24L324.185 393.214C321.9 391.542 320.004 389.516 318.498 387.125C316.997 384.735 315.997 382.156 315.497 379.386L308.52 341.089C308.394 340.412 308.425 339.74 308.609 339.078C308.794 338.412 309.115 337.818 309.568 337.297C313.917 332.443 318.819 328.214 324.274 324.62V291.417L274.51 260.339C265.296 254.583 259.135 243.287 259.519 232.865C259.651 226.656 260.915 220.677 263.321 214.938C263.174 215.057 263.021 215.177 262.874 215.307C236.794 238.162 207.691 254.375 192.658 262C191.674 262.5 190.647 262.906 189.583 263.219C188.52 263.531 187.435 263.74 186.335 263.854C185.229 263.969 184.123 263.979 183.017 263.891C181.912 263.797 180.827 263.61 179.758 263.318C178.684 263.031 177.652 262.646 176.657 262.167C175.656 261.688 174.714 261.12 173.818 260.469C172.929 259.813 172.107 259.083 171.349 258.281C170.596 257.479 169.922 256.61 169.327 255.682C164.004 246.766 160.276 237.235 158.148 227.089C142.378 284.844 140.035 341.188 139.688 357.266H225.936C227.49 355.86 229.253 354.776 231.217 354.026C233.187 353.271 235.219 352.896 237.331 352.896H241.764L236.915 330.016C236.451 327.807 236.209 325.573 236.199 323.318C236.183 321.063 236.399 318.828 236.836 316.615C237.278 314.401 237.931 312.25 238.805 310.167C239.679 308.083 240.753 306.104 242.022 304.235C249.636 293.042 256.602 281.464 262.916 269.505C263.189 268.953 263.563 268.479 264.032 268.078C264.506 267.677 265.032 267.386 265.622 267.193C266.212 267.005 266.817 266.938 267.433 266.99C268.055 267.042 268.639 267.208 269.187 267.495C269.734 267.781 270.208 268.162 270.603 268.63C270.998 269.104 271.282 269.636 271.462 270.224C271.641 270.813 271.693 271.412 271.63 272.021C271.562 272.63 271.377 273.203 271.082 273.74C264.606 286 257.466 297.87 249.662 309.344C248.736 310.708 247.956 312.151 247.319 313.667C246.682 315.188 246.203 316.755 245.887 318.37C245.566 319.979 245.413 321.61 245.424 323.255C245.429 324.901 245.608 326.526 245.945 328.136L251.189 352.891H260.225C262.352 352.891 264.448 353.162 266.501 353.698C268.56 354.235 270.514 355.016 272.367 356.052C274.221 357.089 275.911 358.344 277.438 359.807C278.96 361.276 280.276 362.912 281.371 364.714C285.252 371.292 288.432 378.177 290.928 385.38C293.419 392.583 295.172 399.958 296.188 407.5C296.293 408.261 296.357 409.026 296.383 409.792C296.409 410.557 296.394 411.323 296.336 412.089C296.278 412.849 296.178 413.61 296.035 414.365C295.899 415.12 295.714 415.865 295.493 416.599C295.277 417.333 295.014 418.057 294.719 418.761C294.419 419.469 294.082 420.162 293.713 420.833C293.34 421.505 292.929 422.156 292.487 422.781C292.044 423.412 291.57 424.016 291.06 424.594C290.554 425.172 290.017 425.724 289.448 426.245C288.88 426.766 288.285 427.261 287.663 427.719C287.042 428.177 286.4 428.604 285.736 428.995C285.067 429.386 284.383 429.74 283.677 430.057C282.972 430.375 282.25 430.656 281.519 430.896C280.781 431.141 280.034 431.344 279.281 431.505C278.523 431.672 277.759 431.792 276.985 431.875C276.216 431.958 275.442 432 274.668 432.005H255.312C253.864 432 252.422 431.886 250.984 431.667C249.552 431.448 248.141 431.12 246.756 430.688C245.371 430.255 244.028 429.724 242.728 429.094C241.422 428.458 240.174 427.735 238.984 426.912C237.794 426.094 236.672 425.188 235.619 424.198C234.566 423.208 233.592 422.151 232.702 421.016C231.812 419.88 231.012 418.688 230.307 417.432C229.596 416.177 228.99 414.88 228.479 413.531H207.754C206.554 413.531 205.364 413.417 204.184 413.182C203.01 412.948 201.862 412.604 200.757 412.151C199.646 411.693 198.593 411.136 197.592 410.474C196.592 409.813 195.67 409.063 194.822 408.224C193.969 407.38 193.211 406.469 192.543 405.479C191.879 404.49 191.31 403.448 190.852 402.349C190.394 401.255 190.047 400.12 189.81 398.958C189.573 397.792 189.457 396.615 189.452 395.422V366.38H139.63V427.432C139.63 427.448 139.63 427.464 139.63 427.474H130.415C130.415 427.464 130.415 427.448 130.415 427.432V361.849C130.415 361.61 130.415 354.167 131.073 341.839C119.774 347.146 107.874 350.12 95.3839 350.766L98.7696 366.344C98.8381 366.662 98.8697 366.979 98.8697 367.297C98.8697 367.62 98.8381 367.938 98.7696 368.255C98.7012 368.568 98.6011 368.87 98.4695 369.167C98.3379 369.458 98.1746 369.735 97.9851 369.995C97.7903 370.255 97.5744 370.49 97.3322 370.703C97.0899 370.917 96.8319 371.104 96.5476 371.266C96.2633 371.427 95.9684 371.552 95.6577 371.651C95.3523 371.75 95.0364 371.813 94.7099 371.844C94.4835 371.87 92.5564 372.047 89.3813 372.047C78.408 371.995 67.7244 370.24 57.325 366.781C38.8432 360.594 14.1113 345.912 1.24242 311.099C0.921231 310.229 0.873842 309.349 1.09499 308.448C1.31614 307.552 1.76897 306.792 2.45875 306.167L11.4101 298.047ZM303.033 146.974C307.462 151.318 310.916 156.318 313.385 161.985C314.86 165.266 316.186 168.432 317.324 171.396C317.766 172.573 318.293 173.714 318.903 174.813C319.514 175.912 320.204 176.964 320.973 177.964C321.736 178.964 322.573 179.901 323.479 180.781C324.385 181.662 325.348 182.474 326.375 183.214C327.397 183.953 328.471 184.615 329.592 185.198C330.719 185.781 331.878 186.281 333.073 186.698C334.273 187.115 335.49 187.443 336.738 187.682C337.986 187.922 339.239 188.073 340.508 188.13C345.489 188.318 350.407 187.865 355.272 186.781C349.217 182.089 343.493 177.031 338.096 171.615C332.188 165.672 326.754 159.333 321.794 152.599C317.008 145.912 311.089 140.412 304.044 136.099C298.742 135.839 293.582 136.547 288.548 138.219C294.087 139.99 298.91 142.906 303.033 146.974ZM250.184 35.573L240.137 34.0158C239.363 33.896 238.663 33.5991 238.036 33.1199C237.415 32.646 236.946 32.0522 236.63 31.3439C236.567 31.198 230.354 17.4428 219.502 9.18242C211.082 9.7345 167.868 14.547 130.22 55.8126L142.226 55.146C143.126 55.0991 143.974 55.297 144.758 55.7397C145.548 56.1824 146.148 56.8022 146.57 57.5939C146.986 58.3908 147.154 59.2345 147.07 60.1251C146.986 61.0158 146.664 61.8126 146.106 62.521C146.048 62.5939 140.583 70.5522 140.062 93.3856C153.646 91.8439 192.027 85.422 209.329 61.0678C210.066 60.0314 211.066 59.4116 212.33 59.198C212.588 59.1564 212.841 59.1355 213.099 59.1355C214.089 59.1355 214.984 59.422 215.79 59.9897C216.764 60.6824 223.988 66.2762 227.721 82.1668C228.611 81.448 229.564 80.823 230.575 80.2866C232.492 79.297 234.519 78.6668 236.662 78.3908C238.805 78.1199 240.932 78.2189 243.038 78.698C247.051 72.8126 256.234 56.3178 250.184 35.573ZM243.16 88.1616C239.884 87.1095 237.199 87.1564 234.972 88.3126C230.938 90.4116 229.422 95.5626 229.411 95.5835C229.275 96.1043 229.043 96.5835 228.732 97.021C228.421 97.4585 228.042 97.8335 227.6 98.1408C227.153 98.4481 226.668 98.6668 226.147 98.8074C225.62 98.9428 225.088 98.9897 224.546 98.9428C224.009 98.8908 223.493 98.7553 223.003 98.5262C222.508 98.297 222.071 97.9949 221.692 97.6147C221.308 97.2345 221.002 96.797 220.776 96.3126C220.55 95.8231 220.413 95.3126 220.365 94.7814C219.286 82.1043 215.848 74.7241 213.294 70.8751C198.356 88.0991 174.698 96.1251 157.406 99.8387C157.574 105.177 158.112 110.479 159.022 115.75C162.75 115.068 166.515 114.698 170.306 114.641C174.098 114.583 177.868 114.839 181.617 115.406C185.366 115.974 189.041 116.849 192.643 118.031C196.244 119.208 199.725 120.677 203.073 122.432C203.532 122.682 204.016 122.854 204.527 122.953C205.038 123.052 205.554 123.073 206.07 123.021C206.586 122.964 207.086 122.828 207.56 122.625C208.039 122.417 208.471 122.141 208.866 121.802C222.403 110.271 235.388 110.917 235.93 110.953C236.493 110.99 237.036 111.13 237.547 111.365C239.526 108.953 241.196 106.344 242.559 103.542C247.177 93.6199 245.155 89.2449 243.16 88.1616ZM371.548 376.448C371.685 376.625 371.795 376.807 371.916 376.99C386.133 362.224 417.563 322.099 420.432 253.865C406.948 271.011 380.041 306.943 362.044 342.432C361.949 342.599 361.849 342.761 361.733 342.912L360.775 361.755L371.548 376.448ZM329.113 415.943L332.91 418.052C333.241 418.235 333.589 418.354 333.963 418.417C334.337 418.479 334.71 418.474 335.079 418.406C335.453 418.339 335.8 418.208 336.127 418.016C336.448 417.828 336.732 417.589 336.975 417.302L344.615 408.151L333.183 399.787L327.744 411.86C327.576 412.219 327.486 412.604 327.465 413C327.444 413.396 327.497 413.787 327.623 414.162C327.749 414.542 327.939 414.886 328.197 415.193C328.455 415.5 328.76 415.75 329.113 415.943ZM318.003 341.667L324.58 377.755C324.869 379.38 325.459 380.896 326.338 382.297C327.218 383.698 328.334 384.886 329.677 385.865L354.314 403.891C355.662 404.886 357.168 405.255 358.832 404.995C360.432 404.761 361.712 403.995 362.665 402.693C363.934 400.958 365.008 399.11 365.887 397.146C366.43 395.901 366.798 394.61 366.998 393.271C367.198 391.927 367.214 390.583 367.056 389.24C366.898 387.896 366.567 386.589 366.066 385.328C365.561 384.073 364.903 382.896 364.087 381.807L352.355 365.813C351.718 364.943 351.428 363.969 351.481 362.896L353.677 320.021C344.894 323.271 328.745 330.36 317.998 341.667H318.003ZM279.439 252.62L331.346 285.042C332.015 285.464 332.541 286.011 332.925 286.698C333.305 287.386 333.499 288.12 333.499 288.901V319.063C340.144 315.511 347.042 312.537 354.198 310.141L355.562 286.906C355.693 284.469 355.441 282.073 354.809 279.714C354.172 277.354 353.187 275.146 351.855 273.099C341.503 257.136 316.602 225.167 293.287 206.412C293.092 206.375 292.887 206.339 292.697 206.307C289.675 205.839 286.642 205.766 283.604 206.094C283.351 206.25 283.088 206.386 282.814 206.49C282.277 206.698 269.534 211.771 268.739 233.208C268.471 240.417 272.962 248.578 279.433 252.62H279.439ZM177.178 250.88C177.467 251.328 177.794 251.745 178.163 252.13C178.526 252.521 178.926 252.87 179.358 253.182C179.79 253.495 180.248 253.766 180.732 253.995C181.211 254.229 181.711 254.412 182.233 254.547C182.749 254.688 183.275 254.776 183.807 254.818C184.339 254.854 184.876 254.849 185.408 254.792C185.94 254.735 186.461 254.63 186.977 254.479C187.488 254.323 187.983 254.125 188.457 253.88C203.1 246.448 231.449 230.667 256.771 208.474C258.851 206.62 261.078 204.969 263.463 203.521C265.843 202.073 268.339 200.844 270.951 199.844C273.557 198.844 276.237 198.083 278.981 197.568C281.729 197.047 284.504 196.781 287.3 196.761C289.596 196.761 291.881 196.938 294.15 197.292C294.819 197.396 295.498 197.516 296.188 197.651C296.499 197.714 296.81 197.735 297.125 197.714C297.436 197.698 297.747 197.641 298.042 197.542C298.342 197.448 298.626 197.318 298.895 197.151C299.158 196.985 299.4 196.792 299.616 196.563C299.832 196.339 300.016 196.089 300.169 195.818C300.322 195.547 300.437 195.261 300.516 194.958C300.595 194.656 300.632 194.349 300.638 194.037C300.638 193.729 300.601 193.422 300.522 193.12L300.432 192.792C299.974 191.136 299.379 189.531 298.647 187.974C297.921 186.417 297.062 184.932 296.078 183.516C295.093 182.104 293.998 180.781 292.792 179.552C291.581 178.323 290.28 177.198 288.88 176.188C287.479 175.172 286.005 174.281 284.451 173.516C282.903 172.745 281.297 172.115 279.639 171.615C277.98 171.115 276.29 170.755 274.568 170.537C272.846 170.318 271.125 170.24 269.387 170.313L269.166 170.323C266.849 170.787 247.251 175.172 237.91 191.38C237.452 192.167 226.484 210.74 210.029 218.615C207.67 219.74 205.18 220.302 202.563 220.297C200.583 220.297 198.656 219.974 196.792 219.328C194.923 218.682 193.217 217.75 191.668 216.526L191.563 216.443C191.073 216.073 190.679 215.625 190.373 215.094C190.068 214.568 189.878 214 189.804 213.396C189.725 212.792 189.773 212.198 189.936 211.61C190.099 211.026 190.373 210.495 190.752 210.016C191.131 209.537 191.589 209.146 192.127 208.849C192.664 208.552 193.238 208.37 193.848 208.302C194.459 208.229 195.059 208.281 195.654 208.448C196.244 208.615 196.781 208.891 197.26 209.271L197.403 209.38C197.998 209.86 198.65 210.245 199.356 210.542C200.062 210.833 200.799 211.026 201.557 211.12C202.321 211.208 203.079 211.193 203.837 211.068C204.595 210.948 205.317 210.724 206.012 210.401C219.881 203.766 229.827 186.985 229.912 186.839C239.131 170.833 255.776 164.479 263.59 162.287C263.179 160.203 262.431 158.25 261.341 156.427C260.251 154.604 258.882 153.016 257.234 151.656C252.032 147.485 247.414 149.151 246.235 149.693C242.207 153.162 239.031 157.271 236.704 162.026C236.436 162.573 236.067 163.047 235.604 163.448C235.14 163.849 234.619 164.146 234.034 164.339C233.455 164.537 232.855 164.61 232.244 164.568C231.628 164.526 231.049 164.37 230.501 164.094C229.948 163.823 229.475 163.458 229.074 162.995C228.674 162.537 228.374 162.016 228.185 161.438C227.99 160.86 227.921 160.271 227.969 159.662C228.016 159.057 228.179 158.485 228.458 157.943C231.207 152.406 234.882 147.557 239.484 143.401C239.816 141.365 239.937 139.313 239.842 137.255C239.753 135.193 239.447 133.162 238.931 131.162C238.421 129.162 237.71 127.235 236.794 125.38C235.883 123.526 234.787 121.781 233.513 120.146C230.043 120.61 226.721 121.568 223.54 123.026C220.365 124.49 217.48 126.38 214.884 128.708C213.783 129.656 212.567 130.422 211.23 131C209.898 131.578 208.502 131.943 207.054 132.099C205.601 132.255 204.163 132.188 202.731 131.906C201.304 131.625 199.946 131.136 198.672 130.443C195.554 128.818 192.316 127.479 188.962 126.427C185.603 125.375 182.175 124.63 178.684 124.188C175.188 123.745 171.681 123.615 168.163 123.797C164.646 123.979 161.176 124.469 157.748 125.266C157.401 125.333 157.074 125.464 156.779 125.656C156.479 125.849 156.227 126.089 156.021 126.375C155.816 126.662 155.674 126.974 155.589 127.318C155.505 127.656 155.489 128.005 155.537 128.349C156.158 132.188 157.064 135.958 158.259 139.662C159.449 143.37 160.918 146.964 162.661 150.448C164.399 153.932 166.394 157.266 168.643 160.458C170.891 163.646 173.366 166.646 176.067 169.469L181.796 167.781C183.233 167.276 204.711 159.485 212.593 146.672C212.909 146.146 213.31 145.698 213.805 145.333C214.299 144.964 214.847 144.708 215.447 144.557C216.048 144.406 216.653 144.38 217.264 144.469C217.875 144.563 218.443 144.766 218.97 145.083C219.497 145.401 219.944 145.807 220.307 146.302C220.671 146.797 220.918 147.344 221.06 147.938C221.203 148.537 221.224 149.136 221.118 149.74C221.018 150.339 220.802 150.901 220.471 151.417C212.841 163.813 196.255 171.787 188.651 174.927L189.31 177.62C189.552 178.61 189.467 179.568 189.062 180.5C188.672 181.386 186.93 184.662 181.364 188.422C182.296 190.646 183.386 192.792 184.623 194.865C184.939 195.386 185.145 195.948 185.234 196.547C185.324 197.151 185.292 197.745 185.145 198.333C184.992 198.922 184.734 199.458 184.365 199.948C184.002 200.432 183.549 200.833 183.023 201.141C182.496 201.453 181.927 201.646 181.322 201.735C180.711 201.818 180.111 201.787 179.516 201.63C178.921 201.479 178.378 201.219 177.889 200.854C177.399 200.49 177.004 200.042 176.693 199.521C175.398 197.354 174.245 195.115 173.234 192.807C171.733 193.464 170.117 194.11 168.332 194.74C167.658 194.979 167.042 195.313 166.478 195.745C165.915 196.177 165.436 196.688 165.036 197.271C164.641 197.854 164.346 198.49 164.151 199.167C163.962 199.844 163.883 200.537 163.914 201.24C164.699 215.479 167.642 235.651 177.173 250.88H177.178ZM229.785 371.448C232.502 382.807 234.566 394.281 235.988 405.865C236.13 407.026 236.378 408.167 236.73 409.281C237.078 410.401 237.526 411.474 238.073 412.511C238.621 413.547 239.258 414.526 239.984 415.448C240.716 416.37 241.517 417.219 242.401 417.995C243.286 418.776 244.228 419.464 245.239 420.073C246.25 420.682 247.309 421.193 248.409 421.61C249.515 422.026 250.647 422.344 251.811 422.557C252.969 422.771 254.143 422.88 255.323 422.886H274.673C276.474 422.896 278.196 422.537 279.839 421.797C281.476 421.057 282.888 420.016 284.062 418.667C285.262 417.302 286.121 415.755 286.642 414.026C287.163 412.292 287.3 410.531 287.053 408.74C286.121 401.802 284.515 395.021 282.224 388.401C279.939 381.776 277.017 375.443 273.452 369.391C272.767 368.266 271.946 367.245 270.988 366.328C270.035 365.412 268.976 364.63 267.818 363.985C266.659 363.339 265.433 362.849 264.148 362.516C262.858 362.182 261.552 362.021 260.22 362.021H237.331C236.746 362.021 236.172 362.083 235.598 362.214C235.03 362.339 234.482 362.531 233.956 362.781C233.429 363.037 232.934 363.339 232.481 363.703C232.023 364.063 231.612 364.474 231.249 364.927C230.886 365.38 230.58 365.865 230.328 366.391C230.075 366.912 229.885 367.453 229.759 368.021C229.633 368.583 229.575 369.156 229.575 369.735C229.58 370.313 229.648 370.886 229.785 371.448ZM198.687 395.432C198.687 396.026 198.745 396.61 198.861 397.188C198.977 397.766 199.151 398.323 199.377 398.87C199.609 399.417 199.888 399.932 200.22 400.422C200.551 400.912 200.925 401.365 201.346 401.781C201.768 402.198 202.226 402.573 202.721 402.901C203.221 403.229 203.742 403.505 204.29 403.729C204.843 403.958 205.411 404.13 205.996 404.245C206.58 404.36 207.17 404.417 207.765 404.417H226.479C225.125 394.037 223.235 383.75 220.808 373.563C220.234 371.177 220.197 368.792 220.681 366.391H198.677L198.687 395.432ZM93.4199 341.724C100.139 341.495 106.736 340.495 113.213 338.714C119.695 336.927 125.871 334.422 131.742 331.188C132.416 321.875 133.427 310.854 134.943 298.693C124.623 308.37 109.595 316.974 88.3282 318.292L93.4199 341.724ZM59.942 358.021C69.2355 361.136 78.7819 362.761 88.5862 362.901L78.9188 318.375C59.626 317.474 42.2184 309.802 30.7344 303.307C29.7076 302.724 28.6124 302.318 27.454 302.078C26.2956 301.844 25.1266 301.792 23.9472 301.922C22.773 302.052 21.6462 302.365 20.5667 302.849C19.4926 303.339 18.5185 303.979 17.6497 304.776L10.9994 310.802C20.4667 334.339 36.9213 350.214 59.9367 358.021H59.942Z" fill="white"/>
</mask>
<g mask="url(#mask31_40_6059)">
<path d="M430.905 0V432H0.873682V0H430.905Z" fill="url(#paint15_linear_40_6059)"/>
</g>
</g>
<defs>
<linearGradient id="paint0_linear_40_6059" x1="313.758" y1="113.742" x2="313.123" y2="193.479" gradientUnits="userSpaceOnUse">
<stop stop-color="#414152"/>
<stop offset="0.0104284" stop-color="#404051"/>
<stop offset="0.25" stop-color="#404051"/>
<stop offset="0.5" stop-color="#404050"/>
<stop offset="0.75" stop-color="#3F3F50"/>
<stop offset="0.989572" stop-color="#3E3E4F"/>
<stop offset="1" stop-color="#3E3E4E"/>
</linearGradient>
<linearGradient id="paint1_linear_40_6059" x1="330.258" y1="102.751" x2="327.42" y2="160.115" gradientUnits="userSpaceOnUse">
<stop stop-color="#7D7DAF"/>
<stop offset="0.0625" stop-color="#7D7DAF"/>
<stop offset="0.123418" stop-color="#7C7CAE"/>
<stop offset="0.125" stop-color="#7C7CAD"/>
<stop offset="0.1875" stop-color="#7B7BAD"/>
<stop offset="0.25" stop-color="#7A7AAC"/>
<stop offset="0.3125" stop-color="#7979AB"/>
<stop offset="0.375" stop-color="#7979AA"/>
<stop offset="0.4375" stop-color="#7878A9"/>
<stop offset="0.5" stop-color="#7777A8"/>
<stop offset="0.5625" stop-color="#7676A7"/>
<stop offset="0.625" stop-color="#7575A6"/>
<stop offset="0.6875" stop-color="#7474A5"/>
<stop offset="0.75" stop-color="#7373A4"/>
<stop offset="0.8125" stop-color="#7373A3"/>
<stop offset="0.875" stop-color="#7272A2"/>
<stop offset="0.876582" stop-color="#7171A1"/>
<stop offset="0.9375" stop-color="#7070A0"/>
<stop offset="1" stop-color="#7070A0"/>
</linearGradient>
<linearGradient id="paint2_linear_40_6059" x1="66.607" y1="91.6429" x2="60.4274" y2="142.452" gradientUnits="userSpaceOnUse">
<stop stop-color="#FF7B72"/>
<stop offset="0.0864051" stop-color="#FF7B72"/>
<stop offset="0.5" stop-color="#FF7B72"/>
<stop offset="0.53125" stop-color="#FF7B72"/>
<stop offset="0.5625" stop-color="#FE7A71"/>
<stop offset="0.59375" stop-color="#FE7A71"/>
<stop offset="0.625" stop-color="#FD7970"/>
<stop offset="0.65625" stop-color="#FC7970"/>
<stop offset="0.6875" stop-color="#FC7870"/>
<stop offset="0.71875" stop-color="#FB786F"/>
<stop offset="0.75" stop-color="#FB776F"/>
<stop offset="0.78125" stop-color="#FA776E"/>
<stop offset="0.8125" stop-color="#F9766E"/>
<stop offset="0.84375" stop-color="#F9766D"/>
<stop offset="0.875" stop-color="#F8756D"/>
<stop offset="0.90625" stop-color="#F8756D"/>
<stop offset="0.913595" stop-color="#F7746C"/>
<stop offset="0.9375" stop-color="#F7746C"/>
<stop offset="0.96875" stop-color="#F7746C"/>
<stop offset="1" stop-color="#F6736B"/>
</linearGradient>
<linearGradient id="paint3_linear_40_6059" x1="103.454" y1="351.787" x2="0.812334" y2="308.563" gradientUnits="userSpaceOnUse">
<stop stop-color="#BAA7A0"/>
<stop offset="0.0625" stop-color="#BAA7A0"/>
<stop offset="0.078125" stop-color="#B9A69F"/>
<stop offset="0.09375" stop-color="#B9A69E"/>
<stop offset="0.109375" stop-color="#B9A59E"/>
<stop offset="0.125" stop-color="#B8A49D"/>
<stop offset="0.140625" stop-color="#B8A49C"/>
<stop offset="0.15625" stop-color="#B7A39C"/>
<stop offset="0.171875" stop-color="#B7A29B"/>
<stop offset="0.1875" stop-color="#B6A29A"/>
<stop offset="0.203125" stop-color="#B6A199"/>
<stop offset="0.21875" stop-color="#B6A199"/>
<stop offset="0.234375" stop-color="#B5A098"/>
<stop offset="0.25" stop-color="#B59F97"/>
<stop offset="0.265625" stop-color="#B49F97"/>
<stop offset="0.266097" stop-color="#B49E96"/>
<stop offset="0.28125" stop-color="#B49E96"/>
<stop offset="0.296875" stop-color="#B39D95"/>
<stop offset="0.3125" stop-color="#B39D95"/>
<stop offset="0.328125" stop-color="#B39C94"/>
<stop offset="0.34375" stop-color="#B29B93"/>
<stop offset="0.359375" stop-color="#B29B92"/>
<stop offset="0.375" stop-color="#B19A92"/>
<stop offset="0.390625" stop-color="#B19A91"/>
<stop offset="0.40625" stop-color="#B09990"/>
<stop offset="0.421875" stop-color="#B09890"/>
<stop offset="0.4375" stop-color="#B0988F"/>
<stop offset="0.453125" stop-color="#AF978E"/>
<stop offset="0.46875" stop-color="#AF968E"/>
<stop offset="0.484375" stop-color="#AE968D"/>
<stop offset="0.5" stop-color="#AE958C"/>
<stop offset="0.515625" stop-color="#AE948B"/>
<stop offset="0.53125" stop-color="#AD948B"/>
<stop offset="0.546875" stop-color="#AD938A"/>
<stop offset="0.5625" stop-color="#AC9389"/>
<stop offset="0.578125" stop-color="#AC9289"/>
<stop offset="0.59375" stop-color="#AB9188"/>
<stop offset="0.609375" stop-color="#AB9187"/>
<stop offset="0.625" stop-color="#AB9087"/>
<stop offset="0.640625" stop-color="#AA8F86"/>
<stop offset="0.65625" stop-color="#AA8F85"/>
<stop offset="0.671875" stop-color="#A98E85"/>
<stop offset="0.6875" stop-color="#A98D84"/>
<stop offset="0.703125" stop-color="#A88D83"/>
<stop offset="0.71875" stop-color="#A88C82"/>
<stop offset="0.733903" stop-color="#A88C82"/>
<stop offset="0.734375" stop-color="#A78B81"/>
<stop offset="0.75" stop-color="#A78B81"/>
<stop offset="0.765625" stop-color="#A78A80"/>
<stop offset="0.78125" stop-color="#A68A80"/>
<stop offset="0.796875" stop-color="#A6897F"/>
<stop offset="0.8125" stop-color="#A5887E"/>
<stop offset="0.828125" stop-color="#A5887E"/>
<stop offset="0.84375" stop-color="#A5877D"/>
<stop offset="0.859375" stop-color="#A4867C"/>
<stop offset="0.875" stop-color="#A4867B"/>
<stop offset="0.890625" stop-color="#A3857B"/>
<stop offset="0.90625" stop-color="#A3857A"/>
<stop offset="0.921875" stop-color="#A28479"/>
<stop offset="0.9375" stop-color="#A28379"/>
<stop offset="0.953125" stop-color="#A28378"/>
<stop offset="0.96875" stop-color="#A18277"/>
<stop offset="0.984375" stop-color="#A18177"/>
<stop offset="1" stop-color="#A08176"/>
</linearGradient>
<linearGradient id="paint4_linear_40_6059" x1="423.637" y1="239.393" x2="359.35" y2="392.964" gradientUnits="userSpaceOnUse">
<stop stop-color="#E9F4FF"/>
<stop offset="0.0625" stop-color="#E9F4FF"/>
<stop offset="0.09375" stop-color="#EAF4FF"/>
<stop offset="0.125" stop-color="#EAF5FF"/>
<stop offset="0.15625" stop-color="#EBF5FF"/>
<stop offset="0.1875" stop-color="#ECF6FF"/>
<stop offset="0.187611" stop-color="#EDF6FF"/>
<stop offset="0.21875" stop-color="#EEF7FF"/>
<stop offset="0.25" stop-color="#EEF7FF"/>
<stop offset="0.28125" stop-color="#EFF7FF"/>
<stop offset="0.3125" stop-color="#F0F8FF"/>
<stop offset="0.34375" stop-color="#F1F8FF"/>
<stop offset="0.375" stop-color="#F2F9FF"/>
<stop offset="0.40625" stop-color="#F3FAFF"/>
<stop offset="0.4375" stop-color="#F3FAFF"/>
<stop offset="0.46875" stop-color="#F4FBFF"/>
<stop offset="0.5" stop-color="#F5FBFF"/>
<stop offset="0.53125" stop-color="#F6FCFF"/>
<stop offset="0.5625" stop-color="#F7FCFF"/>
<stop offset="0.59375" stop-color="#F8FDFF"/>
<stop offset="0.625" stop-color="#F9FDFF"/>
<stop offset="0.65625" stop-color="#FAFEFF"/>
<stop offset="0.6875" stop-color="#FBFEFF"/>
<stop offset="0.75" stop-color="#FCFFFF"/>
<stop offset="0.812389" stop-color="#FCFFFF"/>
<stop offset="1" stop-color="#FCFFFF"/>
</linearGradient>
<linearGradient id="paint5_linear_40_6059" x1="328.895" y1="425.934" x2="347.109" y2="387.47" gradientUnits="userSpaceOnUse">
<stop stop-color="#6C6C7E"/>
<stop offset="0.03125" stop-color="#6B6B7D"/>
<stop offset="0.0625" stop-color="#6A6A7D"/>
<stop offset="0.09375" stop-color="#6A6A7C"/>
<stop offset="0.125" stop-color="#69697B"/>
<stop offset="0.15625" stop-color="#68687B"/>
<stop offset="0.1875" stop-color="#67677A"/>
<stop offset="0.21875" stop-color="#676779"/>
<stop offset="0.25" stop-color="#666678"/>
<stop offset="0.28125" stop-color="#656578"/>
<stop offset="0.29421" stop-color="#646477"/>
<stop offset="0.3125" stop-color="#646477"/>
<stop offset="0.34375" stop-color="#646476"/>
<stop offset="0.375" stop-color="#636375"/>
<stop offset="0.40625" stop-color="#626275"/>
<stop offset="0.4375" stop-color="#616174"/>
<stop offset="0.46875" stop-color="#616173"/>
<stop offset="0.5" stop-color="#606073"/>
<stop offset="0.53125" stop-color="#5F5F72"/>
<stop offset="0.5625" stop-color="#5E5E71"/>
<stop offset="0.59375" stop-color="#5E5E70"/>
<stop offset="0.625" stop-color="#5D5D70"/>
<stop offset="0.65625" stop-color="#5C5C6F"/>
<stop offset="0.6875" stop-color="#5B5B6E"/>
<stop offset="0.70579" stop-color="#5B5B6E"/>
<stop offset="0.71875" stop-color="#5A5A6D"/>
<stop offset="0.75" stop-color="#5A5A6D"/>
<stop offset="0.78125" stop-color="#59596C"/>
<stop offset="0.8125" stop-color="#58586B"/>
<stop offset="0.84375" stop-color="#58586B"/>
<stop offset="0.875" stop-color="#57576A"/>
<stop offset="0.90625" stop-color="#565669"/>
<stop offset="0.9375" stop-color="#555569"/>
<stop offset="1" stop-color="#555568"/>
</linearGradient>
<linearGradient id="paint6_linear_40_6059" x1="193.7" y1="432.046" x2="199.561" y2="357.223" gradientUnits="userSpaceOnUse">
<stop stop-color="#6F6F81"/>
<stop offset="0.125" stop-color="#6F6F81"/>
<stop offset="0.128338" stop-color="#6F6F81"/>
<stop offset="0.1875" stop-color="#6F6F81"/>
<stop offset="0.21875" stop-color="#6F6F81"/>
<stop offset="0.234375" stop-color="#6E6E80"/>
<stop offset="0.25" stop-color="#6E6E80"/>
<stop offset="0.265625" stop-color="#6D6D7F"/>
<stop offset="0.28125" stop-color="#6C6C7F"/>
<stop offset="0.296875" stop-color="#6C6C7E"/>
<stop offset="0.3125" stop-color="#6B6B7E"/>
<stop offset="0.328125" stop-color="#6B6B7D"/>
<stop offset="0.34375" stop-color="#6A6A7D"/>
<stop offset="0.359375" stop-color="#6A6A7C"/>
<stop offset="0.375" stop-color="#69697C"/>
<stop offset="0.390625" stop-color="#69697B"/>
<stop offset="0.40625" stop-color="#68687B"/>
<stop offset="0.421875" stop-color="#68687A"/>
<stop offset="0.4375" stop-color="#67677A"/>
<stop offset="0.453125" stop-color="#676779"/>
<stop offset="0.46875" stop-color="#666679"/>
<stop offset="0.484375" stop-color="#666678"/>
<stop offset="0.5" stop-color="#656578"/>
<stop offset="0.515625" stop-color="#656577"/>
<stop offset="0.53125" stop-color="#646477"/>
<stop offset="0.546875" stop-color="#646476"/>
<stop offset="0.5625" stop-color="#636376"/>
<stop offset="0.578125" stop-color="#636375"/>
<stop offset="0.59375" stop-color="#626275"/>
<stop offset="0.609375" stop-color="#626274"/>
<stop offset="0.625" stop-color="#616174"/>
<stop offset="0.640625" stop-color="#616173"/>
<stop offset="0.65625" stop-color="#606073"/>
<stop offset="0.671875" stop-color="#606072"/>
<stop offset="0.6875" stop-color="#5F5F72"/>
<stop offset="0.703125" stop-color="#5F5F71"/>
<stop offset="0.71875" stop-color="#5E5E71"/>
<stop offset="0.734375" stop-color="#5E5E70"/>
<stop offset="0.75" stop-color="#5D5D70"/>
<stop offset="0.765625" stop-color="#5D5D70"/>
<stop offset="0.78125" stop-color="#5C5C6F"/>
<stop offset="0.796875" stop-color="#5C5C6F"/>
<stop offset="0.8125" stop-color="#5B5B6E"/>
<stop offset="0.828125" stop-color="#5B5B6E"/>
<stop offset="0.84375" stop-color="#5A5A6D"/>
<stop offset="0.859375" stop-color="#5A5A6D"/>
<stop offset="0.871662" stop-color="#59596C"/>
<stop offset="0.875" stop-color="#59596C"/>
<stop offset="0.890625" stop-color="#59596C"/>
<stop offset="0.90625" stop-color="#58586B"/>
<stop offset="0.921875" stop-color="#58586B"/>
<stop offset="0.9375" stop-color="#57576A"/>
<stop offset="0.953125" stop-color="#57576A"/>
<stop offset="0.96875" stop-color="#565669"/>
<stop offset="1" stop-color="#555568"/>
</linearGradient>
<linearGradient id="paint7_linear_40_6059" x1="218.563" y1="178.089" x2="214.896" y2="363.419" gradientUnits="userSpaceOnUse">
<stop stop-color="#CEBBB4"/>
<stop offset="0.0174371" stop-color="#CEBBB4"/>
<stop offset="0.25" stop-color="#CEBBB4"/>
<stop offset="0.375" stop-color="#CEBAB4"/>
<stop offset="0.382812" stop-color="#CDBAB3"/>
<stop offset="0.390625" stop-color="#CDB9B2"/>
<stop offset="0.398438" stop-color="#CDB9B2"/>
<stop offset="0.40625" stop-color="#CCB8B1"/>
<stop offset="0.414062" stop-color="#CCB8B1"/>
<stop offset="0.421875" stop-color="#CCB7B0"/>
<stop offset="0.429688" stop-color="#CBB7B0"/>
<stop offset="0.4375" stop-color="#CBB6AF"/>
<stop offset="0.445312" stop-color="#CBB6AF"/>
<stop offset="0.453125" stop-color="#CAB6AE"/>
<stop offset="0.460938" stop-color="#CAB5AE"/>
<stop offset="0.46875" stop-color="#CAB5AD"/>
<stop offset="0.476562" stop-color="#C9B4AC"/>
<stop offset="0.484375" stop-color="#C9B4AC"/>
<stop offset="0.492188" stop-color="#C9B3AB"/>
<stop offset="0.5" stop-color="#C9B3AB"/>
<stop offset="0.507812" stop-color="#C8B2AA"/>
<stop offset="0.515625" stop-color="#C8B2AA"/>
<stop offset="0.523438" stop-color="#C8B1A9"/>
<stop offset="0.53125" stop-color="#C7B1A9"/>
<stop offset="0.539062" stop-color="#C7B0A8"/>
<stop offset="0.546875" stop-color="#C7B0A8"/>
<stop offset="0.554688" stop-color="#C6AFA7"/>
<stop offset="0.5625" stop-color="#C6AFA7"/>
<stop offset="0.570312" stop-color="#C6AEA6"/>
<stop offset="0.578125" stop-color="#C5AEA6"/>
<stop offset="0.585938" stop-color="#C5ADA5"/>
<stop offset="0.59375" stop-color="#C5ADA5"/>
<stop offset="0.601562" stop-color="#C4ACA4"/>
<stop offset="0.609375" stop-color="#C4ACA3"/>
<stop offset="0.617188" stop-color="#C4ABA3"/>
<stop offset="0.625" stop-color="#C3ABA2"/>
<stop offset="0.632812" stop-color="#C3AAA2"/>
<stop offset="0.640625" stop-color="#C3AAA1"/>
<stop offset="0.648437" stop-color="#C2A9A1"/>
<stop offset="0.65625" stop-color="#C2A9A0"/>
<stop offset="0.664062" stop-color="#C2A9A0"/>
<stop offset="0.671875" stop-color="#C1A89F"/>
<stop offset="0.679687" stop-color="#C1A89F"/>
<stop offset="0.6875" stop-color="#C1A79E"/>
<stop offset="0.695312" stop-color="#C1A79E"/>
<stop offset="0.703125" stop-color="#C0A69D"/>
<stop offset="0.710937" stop-color="#C0A69D"/>
<stop offset="0.71875" stop-color="#C0A59C"/>
<stop offset="0.726562" stop-color="#BFA59B"/>
<stop offset="0.734375" stop-color="#BFA49B"/>
<stop offset="0.742187" stop-color="#BFA49A"/>
<stop offset="0.75" stop-color="#BEA39A"/>
<stop offset="0.757812" stop-color="#BEA399"/>
<stop offset="0.765625" stop-color="#BEA299"/>
<stop offset="0.773437" stop-color="#BDA298"/>
<stop offset="0.78125" stop-color="#BDA198"/>
<stop offset="0.789062" stop-color="#BDA197"/>
<stop offset="0.796875" stop-color="#BCA097"/>
<stop offset="0.804687" stop-color="#BCA096"/>
<stop offset="0.8125" stop-color="#BC9F96"/>
<stop offset="0.820312" stop-color="#BB9F95"/>
<stop offset="0.828125" stop-color="#BB9E95"/>
<stop offset="0.835937" stop-color="#BB9E94"/>
<stop offset="0.84375" stop-color="#BA9D94"/>
<stop offset="0.851562" stop-color="#BA9D93"/>
<stop offset="0.859375" stop-color="#BA9D92"/>
<stop offset="0.867188" stop-color="#B99C92"/>
<stop offset="0.875" stop-color="#B99C91"/>
<stop offset="0.882812" stop-color="#B99B91"/>
<stop offset="0.890625" stop-color="#B89B90"/>
<stop offset="0.898438" stop-color="#B89A90"/>
<stop offset="0.90625" stop-color="#B89A8F"/>
<stop offset="0.914062" stop-color="#B8998F"/>
<stop offset="0.921875" stop-color="#B7998E"/>
<stop offset="0.929688" stop-color="#B7988E"/>
<stop offset="0.9375" stop-color="#B7988D"/>
<stop offset="0.945312" stop-color="#B6978D"/>
<stop offset="0.953125" stop-color="#B6978C"/>
<stop offset="0.960938" stop-color="#B6968C"/>
<stop offset="0.96875" stop-color="#B5968B"/>
<stop offset="0.976562" stop-color="#B5958A"/>
<stop offset="0.982563" stop-color="#B5958A"/>
<stop offset="0.984375" stop-color="#B4958A"/>
<stop offset="1" stop-color="#B49489"/>
</linearGradient>
<linearGradient id="paint8_linear_40_6059" x1="213.077" y1="150.028" x2="186.863" y2="37.6892" gradientUnits="userSpaceOnUse">
<stop stop-color="#FFE1DB"/>
<stop offset="0.03125" stop-color="#FFE1DB"/>
<stop offset="0.0390625" stop-color="#FFE0DA"/>
<stop offset="0.046875" stop-color="#FFE0DA"/>
<stop offset="0.0546875" stop-color="#FFDFD9"/>
<stop offset="0.0625" stop-color="#FFDFD9"/>
<stop offset="0.0703125" stop-color="#FFDED8"/>
<stop offset="0.078125" stop-color="#FFDED8"/>
<stop offset="0.0859375" stop-color="#FFDDD7"/>
<stop offset="0.09375" stop-color="#FFDDD7"/>
<stop offset="0.101562" stop-color="#FFDDD6"/>
<stop offset="0.109375" stop-color="#FFDCD6"/>
<stop offset="0.117187" stop-color="#FFDCD5"/>
<stop offset="0.125" stop-color="#FFDBD5"/>
<stop offset="0.132812" stop-color="#FFDBD4"/>
<stop offset="0.140625" stop-color="#FFDAD4"/>
<stop offset="0.148437" stop-color="#FFDAD3"/>
<stop offset="0.15625" stop-color="#FFD9D3"/>
<stop offset="0.164062" stop-color="#FFD9D2"/>
<stop offset="0.171875" stop-color="#FFD9D2"/>
<stop offset="0.179687" stop-color="#FFD8D1"/>
<stop offset="0.1875" stop-color="#FFD8D1"/>
<stop offset="0.195312" stop-color="#FFD7D0"/>
<stop offset="0.203125" stop-color="#FFD7D0"/>
<stop offset="0.204661" stop-color="#FFD6CF"/>
<stop offset="0.210938" stop-color="#FFD6CF"/>
<stop offset="0.21875" stop-color="#FFD6CF"/>
<stop offset="0.226562" stop-color="#FFD5CE"/>
<stop offset="0.234375" stop-color="#FFD5CE"/>
<stop offset="0.242188" stop-color="#FFD5CD"/>
<stop offset="0.25" stop-color="#FFD4CD"/>
<stop offset="0.257812" stop-color="#FFD4CC"/>
<stop offset="0.265625" stop-color="#FFD3CC"/>
<stop offset="0.273438" stop-color="#FFD3CB"/>
<stop offset="0.28125" stop-color="#FFD2CB"/>
<stop offset="0.289062" stop-color="#FFD2CA"/>
<stop offset="0.296875" stop-color="#FFD2CA"/>
<stop offset="0.304688" stop-color="#FFD1C9"/>
<stop offset="0.3125" stop-color="#FFD1C9"/>
<stop offset="0.320312" stop-color="#FFD0C8"/>
<stop offset="0.328125" stop-color="#FFD0C8"/>
<stop offset="0.335938" stop-color="#FFCFC7"/>
<stop offset="0.34375" stop-color="#FFCFC6"/>
<stop offset="0.351562" stop-color="#FFCEC6"/>
<stop offset="0.359375" stop-color="#FFCEC5"/>
<stop offset="0.367188" stop-color="#FFCEC5"/>
<stop offset="0.375" stop-color="#FFCDC4"/>
<stop offset="0.382812" stop-color="#FFCDC4"/>
<stop offset="0.390625" stop-color="#FFCCC3"/>
<stop offset="0.398437" stop-color="#FFCCC3"/>
<stop offset="0.40625" stop-color="#FECBC2"/>
<stop offset="0.414063" stop-color="#FECBC2"/>
<stop offset="0.421875" stop-color="#FECAC1"/>
<stop offset="0.429688" stop-color="#FECAC1"/>
<stop offset="0.4375" stop-color="#FECAC0"/>
<stop offset="0.445312" stop-color="#FEC9C0"/>
<stop offset="0.453125" stop-color="#FEC9BF"/>
<stop offset="0.460937" stop-color="#FEC8BF"/>
<stop offset="0.46875" stop-color="#FEC8BE"/>
<stop offset="0.476563" stop-color="#FEC7BE"/>
<stop offset="0.484375" stop-color="#FEC7BD"/>
<stop offset="0.492188" stop-color="#FEC6BD"/>
<stop offset="0.5" stop-color="#FEC6BC"/>
<stop offset="0.507812" stop-color="#FEC6BC"/>
<stop offset="0.515625" stop-color="#FEC5BB"/>
<stop offset="0.523437" stop-color="#FEC5BB"/>
<stop offset="0.53125" stop-color="#FEC4BA"/>
<stop offset="0.539062" stop-color="#FEC4BA"/>
<stop offset="0.546875" stop-color="#FEC3B9"/>
<stop offset="0.554688" stop-color="#FEC3B9"/>
<stop offset="0.5625" stop-color="#FEC3B8"/>
<stop offset="0.570312" stop-color="#FEC2B8"/>
<stop offset="0.578125" stop-color="#FEC2B7"/>
<stop offset="0.585937" stop-color="#FEC1B7"/>
<stop offset="0.59375" stop-color="#FEC1B6"/>
<stop offset="0.601562" stop-color="#FEC0B6"/>
<stop offset="0.609375" stop-color="#FEC0B5"/>
<stop offset="0.617188" stop-color="#FEBFB5"/>
<stop offset="0.625" stop-color="#FEBFB4"/>
<stop offset="0.632812" stop-color="#FEBFB4"/>
<stop offset="0.640625" stop-color="#FEBEB3"/>
<stop offset="0.648437" stop-color="#FEBEB3"/>
<stop offset="0.65625" stop-color="#FEBDB2"/>
<stop offset="0.664062" stop-color="#FEBDB2"/>
<stop offset="0.671875" stop-color="#FEBCB1"/>
<stop offset="0.679688" stop-color="#FEBCB1"/>
<stop offset="0.6875" stop-color="#FEBBB0"/>
<stop offset="0.695312" stop-color="#FEBBB0"/>
<stop offset="0.703125" stop-color="#FEBBAF"/>
<stop offset="0.710938" stop-color="#FEBAAF"/>
<stop offset="0.71875" stop-color="#FEBAAE"/>
<stop offset="0.726562" stop-color="#FEB9AE"/>
<stop offset="0.734375" stop-color="#FEB9AD"/>
<stop offset="0.742187" stop-color="#FEB8AD"/>
<stop offset="0.75" stop-color="#FEB8AC"/>
<stop offset="0.757813" stop-color="#FEB7AC"/>
<stop offset="0.765625" stop-color="#FEB7AB"/>
<stop offset="0.773438" stop-color="#FEB7AB"/>
<stop offset="0.78125" stop-color="#FEB6AA"/>
<stop offset="0.789062" stop-color="#FEB6AA"/>
<stop offset="0.795339" stop-color="#FEB5A9"/>
<stop offset="0.796875" stop-color="#FEB5A9"/>
<stop offset="0.8125" stop-color="#FEB5A9"/>
<stop offset="0.875" stop-color="#FEB5A9"/>
<stop offset="1" stop-color="#FEB5A9"/>
</linearGradient>
<linearGradient id="paint9_linear_40_6059" x1="232.652" y1="-13.3796" x2="156.769" y2="119.512" gradientUnits="userSpaceOnUse">
<stop stop-color="#6F6F81"/>
<stop offset="0.25" stop-color="#6E6E81"/>
<stop offset="0.265625" stop-color="#6E6E80"/>
<stop offset="0.28125" stop-color="#6D6D7F"/>
<stop offset="0.296875" stop-color="#6C6C7F"/>
<stop offset="0.3125" stop-color="#6C6C7E"/>
<stop offset="0.328125" stop-color="#6B6B7E"/>
<stop offset="0.34375" stop-color="#6B6B7D"/>
<stop offset="0.359375" stop-color="#6A6A7C"/>
<stop offset="0.375" stop-color="#69697C"/>
<stop offset="0.390625" stop-color="#69697B"/>
<stop offset="0.40625" stop-color="#68687B"/>
<stop offset="0.421875" stop-color="#68687A"/>
<stop offset="0.4375" stop-color="#676779"/>
<stop offset="0.453125" stop-color="#666679"/>
<stop offset="0.467506" stop-color="#666678"/>
<stop offset="0.46875" stop-color="#656578"/>
<stop offset="0.484375" stop-color="#656578"/>
<stop offset="0.5" stop-color="#656577"/>
<stop offset="0.515625" stop-color="#646476"/>
<stop offset="0.53125" stop-color="#636376"/>
<stop offset="0.532494" stop-color="#636375"/>
<stop offset="0.546875" stop-color="#626275"/>
<stop offset="0.5625" stop-color="#626275"/>
<stop offset="0.578125" stop-color="#616174"/>
<stop offset="0.59375" stop-color="#616174"/>
<stop offset="0.609375" stop-color="#606073"/>
<stop offset="0.625" stop-color="#606072"/>
<stop offset="0.640625" stop-color="#5F5F72"/>
<stop offset="0.65625" stop-color="#5E5E71"/>
<stop offset="0.671875" stop-color="#5E5E71"/>
<stop offset="0.6875" stop-color="#5D5D70"/>
<stop offset="0.703125" stop-color="#5D5D6F"/>
<stop offset="0.71875" stop-color="#5C5C6F"/>
<stop offset="0.734375" stop-color="#5B5B6E"/>
<stop offset="0.75" stop-color="#5B5B6E"/>
<stop offset="0.765625" stop-color="#5A5A6D"/>
<stop offset="0.78125" stop-color="#5A5A6C"/>
<stop offset="0.796875" stop-color="#59596C"/>
<stop offset="0.8125" stop-color="#58586B"/>
<stop offset="0.828125" stop-color="#58586B"/>
<stop offset="0.84375" stop-color="#57576A"/>
<stop offset="0.859375" stop-color="#56566A"/>
<stop offset="0.875" stop-color="#565669"/>
<stop offset="1" stop-color="#555568"/>
</linearGradient>
<linearGradient id="paint10_linear_40_6059" x1="363.563" y1="330.497" x2="268.92" y2="197.553" gradientUnits="userSpaceOnUse">
<stop stop-color="#FFE1DB"/>
<stop offset="0.25" stop-color="#FFE1DB"/>
<stop offset="0.265625" stop-color="#FFE1DB"/>
<stop offset="0.273438" stop-color="#FFE1DB"/>
<stop offset="0.28125" stop-color="#FFE0DA"/>
<stop offset="0.289062" stop-color="#FFE0DA"/>
<stop offset="0.296875" stop-color="#FFDFD9"/>
<stop offset="0.304687" stop-color="#FFDFD8"/>
<stop offset="0.3125" stop-color="#FFDED8"/>
<stop offset="0.320312" stop-color="#FFDED7"/>
<stop offset="0.328125" stop-color="#FFDDD7"/>
<stop offset="0.335586" stop-color="#FFDDD6"/>
<stop offset="0.335938" stop-color="#FFDCD6"/>
<stop offset="0.34375" stop-color="#FFDCD6"/>
<stop offset="0.351562" stop-color="#FFDCD5"/>
<stop offset="0.359375" stop-color="#FFDBD4"/>
<stop offset="0.367187" stop-color="#FFDBD4"/>
<stop offset="0.375" stop-color="#FFDAD3"/>
<stop offset="0.382812" stop-color="#FFDAD3"/>
<stop offset="0.390625" stop-color="#FFD9D2"/>
<stop offset="0.398437" stop-color="#FFD9D2"/>
<stop offset="0.40625" stop-color="#FFD8D1"/>
<stop offset="0.414062" stop-color="#FFD8D1"/>
<stop offset="0.421875" stop-color="#FFD7D0"/>
<stop offset="0.429687" stop-color="#FFD7CF"/>
<stop offset="0.4375" stop-color="#FFD6CF"/>
<stop offset="0.445312" stop-color="#FFD6CE"/>
<stop offset="0.453125" stop-color="#FFD5CE"/>
<stop offset="0.460938" stop-color="#FFD5CD"/>
<stop offset="0.46875" stop-color="#FFD4CD"/>
<stop offset="0.476562" stop-color="#FFD4CC"/>
<stop offset="0.484375" stop-color="#FFD3CB"/>
<stop offset="0.492188" stop-color="#FFD3CB"/>
<stop offset="0.5" stop-color="#FFD2CA"/>
<stop offset="0.507812" stop-color="#FFD2CA"/>
<stop offset="0.515625" stop-color="#FFD1C9"/>
<stop offset="0.523437" stop-color="#FFD1C9"/>
<stop offset="0.53125" stop-color="#FFD0C8"/>
<stop offset="0.539062" stop-color="#FFD0C7"/>
<stop offset="0.546875" stop-color="#FFCFC7"/>
<stop offset="0.554688" stop-color="#FFCFC6"/>
<stop offset="0.5625" stop-color="#FFCEC6"/>
<stop offset="0.570312" stop-color="#FFCEC5"/>
<stop offset="0.578125" stop-color="#FFCDC5"/>
<stop offset="0.585938" stop-color="#FFCDC4"/>
<stop offset="0.59375" stop-color="#FFCCC4"/>
<stop offset="0.601562" stop-color="#FFCCC3"/>
<stop offset="0.609375" stop-color="#FECBC2"/>
<stop offset="0.617187" stop-color="#FECBC2"/>
<stop offset="0.625" stop-color="#FECAC1"/>
<stop offset="0.632812" stop-color="#FECAC1"/>
<stop offset="0.640625" stop-color="#FEC9C0"/>
<stop offset="0.648437" stop-color="#FEC9C0"/>
<stop offset="0.65625" stop-color="#FEC8BF"/>
<stop offset="0.664062" stop-color="#FEC8BE"/>
<stop offset="0.664414" stop-color="#FEC7BE"/>
<stop offset="0.671875" stop-color="#FEC7BE"/>
<stop offset="0.679687" stop-color="#FEC7BD"/>
<stop offset="0.6875" stop-color="#FEC6BD"/>
<stop offset="0.695312" stop-color="#FEC6BC"/>
<stop offset="0.703125" stop-color="#FEC5BC"/>
<stop offset="0.710938" stop-color="#FEC5BB"/>
<stop offset="0.71875" stop-color="#FEC4BA"/>
<stop offset="0.726562" stop-color="#FEC4BA"/>
<stop offset="0.734375" stop-color="#FEC3B9"/>
<stop offset="0.742188" stop-color="#FEC3B9"/>
<stop offset="0.75" stop-color="#FEC2B8"/>
<stop offset="0.757812" stop-color="#FEC2B8"/>
<stop offset="0.765625" stop-color="#FEC1B7"/>
<stop offset="0.773438" stop-color="#FEC1B7"/>
<stop offset="0.78125" stop-color="#FEC0B6"/>
<stop offset="0.789062" stop-color="#FEC0B5"/>
<stop offset="0.796875" stop-color="#FEBFB5"/>
<stop offset="0.804688" stop-color="#FEBFB4"/>
<stop offset="0.8125" stop-color="#FEBEB4"/>
<stop offset="0.820312" stop-color="#FEBEB3"/>
<stop offset="0.828125" stop-color="#FEBDB3"/>
<stop offset="0.835938" stop-color="#FEBDB2"/>
<stop offset="0.84375" stop-color="#FEBCB1"/>
<stop offset="0.851563" stop-color="#FEBCB1"/>
<stop offset="0.859375" stop-color="#FEBBB0"/>
<stop offset="0.867188" stop-color="#FEBBB0"/>
<stop offset="0.875" stop-color="#FEBAAF"/>
<stop offset="0.882812" stop-color="#FEBAAF"/>
<stop offset="0.890625" stop-color="#FEB9AE"/>
<stop offset="0.898437" stop-color="#FEB9AD"/>
<stop offset="0.90625" stop-color="#FEB8AD"/>
<stop offset="0.914062" stop-color="#FEB8AC"/>
<stop offset="0.921875" stop-color="#FEB7AC"/>
<stop offset="0.929687" stop-color="#FEB7AB"/>
<stop offset="0.9375" stop-color="#FEB6AB"/>
<stop offset="0.945312" stop-color="#FEB6AA"/>
<stop offset="0.953125" stop-color="#FEB5AA"/>
<stop offset="0.96875" stop-color="#FEB5A9"/>
<stop offset="1" stop-color="#FEB5A9"/>
</linearGradient>
<linearGradient id="paint11_linear_40_6059" x1="230.559" y1="111.831" x2="223.08" y2="263.011" gradientUnits="userSpaceOnUse">
<stop stop-color="#7B7BAC"/>
<stop offset="0.03125" stop-color="#7A7AAC"/>
<stop offset="0.0503877" stop-color="#7979AB"/>
<stop offset="0.0625" stop-color="#7979AA"/>
<stop offset="0.09375" stop-color="#7979AA"/>
<stop offset="0.125" stop-color="#7878A9"/>
<stop offset="0.15625" stop-color="#7777A8"/>
<stop offset="0.1875" stop-color="#7676A7"/>
<stop offset="0.21875" stop-color="#7575A6"/>
<stop offset="0.25" stop-color="#7474A5"/>
<stop offset="0.28125" stop-color="#7474A4"/>
<stop offset="0.3125" stop-color="#7373A3"/>
<stop offset="0.34375" stop-color="#7272A2"/>
<stop offset="0.375" stop-color="#7171A1"/>
<stop offset="0.40625" stop-color="#7070A0"/>
<stop offset="0.4375" stop-color="#6F6F9F"/>
<stop offset="0.46875" stop-color="#6F6F9E"/>
<stop offset="0.5" stop-color="#6E6E9D"/>
<stop offset="0.53125" stop-color="#6D6D9C"/>
<stop offset="0.5625" stop-color="#6C6C9C"/>
<stop offset="0.59375" stop-color="#6B6B9B"/>
<stop offset="0.625" stop-color="#6A6A9A"/>
<stop offset="0.65625" stop-color="#6A6A99"/>
<stop offset="0.6875" stop-color="#696998"/>
<stop offset="0.71875" stop-color="#686897"/>
<stop offset="0.75" stop-color="#676796"/>
<stop offset="0.78125" stop-color="#666695"/>
<stop offset="0.8125" stop-color="#656594"/>
<stop offset="0.84375" stop-color="#656593"/>
<stop offset="0.875" stop-color="#646492"/>
<stop offset="0.90625" stop-color="#636391"/>
<stop offset="0.9375" stop-color="#626290"/>
<stop offset="0.949612" stop-color="#61618F"/>
<stop offset="0.96875" stop-color="#61618F"/>
<stop offset="1" stop-color="#60608E"/>
</linearGradient>
<linearGradient id="paint12_linear_40_6059" x1="339.83" y1="312.266" x2="344.537" y2="410.958" gradientUnits="userSpaceOnUse">
<stop stop-color="#CEBBB4"/>
<stop offset="0.0283435" stop-color="#CEBBB4"/>
<stop offset="0.125" stop-color="#CEBBB4"/>
<stop offset="0.1875" stop-color="#CEBBB4"/>
<stop offset="0.195312" stop-color="#CEBAB3"/>
<stop offset="0.203125" stop-color="#CDBAB3"/>
<stop offset="0.210938" stop-color="#CDB9B2"/>
<stop offset="0.21875" stop-color="#CDB9B2"/>
<stop offset="0.226562" stop-color="#CCB9B1"/>
<stop offset="0.234375" stop-color="#CCB8B1"/>
<stop offset="0.242188" stop-color="#CCB8B0"/>
<stop offset="0.25" stop-color="#CCB7B0"/>
<stop offset="0.257812" stop-color="#CBB7AF"/>
<stop offset="0.265625" stop-color="#CBB6AF"/>
<stop offset="0.273438" stop-color="#CBB6AE"/>
<stop offset="0.28125" stop-color="#CAB5AE"/>
<stop offset="0.289062" stop-color="#CAB5AD"/>
<stop offset="0.296875" stop-color="#CAB4AD"/>
<stop offset="0.304688" stop-color="#C9B4AC"/>
<stop offset="0.3125" stop-color="#C9B3AC"/>
<stop offset="0.320312" stop-color="#C9B3AB"/>
<stop offset="0.328125" stop-color="#C8B3AB"/>
<stop offset="0.335938" stop-color="#C8B2AA"/>
<stop offset="0.34375" stop-color="#C8B2AA"/>
<stop offset="0.351563" stop-color="#C8B1A9"/>
<stop offset="0.359375" stop-color="#C7B1A9"/>
<stop offset="0.367187" stop-color="#C7B0A8"/>
<stop offset="0.375" stop-color="#C7B0A8"/>
<stop offset="0.382813" stop-color="#C6AFA7"/>
<stop offset="0.390625" stop-color="#C6AFA7"/>
<stop offset="0.398437" stop-color="#C6AEA6"/>
<stop offset="0.40625" stop-color="#C5AEA6"/>
<stop offset="0.414062" stop-color="#C5ADA5"/>
<stop offset="0.421875" stop-color="#C5ADA5"/>
<stop offset="0.429688" stop-color="#C4ADA4"/>
<stop offset="0.4375" stop-color="#C4ACA4"/>
<stop offset="0.445312" stop-color="#C4ACA3"/>
<stop offset="0.453125" stop-color="#C4ABA3"/>
<stop offset="0.460938" stop-color="#C3ABA2"/>
<stop offset="0.46875" stop-color="#C3AAA2"/>
<stop offset="0.476562" stop-color="#C3AAA1"/>
<stop offset="0.484375" stop-color="#C2A9A1"/>
<stop offset="0.492188" stop-color="#C2A9A0"/>
<stop offset="0.5" stop-color="#C2A8A0"/>
<stop offset="0.507812" stop-color="#C1A89F"/>
<stop offset="0.515625" stop-color="#C1A79F"/>
<stop offset="0.523438" stop-color="#C1A79E"/>
<stop offset="0.53125" stop-color="#C0A79D"/>
<stop offset="0.539062" stop-color="#C0A69D"/>
<stop offset="0.546875" stop-color="#C0A69C"/>
<stop offset="0.554688" stop-color="#C0A59C"/>
<stop offset="0.5625" stop-color="#BFA59B"/>
<stop offset="0.570312" stop-color="#BFA49B"/>
<stop offset="0.578125" stop-color="#BFA49A"/>
<stop offset="0.585938" stop-color="#BEA39A"/>
<stop offset="0.59375" stop-color="#BEA399"/>
<stop offset="0.601562" stop-color="#BEA299"/>
<stop offset="0.609375" stop-color="#BDA298"/>
<stop offset="0.617188" stop-color="#BDA198"/>
<stop offset="0.625" stop-color="#BDA197"/>
<stop offset="0.632812" stop-color="#BCA097"/>
<stop offset="0.640625" stop-color="#BCA096"/>
<stop offset="0.648438" stop-color="#BCA096"/>
<stop offset="0.65625" stop-color="#BB9F95"/>
<stop offset="0.664062" stop-color="#BB9F95"/>
<stop offset="0.671875" stop-color="#BB9E94"/>
<stop offset="0.679688" stop-color="#BB9E94"/>
<stop offset="0.6875" stop-color="#BA9D93"/>
<stop offset="0.695312" stop-color="#BA9D93"/>
<stop offset="0.703125" stop-color="#BA9C92"/>
<stop offset="0.710938" stop-color="#B99C92"/>
<stop offset="0.71875" stop-color="#B99B91"/>
<stop offset="0.726562" stop-color="#B99B91"/>
<stop offset="0.734375" stop-color="#B89A90"/>
<stop offset="0.742188" stop-color="#B89A90"/>
<stop offset="0.75" stop-color="#B89A8F"/>
<stop offset="0.757812" stop-color="#B7998F"/>
<stop offset="0.765625" stop-color="#B7998E"/>
<stop offset="0.773438" stop-color="#B7988E"/>
<stop offset="0.78125" stop-color="#B7988D"/>
<stop offset="0.789062" stop-color="#B6978D"/>
<stop offset="0.796875" stop-color="#B6978C"/>
<stop offset="0.804688" stop-color="#B6968C"/>
<stop offset="0.8125" stop-color="#B5968B"/>
<stop offset="0.820313" stop-color="#B5958B"/>
<stop offset="0.828125" stop-color="#B5958A"/>
<stop offset="0.84375" stop-color="#B49489"/>
<stop offset="0.875" stop-color="#B49489"/>
<stop offset="0.971656" stop-color="#B49489"/>
<stop offset="1" stop-color="#B49489"/>
</linearGradient>
<linearGradient id="paint13_linear_40_6059" x1="67.5626" y1="140.314" x2="52.1312" y2="267.192" gradientUnits="userSpaceOnUse">
<stop stop-color="#FF7B72"/>
<stop offset="0.0976912" stop-color="#FF7B72"/>
<stop offset="0.125" stop-color="#FF7B72"/>
<stop offset="0.140625" stop-color="#FF7B72"/>
<stop offset="0.15625" stop-color="#FE7A71"/>
<stop offset="0.171875" stop-color="#FD7971"/>
<stop offset="0.1875" stop-color="#FC7970"/>
<stop offset="0.203125" stop-color="#FC7870"/>
<stop offset="0.21875" stop-color="#FB786F"/>
<stop offset="0.234375" stop-color="#FA776F"/>
<stop offset="0.25" stop-color="#FA766E"/>
<stop offset="0.265625" stop-color="#F9766D"/>
<stop offset="0.28125" stop-color="#F8756D"/>
<stop offset="0.296875" stop-color="#F7756C"/>
<stop offset="0.3125" stop-color="#F7746C"/>
<stop offset="0.328125" stop-color="#F6736B"/>
<stop offset="0.34375" stop-color="#F5736B"/>
<stop offset="0.359375" stop-color="#F5726A"/>
<stop offset="0.375" stop-color="#F4726A"/>
<stop offset="0.390625" stop-color="#F37169"/>
<stop offset="0.40625" stop-color="#F37169"/>
<stop offset="0.421875" stop-color="#F27068"/>
<stop offset="0.4375" stop-color="#F16F68"/>
<stop offset="0.453125" stop-color="#F16F67"/>
<stop offset="0.46875" stop-color="#F06E67"/>
<stop offset="0.484375" stop-color="#EF6E66"/>
<stop offset="0.5" stop-color="#EF6D66"/>
<stop offset="0.515625" stop-color="#EE6D65"/>
<stop offset="0.53125" stop-color="#EE6C65"/>
<stop offset="0.546875" stop-color="#ED6C64"/>
<stop offset="0.5625" stop-color="#EC6B64"/>
<stop offset="0.578125" stop-color="#EC6B63"/>
<stop offset="0.59375" stop-color="#EB6A63"/>
<stop offset="0.609375" stop-color="#EB6A62"/>
<stop offset="0.625" stop-color="#EA6962"/>
<stop offset="0.640625" stop-color="#E96961"/>
<stop offset="0.65625" stop-color="#E96861"/>
<stop offset="0.671875" stop-color="#E86760"/>
<stop offset="0.6875" stop-color="#E86760"/>
<stop offset="0.703125" stop-color="#E7665F"/>
<stop offset="0.71875" stop-color="#E6665F"/>
<stop offset="0.734375" stop-color="#E6655E"/>
<stop offset="0.75" stop-color="#E5655E"/>
<stop offset="0.765625" stop-color="#E4645D"/>
<stop offset="0.78125" stop-color="#E4645D"/>
<stop offset="0.796875" stop-color="#E3635C"/>
<stop offset="0.8125" stop-color="#E3635C"/>
<stop offset="0.828125" stop-color="#E2625B"/>
<stop offset="0.84375" stop-color="#E1625B"/>
<stop offset="0.859375" stop-color="#E1615A"/>
<stop offset="0.875" stop-color="#E0605A"/>
<stop offset="0.890625" stop-color="#E06059"/>
<stop offset="0.902309" stop-color="#DF5F59"/>
<stop offset="0.90625" stop-color="#DF5F59"/>
<stop offset="0.921875" stop-color="#DE5F58"/>
<stop offset="0.9375" stop-color="#DE5E58"/>
<stop offset="0.953125" stop-color="#DD5E57"/>
<stop offset="0.96875" stop-color="#DD5D57"/>
<stop offset="0.984375" stop-color="#DC5D56"/>
<stop offset="1" stop-color="#DB5C56"/>
</linearGradient>
<linearGradient id="paint14_linear_40_6059" x1="58.4714" y1="87.8736" x2="60.665" y2="258.336" gradientUnits="userSpaceOnUse">
<stop stop-color="#434355"/>
<stop offset="0.0082915" stop-color="#434354"/>
<stop offset="0.0625" stop-color="#434354"/>
<stop offset="0.125" stop-color="#424254"/>
<stop offset="0.1875" stop-color="#424253"/>
<stop offset="0.25" stop-color="#424253"/>
<stop offset="0.3125" stop-color="#414152"/>
<stop offset="0.375" stop-color="#414152"/>
<stop offset="0.4375" stop-color="#404051"/>
<stop offset="0.5" stop-color="#404051"/>
<stop offset="0.5625" stop-color="#404050"/>
<stop offset="0.625" stop-color="#3F3F50"/>
<stop offset="0.6875" stop-color="#3F3F4F"/>
<stop offset="0.75" stop-color="#3E3E4F"/>
<stop offset="0.8125" stop-color="#3E3E4E"/>
<stop offset="0.875" stop-color="#3E3E4E"/>
<stop offset="0.9375" stop-color="#3D3D4D"/>
<stop offset="0.991709" stop-color="#3D3D4D"/>
<stop offset="1" stop-color="#3D3D4C"/>
</linearGradient>
<linearGradient id="paint15_linear_40_6059" x1="211.748" y1="-2.71391" x2="217.378" y2="434.748" gradientUnits="userSpaceOnUse">
<stop stop-color="#444456"/>
<stop offset="0.0126498" stop-color="#444456"/>
<stop offset="0.125" stop-color="#444456"/>
<stop offset="0.1875" stop-color="#444455"/>
<stop offset="0.21875" stop-color="#434355"/>
<stop offset="0.25" stop-color="#434354"/>
<stop offset="0.28125" stop-color="#424253"/>
<stop offset="0.3125" stop-color="#424253"/>
<stop offset="0.34375" stop-color="#414152"/>
<stop offset="0.375" stop-color="#414151"/>
<stop offset="0.40625" stop-color="#404051"/>
<stop offset="0.4375" stop-color="#404050"/>
<stop offset="0.46875" stop-color="#3F3F4F"/>
<stop offset="0.5" stop-color="#3E3E4F"/>
<stop offset="0.53125" stop-color="#3E3E4E"/>
<stop offset="0.5625" stop-color="#3D3D4E"/>
<stop offset="0.59375" stop-color="#3D3D4D"/>
<stop offset="0.625" stop-color="#3C3C4C"/>
<stop offset="0.65625" stop-color="#3C3C4C"/>
<stop offset="0.6875" stop-color="#3B3B4B"/>
<stop offset="0.71875" stop-color="#3B3B4A"/>
<stop offset="0.75" stop-color="#3A3A4A"/>
<stop offset="0.78125" stop-color="#3A3A49"/>
<stop offset="0.8125" stop-color="#393948"/>
<stop offset="0.84375" stop-color="#393948"/>
<stop offset="0.875" stop-color="#383847"/>
<stop offset="0.90625" stop-color="#383846"/>
<stop offset="0.9375" stop-color="#373746"/>
<stop offset="0.96875" stop-color="#373745"/>
<stop offset="0.98735" stop-color="#363644"/>
<stop offset="1" stop-color="#363644"/>
</linearGradient>
</defs>
</svg>
