<svg width="421" height="393" viewBox="0 0 421 393" fill="none" xmlns="http://www.w3.org/2000/svg">
<path d="M326.817 122.785C326.874 126.014 331.666 126.014 331.723 122.785C331.666 119.556 326.869 119.556 326.817 122.785Z" fill="#2C2C3F"/>
<path d="M222.031 180.889C222.057 183.831 226.322 184.232 226.89 181.342L224.479 180.889H226.932C226.864 177.665 222.093 177.665 222.031 180.889Z" fill="#2C2C3F"/>
<path d="M98.8744 155.514C103.307 155.857 120.979 152.441 137.463 160.493L142.385 187.576C135.145 188.706 133.9 196.587 138.9 201.134C138.031 203.889 137.88 207.759 140.927 210.363C140.749 211.394 140.817 212.41 141.14 213.404C141.458 214.399 141.989 215.264 142.734 215.998C138.15 227.967 132.593 240.524 120.031 241.842C110.968 242.701 94.364 242.357 84.9161 230.357C83.4526 228.436 80.2755 230.055 80.9942 232.378C82.9994 238.441 85.9161 244.029 89.7338 249.144C96.8432 261.071 129.828 283.154 143.557 260.915C146.937 255.222 149.921 249.337 152.515 243.248L160.661 288.05C160.718 288.342 160.822 288.618 160.984 288.868C161.145 289.118 161.348 289.326 161.593 289.498C161.838 289.67 162.109 289.785 162.4 289.847C162.692 289.91 162.984 289.915 163.275 289.863C163.567 289.805 163.843 289.701 164.093 289.54C164.343 289.378 164.552 289.175 164.723 288.925C164.89 288.68 165.005 288.415 165.067 288.123C165.13 287.831 165.135 287.535 165.083 287.243L152.374 217.378L157.229 216.628L170.697 288.066C171.296 290.962 175.609 290.144 175.114 287.232L161.453 214.795C162.687 213.701 163.453 212.342 163.755 210.722L179.333 211.649C170.656 219.727 164.317 234.076 189.161 251.144C208.468 268.587 250.703 281.014 281.338 278.389C281.63 278.378 281.906 278.305 282.171 278.186C282.437 278.061 282.671 277.894 282.874 277.68C283.072 277.467 283.223 277.222 283.328 276.946C283.432 276.675 283.484 276.389 283.479 276.097C283.463 275.451 283.161 266.363 277.192 252.18C278.265 248.597 279.874 245.269 282.02 242.206C284.166 239.139 286.739 236.493 289.739 234.264C291.38 235.727 292.895 237.305 294.291 239.003C295.796 242.003 297.364 244.811 298.963 247.441C296.927 251.514 292.557 261.977 298.744 266.946L304.348 271.936C304.927 272.634 305.619 273.196 306.421 273.613C307.229 274.029 308.083 274.269 308.989 274.337C312.348 274.795 314.859 271.738 316.994 269.639C319.322 271.774 321.552 273.602 323.604 275.139C334.208 283.087 342.468 285.41 342.812 285.503C343.072 285.576 343.338 285.602 343.609 285.576C343.88 285.55 344.135 285.477 344.38 285.363C344.624 285.243 344.838 285.087 345.025 284.889C345.213 284.696 345.364 284.472 345.468 284.222C359.578 248.003 341.828 199.342 312.895 173.936C313.473 171.232 313.775 168.498 313.796 165.732C313.817 162.962 313.562 160.222 313.031 157.509C312.494 154.795 311.697 152.165 310.63 149.613C309.562 147.061 308.249 144.644 306.687 142.357C300.755 133.602 288.437 122.248 263.447 117.889C227.812 111.67 224.229 92.8471 224.911 83.1023C234.01 84.8002 244.4 88.3731 252.166 95.7116C252.911 99.2221 257.489 111.982 280.859 116.107C299.692 118.805 345.583 136.331 329.135 180.154C328.208 182.93 332.359 184.425 333.38 181.623C346.39 146.644 322.749 123.16 294.348 114.8C316.817 108.337 318.906 120.321 322.499 116.16C322.671 115.915 322.791 115.644 322.854 115.357C322.921 115.066 322.927 114.774 322.874 114.477C322.828 114.186 322.723 113.91 322.562 113.66C322.406 113.404 322.203 113.196 321.958 113.024C315.249 108.285 306.572 107.118 296.859 109.649C280.343 113.837 268.416 107.472 267.869 107.264C257.609 101.941 256.531 94.7481 256.479 94.3158C256.14 92.2377 255.536 90.2429 254.656 88.3314C254.65 85.321 254.333 82.3523 253.697 79.4096C265.421 87.8523 269.921 87.6752 275.614 87.9929C287.619 87.8158 291.958 81.7064 290.505 79.5502C289.083 76.9512 281.635 80.3835 276.515 71.9929C274.692 68.946 273.682 64.8106 273.473 59.5502C272.947 23.7637 236.77 2.21164 205.765 15.5814C196.572 19.545 188.302 24.9356 180.963 31.7481C179.525 33.071 180.593 35.7273 182.567 35.6075C182.765 35.6075 203.031 35.4877 212.052 49.8627C212.442 50.6439 215.343 56.8731 211.312 62.5762C208.046 61.8054 204.52 63.0658 203.281 66.5346C201.953 69.8054 200.182 79.42 206.145 81.2169C188.229 98.0554 206.4 125.795 195.536 136.524C189.01 143.779 182.26 140.337 178.833 135.993C177.031 133.66 173.51 136.29 175.234 138.686C175.411 138.925 179.411 144.212 185.588 145.144C175.911 152.347 166.343 169.717 178.781 185.337C180.145 187.154 181.124 189.154 181.718 191.352H169.703L169.265 188.321C168.984 187.035 168.395 185.91 167.51 184.941C170.874 167.368 165.166 150.113 147.911 142.972C147.791 142.529 134.927 73.7221 134.749 73.3679C135.578 72.3002 136.234 71.1335 136.729 69.8679C137.218 68.6075 137.525 67.3002 137.64 65.9512C137.76 64.6023 137.682 63.2637 137.416 61.9356C137.145 60.6075 136.697 59.3471 136.067 58.1491C135.802 57.6491 135.468 57.2064 135.057 56.821C134.65 56.4304 134.187 56.1231 133.677 55.8835C133.166 55.6491 132.63 55.4981 132.072 55.4408C131.51 55.3783 130.958 55.4096 130.406 55.5294C125.343 33.1335 116.52 1.93039 116.427 1.60748C115.906 -0.475857 112.744 -0.564399 112.13 1.51893C108.244 13.4096 105.958 35.571 105.859 36.5085C105.807 37.0085 105.911 37.4721 106.171 37.9044C106.432 38.3314 106.791 38.6387 107.255 38.8262C115.864 42.3054 119.416 56.5762 120.791 65.1491C113.973 72.7846 102.77 84.1752 84.364 98.196C67.6296 110.941 60.5776 125.165 65.0046 137.227C69.1036 148.384 82.4994 155.514 98.8744 155.514ZM107.786 139.357C107.447 139.399 94.9786 141.811 88.1609 135.706C85.1505 121.524 116.01 89.7429 123.468 83.5866L133.567 139.081C125.833 137.967 117.182 138.055 107.786 139.357ZM192.979 248.472C196.859 226.259 203.604 219.717 206.406 217.91C208.468 219.196 210.619 220.326 212.848 221.3C209.463 227.993 205.895 240.144 209.307 258.962C203.51 256.014 198.067 252.514 192.973 248.472H192.979ZM204.895 208.04C202.895 208.988 196.328 208.003 194.14 208.019C195.656 202.498 194.953 198.279 193.989 195.576C195.927 195.243 198.203 193.769 199.911 192.826C196.421 199.123 199.614 205.321 204.89 208.04H204.895ZM202.921 161.456C207.437 162.014 214.536 165.3 216.77 170.795C214.052 173.3 211.473 175.951 209.041 178.738C207.713 178.576 206.473 178.144 205.333 177.446C204.187 176.748 203.244 175.837 202.494 174.727C199.38 170.42 199.515 166.071 202.921 161.456ZM214.385 261.462C210.072 241.618 213.88 229.248 217.083 223.014C220.312 224.186 223.604 225.149 226.958 225.904C225.921 235.165 225.979 250.66 233.338 268.498C226.833 266.649 220.515 264.305 214.38 261.462H214.385ZM238.874 269.962C230.692 252.061 230.479 236.123 231.437 226.8C235.447 227.493 239.484 227.956 243.546 228.186C248.281 237.514 254.89 252.805 259.958 273.441C252.843 272.8 245.817 271.644 238.874 269.962ZM250.395 196.54C251.906 199.941 251.328 202.717 248.677 204.795C244.088 205.384 239.567 205.774 235.104 205.977C231.359 185.774 248.098 176.628 256.223 159.837C258.088 161.587 260.223 162.899 262.624 163.764C257.093 172.618 247.364 189.748 250.395 196.54ZM310.963 269.248C309.906 270.316 308.255 269.857 307.479 268.701C300.015 262.014 298.041 262.201 301.859 251.956C305.374 257.18 309.343 262.035 313.76 266.519L310.963 269.248ZM321.453 189.665C333.614 204.982 343.275 225.477 345.275 245.035C322.781 231.602 320.208 206.581 321.458 189.665H321.453ZM337.213 250.863C337.156 254.087 332.364 254.092 332.307 250.863C332.364 247.634 337.161 247.634 337.213 250.863ZM315.916 224.378C315.864 227.607 311.072 227.607 311.015 224.378C311.072 221.149 315.869 221.149 315.921 224.378H315.916ZM311.786 190.753C311.729 193.977 306.937 193.977 306.88 190.753C306.937 187.524 311.729 187.524 311.786 190.753ZM295.739 167.003C298.046 168.269 300.265 169.675 302.4 171.217C296.348 188.826 285.041 240.331 344.442 271.113C343.869 274.295 343.078 277.42 342.062 280.493C305.885 266.774 274.833 210.701 295.739 167.003ZM289.536 228.264C279.51 219.857 277.666 219.149 284.77 207.509C285.421 214.644 287.01 221.561 289.536 228.264ZM284.427 200.706C282.234 203.097 280.39 205.732 278.9 208.618C276.88 204.524 276.374 201.446 275.729 197.477C274.833 187.337 269.843 179.774 262.458 172.759C264.078 169.837 265.697 167.18 267.171 164.894C268.765 165.118 270.364 165.201 271.973 165.149C280.661 181.602 278.348 185.071 284.432 198.951C284.427 199.529 284.427 200.118 284.432 200.706H284.427ZM255.317 132.816C255.765 132.399 256.26 132.055 256.812 131.79C257.359 131.519 257.932 131.342 258.536 131.248C259.14 131.149 259.744 131.149 260.348 131.238C260.953 131.321 261.531 131.498 262.083 131.759C274.302 136.649 277.479 146.076 278.036 151.123C278.281 154.566 273.687 154.941 270.275 154.941C259.921 154.873 250.161 137.597 255.317 132.816ZM230.593 173.967C230.796 174.18 231.036 174.347 231.312 174.467C231.583 174.587 231.869 174.649 232.166 174.654C232.463 174.66 232.749 174.607 233.031 174.498C233.307 174.389 233.552 174.232 233.765 174.029C242.755 165.363 248.333 158.566 251.692 153.863C252.119 154.618 252.604 155.389 253.15 156.175C245.88 172.076 226.859 183.514 230.557 206.113C226.9 206.175 223.302 206.097 219.749 205.889C215.979 201.081 216.015 196.451 219.812 190.134C219.963 189.878 220.057 189.602 220.104 189.311C220.145 189.014 220.13 188.722 220.057 188.436C219.984 188.149 219.859 187.884 219.682 187.644C219.505 187.41 219.291 187.212 219.036 187.061C218.781 186.904 218.51 186.805 218.213 186.764C217.921 186.717 217.63 186.732 217.343 186.8C217.057 186.873 216.791 186.993 216.552 187.17C216.312 187.347 216.114 187.561 215.963 187.811C212.015 194.384 211.411 200.092 214.145 205.451C212.213 205.259 210.302 205.029 208.411 204.759C205.15 203.509 200.979 199.915 203.947 194.785C208.687 185.576 212.046 180.045 230.973 164.368C237.39 159.055 243.447 153.352 249.145 147.269C249.26 147.821 249.406 148.389 249.583 148.977C246.718 153.326 241.057 160.753 230.656 170.779C230.437 170.988 230.27 171.227 230.15 171.503C230.031 171.774 229.968 172.061 229.963 172.363C229.958 172.66 230.01 172.946 230.119 173.227C230.229 173.503 230.385 173.753 230.593 173.967ZM248.916 140.847C243.213 147.243 237.114 153.227 230.604 158.8C230.442 157.389 230.088 156.035 229.536 154.727C228.275 152.066 224.291 153.873 225.442 156.581C225.463 156.623 227.208 160.665 225.343 163.222C223.479 164.795 221.765 166.279 220.208 167.665C217.562 162.467 211.286 158.805 206.484 157.628C207.791 156.462 209.187 155.42 210.682 154.498L215.953 150.894C218.369 149.222 215.848 145.529 213.416 147.175L211.447 148.524C211.249 139.748 215.453 134.795 222.937 137.55C223.729 139.227 227.473 143.857 233.057 145.243C233.494 145.238 243.124 145.061 249.489 138.587C249.213 139.321 249.02 140.071 248.916 140.847ZM244.874 136.67C240.572 140.024 234.994 140.618 233.432 140.722C231.275 139.868 229.427 138.576 227.885 136.847C228.822 136.295 229.593 135.561 230.192 134.649C230.791 133.738 231.161 132.743 231.296 131.66C234.609 132.727 237.916 132.722 241.223 131.654C241.473 132.696 241.916 133.654 242.552 134.524C243.182 135.394 243.958 136.107 244.874 136.67ZM240.427 127.186C239.078 127.691 237.687 127.941 236.244 127.936C234.807 127.93 233.416 127.665 232.072 127.144C232.244 125.738 232.369 124.248 232.447 122.706C234.525 122.014 237.598 120.654 239.848 118.196C239.859 121.201 240.052 124.201 240.427 127.186ZM234.322 111.561C230.515 116.852 224.218 118.68 222.359 119.118C221.463 118.821 220.598 118.456 219.76 118.024C218.927 117.592 218.13 117.097 217.369 116.535C216.609 115.977 215.9 115.363 215.239 114.691C214.578 114.019 213.973 113.3 213.427 112.529C212.874 111.764 212.395 110.956 211.973 110.113C211.552 109.269 211.197 108.399 210.916 107.498C210.635 106.597 210.421 105.68 210.286 104.748C210.145 103.816 210.083 102.878 210.093 101.936L212.156 102.462C215.01 103.144 216.119 98.8783 213.26 98.0971L210.114 97.295C210.307 91.9721 211.229 86.7794 212.89 81.7169C215.119 81.821 217.682 82.0294 220.463 82.3939C220.041 87.5137 220.791 92.4616 222.718 97.2221L220.687 97.8366C218.234 98.5502 218.817 102.279 221.333 102.243C221.786 102.3 224.302 101.404 224.775 101.3C227.249 105.384 230.432 108.805 234.322 111.561ZM268.979 59.7325C269.187 64.9877 270.15 69.1023 271.604 72.3054C261.458 74.1387 255.989 69.2794 253.552 66.0346C259.161 65.4044 265.01 63.3002 268.9 58.3679C268.927 58.821 268.958 59.2689 268.979 59.7273V59.7325ZM267.817 50.3731C265.473 59.6752 256.624 61.5398 250.729 61.7116C249.359 59.92 247.838 58.2689 246.171 56.7533C252.854 50.3939 256.515 42.6752 256.39 29.0606C259.302 31.9721 261.729 35.2429 263.671 38.8731C265.619 42.4981 266.999 46.3314 267.817 50.3731ZM251.515 24.8731C253.656 41.0398 247.229 49.8835 242.718 53.9721C241.104 52.8262 239.411 51.8158 237.635 50.9356C240.239 36.0762 236.645 23.2273 234.359 17.0658C240.645 18.42 246.364 21.0241 251.515 24.8731ZM229.203 16.295C230.817 20.0658 235.791 33.3991 233.369 49.1179C230.958 48.2481 228.484 47.5971 225.958 47.1648C221.63 31.6231 213.432 23.0398 208.765 19.2221C215.348 16.6544 222.161 15.6752 229.203 16.295ZM188.088 31.5085C193.025 27.5137 198.348 24.1127 204.041 21.3054C206.989 23.3731 216.197 30.8679 221.098 46.5866C219.161 46.4356 217.223 46.4408 215.286 46.6075C207.927 35.7169 195.348 32.4669 188.088 31.5085ZM207.489 68.1023C207.604 67.7273 207.812 67.4304 208.124 67.2012C208.437 66.9721 208.786 66.8627 209.177 66.8679C228.322 69.1648 241.557 74.7846 249.348 87.7481C234.942 78.2168 216.854 77.1127 208.364 77.1127C204.744 77.0137 207.14 69.0241 207.489 68.1023ZM206.749 87.4096C205.859 91.3523 205.468 97.2898 205.598 102.066C205.588 104.462 205.958 106.795 206.697 109.076C207.437 111.352 208.51 113.456 209.927 115.389C211.062 117.113 216.697 126.264 213.578 133.634C209.947 135.753 208.031 139.024 207.317 143.66V143.649C207.317 143.649 204.427 157.581 188.864 163.248C189.697 160.227 191.416 156.91 194.51 153.311C215.062 125.936 193.359 108.644 206.749 87.4096ZM177.666 165.488C179.27 156.748 186.197 149.441 191.494 146.311C193.057 145.243 194.505 144.04 195.843 142.701C194.609 145.493 193.015 148.071 191.062 150.42C186.812 155.524 184.708 160.243 184.01 164.623C181.916 165.066 179.802 165.352 177.666 165.488ZM170.281 195.852H189.249C190.166 197.639 191.489 201.639 189.536 207.743L163.828 206.217C163.775 204.925 163.692 203.529 163.557 202.076C167.041 202.061 170.244 199.467 170.281 195.852ZM164.843 189.123L165.666 194.889C166.005 196.222 165.598 197.154 164.213 197.462L162.989 197.613C162.307 194.321 161.942 190.607 160.13 187.68C162.223 187.107 163.958 186.717 164.843 189.123ZM157.421 192.977L148.114 195.149C147.817 195.212 147.541 195.326 147.291 195.498C147.041 195.67 146.838 195.884 146.671 196.139C146.51 196.394 146.4 196.675 146.348 196.972C146.296 197.274 146.307 197.571 146.374 197.863C146.447 198.16 146.567 198.43 146.744 198.675C146.927 198.92 147.145 199.123 147.4 199.279C147.661 199.436 147.942 199.54 148.239 199.581C148.541 199.623 148.838 199.607 149.13 199.529L158.395 197.373C158.666 198.91 158.869 200.42 159.02 201.863L150.067 204.066C149.775 204.139 149.515 204.264 149.275 204.441C149.036 204.618 148.838 204.831 148.682 205.087C148.531 205.342 148.432 205.618 148.385 205.915C148.343 206.206 148.354 206.498 148.427 206.79C148.494 207.076 148.619 207.342 148.796 207.581C148.973 207.821 149.187 208.019 149.442 208.175C149.697 208.331 149.968 208.43 150.265 208.477C150.557 208.519 150.848 208.509 151.14 208.436L159.338 206.42C159.427 208.649 159.848 211.639 157.046 212.102L147.942 213.503C145.749 213.623 144.859 211.717 145.541 210.399C145.666 210.139 145.739 209.863 145.755 209.576C145.775 209.29 145.744 209.009 145.656 208.732C145.567 208.456 145.432 208.206 145.249 207.988C145.062 207.764 144.843 207.581 144.593 207.446C141.51 205.764 143.411 201.821 143.635 201.384C143.77 201.123 143.848 200.852 143.88 200.561C143.906 200.269 143.88 199.982 143.796 199.701C143.713 199.42 143.583 199.165 143.4 198.941C143.218 198.712 143.005 198.524 142.749 198.378C140.677 197.389 139.093 193.561 141.864 192.389L153.317 189.243C155.9 188.566 157.046 190.826 157.421 192.977ZM151.286 185.134L146.734 186.384L130.083 94.8158L133.52 90.8887L151.286 185.134ZM110.505 35.3887C110.963 31.3314 112.317 20.1908 114.338 10.8471C117.432 22.0919 123.025 42.9148 126.479 58.5398C125.854 59.2794 125.281 59.9669 124.578 60.795C122.562 50.7741 118.541 39.7221 110.505 35.3887ZM87.0776 101.779C113.567 81.42 123.328 69.1439 131.02 60.1283C131.088 60.0398 131.171 59.9773 131.275 59.9356C131.374 59.8939 131.484 59.8783 131.593 59.8887C131.703 59.9044 131.802 59.9408 131.89 60.0085C131.979 60.071 132.052 60.1544 132.098 60.2533C135.312 66.8262 131.229 71.7273 125.614 75.9252C114.833 84.9252 64.4109 129.717 91.614 150.493C61.6609 145.498 61.2026 120.488 87.0828 101.779H87.0776Z" fill="#2C2C3F"/>
<path d="M26.2708 392.077C40.7865 392.077 52.6354 380.259 52.6354 365.837C52.6354 351.322 40.7865 339.473 26.3021 339.473C11.849 339.473 0 351.322 0 365.837C0 380.259 11.849 392.077 26.2708 392.077ZM26.2708 386.233C15.026 386.233 5.84896 377.051 5.84896 365.806C5.84896 354.53 15.026 345.285 26.2708 345.285C37.5781 345.285 46.7917 354.53 46.7917 365.806C46.7917 377.051 37.5781 386.233 26.2708 386.233Z" fill="#2C2C3F"/>
<path d="M71.4614 385.66V340.207H65.6802V391.41H96.5552V385.66H71.4614Z" fill="#2C2C3F"/>
<path d="M144.951 340.207L127.482 379.879L110.076 340.207H103.946L127.165 392.202H127.862L151.18 340.207H144.951Z" fill="#2C2C3F"/>
<path d="M192.395 345.89V340.207H162.316V391.41H192.395V385.66H168.098V367.874H189.155V362.093H168.098V345.89H192.395Z" fill="#2C2C3F"/>
<path d="M243.333 391.41L228.12 370.765C234.344 368.89 238.891 363.171 238.891 356.53C238.891 347.509 231.136 340.207 221.641 340.207H206.521L206.552 391.41H212.333V371.431H221.896L236.188 391.41H243.333ZM212.302 366.541V345.921H221.828C227.865 345.921 232.948 350.499 232.948 356.405C232.948 361.931 227.927 366.572 221.828 366.572L212.302 366.541Z" fill="#2C2C3F"/>
<path d="M315.035 391.41L299.822 370.765C306.046 368.89 310.592 363.171 310.592 356.53C310.592 347.509 302.837 340.207 293.342 340.207H278.223L278.254 391.41H284.035V371.431H293.598L307.889 391.41H315.035ZM284.004 366.541V345.921H293.53C299.566 345.921 304.65 350.499 304.65 356.405C304.65 361.931 299.629 366.572 293.53 366.572L284.004 366.541Z" fill="#2C2C3F"/>
<path d="M325.921 391.41H331.703V372.509H342.151C352.062 372.509 360.161 365.426 360.161 356.723C360.161 347.64 352.062 340.207 342.151 340.207H325.921V391.41ZM342.151 366.822L331.703 366.791V345.921H342.151C348.885 345.921 354.38 350.749 354.38 356.66C354.38 362.28 348.885 366.858 342.151 366.822Z" fill="#2C2C3F"/>
<path d="M419.997 364.285H395.663V369.494H414.023C414.054 369.78 414.054 370.129 414.054 370.509C414.054 379.561 406.179 386.265 396.174 386.265C384.356 386.265 375.304 377.082 375.304 365.837C375.304 354.244 384.898 345.285 395.695 345.285C400.84 345.285 407.07 348.051 411.038 351.989L414.278 347.192C409.674 342.712 402.018 339.541 395.726 339.504C381.273 339.504 369.424 351.384 369.424 365.837C369.424 380.291 381.242 392.108 395.95 392.108C409.163 392.108 420.215 382.296 420.215 367.936C420.215 366.473 420.09 365.108 419.997 364.285Z" fill="#2C2C3F"/>
</svg>
